<svg xmlns="http://www.w3.org/2000/svg" viewBox="0 -.5 384 216" shape-rendering="crispEdges">
    <path stroke="#323232" d="M0 0h27m13 0h8m3 0h4m28 0h7m5 0h5m3 0h281M0 1h26m14 0h8m3 0h3m29 0h7m5 0h5m2 0h282M0 2h26m14 0h8m2 0h3m30 0h7m5 0h5m2 0h282M0 3h26m24 0h3m30 0h6m6 0h4m3 0h282M0 4h26m57 0h6m5 0h5m2 0h283M0 5h26m57 0h6m5 0h5m2 0h283M0 6h25m58 0h5m5 0h5m2 0h284M0 7h25m58 0h4m6 0h5m2 0h284M0 8h25m58 0h3m7 0h4m2 0h285M0 9h25m58 0h2m7 0h5m2 0h285M0 10h24m67 0h5m2 0h286M0 11h24m54 0h2m10 0h6m1 0h287M0 12h24m54 0h2m9 0h6m2 0h287M0 13h24m54 0h1m9 0h6m2 0h288M0 14h23m54 0h3m7 0h7m1 0h289M0 15h23m54 0h3m6 0h7m2 0h289M0 16h22m54 0h3m7 0h6m2 0h290M0 17h22m53 0h3m9 0h4m2 0h291M0 18h21m71 0h292M0 19h21m59 0h3m8 0h293M0 20h21m58 0h4m9 0h292M0 21h21m58 0h4m11 0h290M0 22h20m60 0h2m13 0h289M0 23h19m77 0h288M0 24h19m79 0h286M0 25h18m81 0h285M0 26h18m82 0h284M0 27h17m85 0h282M0 28h17m86 0h281M0 29h16m88 0h280M0 30h16m89 0h279M0 31h15m91 0h278M0 32h15m92 0h277M0 33h15m93 0h276M0 34h15m94 0h275M0 35h14m97 0h273M0 36h14m98 0h272M0 37h14m98 0h272M0 38h14m80 0h3m14 0h273M0 39h14m80 0h4m12 0h274M0 40h13m81 0h5m11 0h274M0 41h13m81 0h5m11 0h274M0 42h13m81 0h6m11 0h273M0 43h13m81 0h7m1 0h1m12 0h269M0 44h13m81 0h8m1 0h1m13 0h267M0 45h13m81 0h8m1 0h2m13 0h266M0 46h13m67 0h1m13 0h9m1 0h2m13 0h265M0 47h13m67 0h1m13 0h9m1 0h3m13 0h264M0 48h13m81 0h10m1 0h1m15 0h263M0 49h13m81 0h10m17 0h263M0 50h13m81 0h11m15 0h264M0 51h13m81 0h11m15 0h264M0 52h12m82 0h12m13 0h265M0 53h12m82 0h12m1 0h1m11 0h265M0 54h11m83 0h12m2 0h1m10 0h265M0 55h12m81 0h14m1 0h2m11 0h263M0 56h12m80 0h21m10 0h261M0 57h11m80 0h23m10 0h260M0 58h11m79 0h24m12 0h258M0 59h11m78 0h25m13 0h257M0 60h10m79 0h24m14 0h257M0 61h10m79 0h23m16 0h256M0 62h10m79 0h23m17 0h255M0 63h10m79 0h24m16 0h255M0 64h9m80 0h24m16 0h255M0 65h9m80 0h21m18 0h256M0 66h9m80 0h21m17 0h257M0 67h8m80 0h21m17 0h258M0 68h8m79 0h12m5 0h4m19 0h257M0 69h8m79 0h10m31 0h256M0 70h8m78 0h9m34 0h255M0 71h7m78 0h10m35 0h254M0 72h8m76 0h10m36 0h254M0 73h8m75 0h11m37 0h253M0 74h9m73 0h12m37 0h253M0 75h10m70 0h14m38 0h252M0 76h10m68 0h15m40 0h251M0 77h10m67 0h15m41 0h251M0 78h10m67 0h14m43 0h250M0 79h10m68 0h12m45 0h249M0 80h10m16 0h1m51 0h11m47 0h248M0 81h12m14 0h2m50 0h11m48 0h247M0 82h12m14 0h3m50 0h9m49 0h247M0 83h13m13 0h5m48 0h8m50 0h247M0 84h13m13 0h6m47 0h7m51 0h247M0 85h13m13 0h8m45 0h6m52 0h247M0 86h14m13 0h8m44 0h6m52 0h247M0 87h14m14 0h8m42 0h6m53 0h247M0 88h13m16 0h8m41 0h6m53 0h3m16 0h228M0 89h12m18 0h9m39 0h5m54 0h2m21 0h224M0 90h12m18 0h11m38 0h3m54 0h3m24 0h221M0 91h12m19 0h12m37 0h2m53 0h3m27 0h219M0 92h13m18 0h15m89 0h3m29 0h217M0 93h13m18 0h17m86 0h3m32 0h215M0 94h13m18 0h17m122 0h214M0 95h14m17 0h16m124 0h213M0 96h15m18 0h11m127 0h213M0 97h16m19 0h2m134 0h213M0 98h17m154 0h213M0 99h19m151 0h214M0 100h20m150 0h214M0 101h21m149 0h214M0 102h21m149 0h214M0 103h20m20 0h5m126 0h213M0 104h19m20 0h6m126 0h213M0 105h20m19 0h4m128 0h213M0 106h22m149 0h213M0 107h23m148 0h213M0 108h24m147 0h213M0 109h25m146 0h213M0 110h26m145 0h213M0 111h29m143 0h212M0 112h35m137 0h212M0 113h37m135 0h212M0 114h41m131 0h212M0 115h46m126 0h212M0 116h51m3 0h4m114 0h212M0 117h58m114 0h212M0 118h58m113 0h213M0 119h58m113 0h213M0 120h58m113 0h213M0 121h58m113 0h213M0 122h59m112 0h213M0 123h59m112 0h213M0 124h60m111 0h213M0 125h61m110 0h213M0 126h62m109 0h213M0 127h63m107 0h214M0 128h65m54 0h2m49 0h214M0 129h66m52 0h9m43 0h214M0 130h67m50 0h12m2 0h1m38 0h214M0 131h67m48 0h17m38 0h214M0 132h68m45 0h19m37 0h215M0 133h69m43 0h20m37 0h215M0 134h70m41 0h21m37 0h215M0 135h71m39 0h22m37 0h215M0 136h72m37 0h23m36 0h216M0 137h73m35 0h24m36 0h216M0 138h74m33 0h25m36 0h216M0 139h75m30 0h26m36 0h217M0 140h77m27 0h27m36 0h217M0 141h78m24 0h29m36 0h217M0 142h80m20 0h31m35 0h218M0 143h83m15 0h33m35 0h218M0 144h87m7 0h36m36 0h218M0 145h130m35 0h219M0 146h130m35 0h219M0 147h130m34 0h220M0 148h129m35 0h220M0 149h129m34 0h221M0 150h129m34 0h221M0 151h129m33 0h222M0 152h130m32 0h222M0 153h130m31 0h223M0 154h131m29 0h224M0 155h133m26 0h225M0 156h135m24 0h225M0 157h138m20 0h226M0 158h143m13 0h228M0 159h384M0 160h384M0 161h384M0 162h384M0 163h384M0 164h384M0 165h384M0 166h384M0 167h384M0 168h384M0 169h384M0 170h384M0 171h384M0 172h384M0 173h384M0 174h384M0 175h384M0 176h384M0 177h384M0 178h384M0 179h384M0 180h384M0 181h384M0 182h384M0 183h384M0 184h384M0 185h384M0 186h384M0 187h384M0 188h384M0 189h384M0 190h384M0 191h384M0 192h384M0 193h384M0 194h384M0 195h384M0 196h384M0 197h384M0 198h384M0 199h384M0 200h384M0 201h384M0 202h384M0 203h384M0 204h384M0 205h384M0 206h384M0 207h384M0 208h384M0 209h384M0 210h384M0 211h384M0 212h384M0 213h384M0 214h384M0 215h384"/>
    <path stroke="#101010" d="M27 0h1m2 0h9m16 0h16m2 0h10M26 1h2m3 0h8m15 0h17m2 0h10M26 2h3m2 0h8m14 0h18m2 0h10M26 3h4m2 0h7m14 0h18m2 0h10M26 4h5m2 0h5m12 0h21m2 0h9M26 5h5m2 0h5m12 0h21m2 0h8M25 6h7m2 0h4m12 0h21m2 0h8M25 7h8m1 0h5m10 0h22m2 0h7M25 8h9m1 0h5m9 0h22m2 0h7M25 9h9m2 0h4m9 0h22m2 0h6m-55 1h11m3 0h2m9 0h22m2 0h6m-55 1h12m3 0h2m7 0h23m2 0h5m-54 1h12m3 0h2m7 0h23m2 0h5m-54 1h13m2 0h3m5 0h24m2 0h5m-55 1h15m1 0h3m5 0h24m2 0h4m-54 1h15m2 0h3m5 0h23m2 0h4m-54 1h15m2 0h3m5 0h23m2 0h3m-54 1h16m3 0h3m5 0h22m2 0h2m10 0h2m-65 1h16m3 0h4m5 0h21m2 0h2m10 0h5m-68 1h16m4 0h3m5 0h15m5 0h1m13 0h5m-66 1h19m1 0h3m5 0h13m19 0h5m2 0h2m-70 1h20m2 0h2m6 0h12m19 0h4m2 0h5m-72 1h21m1 0h3m6 0h10m19 0h3m2 0h8m-73 1h21m2 0h3m5 0h9m24 0h10m-74 1h22m2 0h2m6 0h6m25 0h13m-76 1h22m2 0h3m6 0h4m27 0h13m-77 1h23m2 0h3m5 0h4m28 0h13m-78 1h24m1 0h3m6 0h2m30 0h14m-80 1h24m2 0h3m38 0h14m-81 1h20m1 0h4m3 0h1m39 0h14m-82 1h25m44 0h14m-83 1h21m1 0h3m44 0h9m4 0h2m-84 1h25m45 0h5m7 0h3m-85 1h25m45 0h4m7 0h5m-86 1h26m44 0h3m7 0h7m-86 1h26m44 0h2m7 0h9m-88 1h23m1 0h2m44 0h2m8 0h9m-89 1h24m47 0h2m9 0h7m-89 1h24m60 0h4m-88 1h25m60 0h2m-86 1h25m-25 1h25m-25 1h26m-25 1h26m60 0h4m-90 1h27m59 0h6m-91 1h27m56 0h9m-92 1h27m56 0h10m-92 1h27m53 0h13m-93 1h28m2 0h2m47 0h15m-93 1h28m2 0h2m45 0h16m-92 1h28m2 0h1m46 0h14m-90 1h28m2 0h1m45 0h14m-90 1h29m2 0h1m45 0h8m-84 1h33m44 0h5m-81 1h33m44 0h4m-78 1h32m43 0h2m7 0h2m-84 1h31m50 0h5m-83 1h28m49 0h7m-82 1h26m47 0h11m-80 1h21m47 0h13m-77 1h16m47 0h14m-15 1h16m-16 1h17m-16 1h16m-16 1h16m-13 1h6m2 0h4m-3 1h2M93 76h1m-2 1h2m-3 1h3m-4 1h4m-5 1h6m-6 1h6m-7 1h7m-75 1h3m64 0h8m-77 1h6m62 0h10m-80 1h9m62 0h10m-82 1h12m63 0h8m-84 1h14m65 0h5m-85 1h16m66 0h3m-86 1h18m53 0h1m12 0h2m-86 1h18m52 0h2m-72 1h10m2 0h7m51 0h2m-71 1h8m4 0h6m51 0h2m-71 1h7m6 0h5m51 0h1m-70 1h7m7 0h4m29 0h12m-58 1h6m7 0h4m21 0h21m-58 1h5m6 0h7m11 0h29m-57 1h5m5 0h9m2 0h37m52 0h2M17 98h5m3 0h49m49 0h6M19 99h55m48 0h8m-110 1h54m46 0h11m-110 1h53m46 0h12m-111 1h53m46 0h13m-113 1h20m5 0h18m3 0h1m2 0h5m47 0h12m-114 1h14m4 0h2m7 0h17m6 0h6m41 0h2m4 0h12m-111 1h9m14 0h17m4 0h8m40 0h4m3 0h12m-110 1h7m15 0h29m40 0h5m3 0h12m-112 1h8m14 0h30m40 0h5m4 0h11m-111 1h7m14 0h30m39 0h7m4 0h11m-111 1h6m14 0h30m39 0h8m3 0h11m-110 1h6m13 0h31m38 0h8m4 0h10m-107 1h4m12 0h30m39 0h9m4 0h9m-91 1h29m40 0h10m4 0h8m-90 1h25m44 0h10m3 0h8m-90 1h18m51 0h10m4 0h6m-89 1h12m58 0h10m4 0h5m-84 1h3m63 0h10m4 0h4m-18 1h10m-9 1h9m-8 1h8m-7 1h6m3 0h1m-8 1h3m4 0h2m-1 1h1m-10 2h4m-5 1h6m-7 1h8m-8 1h11m-9 1h10m-4 1h5m-3 1h2"/>
    <path stroke="#040404" d="M28 0h2m18 0h3M28 1h3m17 0h3M29 2h2m17 0h2M30 3h2m9 0h9M31 4h2m7 0h10M31 5h2m7 0h10M32 6h2m6 0h10M33 7h1m6 0h9M34 8h1m5 0h9M34 9h2m4 0h9m-14 1h2m3 0h9m-13 1h1m4 0h7m-12 1h2m3 0h7m-6 1h5m-5 1h5m-4 1h5m-9 1h1m3 0h5m-8 1h1m3 0h5m-9 1h1m4 0h5m-10 1h2m3 0h5m-8 1h1m3 0h5m-9 1h2m2 0h6m-9 1h1m3 0h6m-10 1h2m3 0h5m-9 1h2m2 0h6m-10 1h2m3 0h6m-10 1h2m3 0h5m-9 1h1m3 0h6m-10 1h2m3 0h6m-10 1h3m1 0h6m-10 1h11m-11 1h12m-12 1h12m-12 1h5m2 0h5m-11 1h3m4 0h5m-11 1h2m4 0h7m-6 1h8m-8 1h10m-11 1h12m-14 1h15m-16 1h16m-16 1h17m-17 1h17m-16 1h16m-15 1h16m-15 1h15m-14 1h14m-13 1h13m-11 1h11m-10 1h10m-10 1h10m-9 1h9m-8 1h8m-6 1h5m-4 1h4m-2 1h2m-10 6h5m-4 1h3M26 74h1m-1 1h2m38 0h1m-41 1h2m38 0h1m-41 1h3m37 0h1m-41 1h3m37 0h1m-41 1h4m36 0h1m-40 1h3m36 0h1m-39 1h3m35 0h1m-38 1h3m34 0h1m-36 1h1m33 0h2m-35 1h1m32 0h1m-3 3h1m-2 1h1m-2 1h1m-3 1h2m-3 1h1m-11 2h2m-2 1h2m-3 1h3m13 8h3m1 0h2m-6 1h6m-6 1h4"/>
    <path stroke="#e89725" d="M39 0h1m-1 1h1m-1 1h1m-1 1h2m-3 1h2m-2 1h2m-2 1h2m-1 1h1m-3 3h1m0 1h1m-1 1h1m-2 1h2m-1 1h1m-1 1h2m-18 1h1m15 0h1m-1 1h2m-19 1h1m16 0h2m-19 1h1m16 0h2m-19 1h1m-1 1h1m-1 1h1m-1 1h1m-1 1h1m-1 1h1m-1 1h1m-1 1h1m-1 1h1m-1 1h1m20 0h1m-22 1h1m21 1h1m15 1h3m-10 1h2m5 0h5m-13 1h4m5 0h6m-15 1h4m7 0h5m-45 1h1m23 0h1m2 0h7m8 0h4m-21 1h9m10 0h3m-22 1h8m12 0h2m-21 1h5m15 0h2m-47 1h1m25 0h3m16 0h2m31 0h2m-80 1h1m25 0h3m17 0h2m30 0h4m-55 1h2m17 0h2m33 0h2m-82 1h1m26 0h2m16 0h2m34 0h2m-55 1h2m16 0h1m35 0h2m-55 1h2m15 0h1m35 0h3m-56 1h3m14 0h1m36 0h2m-83 1h1m27 0h3m13 0h1m-16 1h2m13 0h1m-44 1h1m28 0h2m12 0h1m-43 1h1m28 0h2m11 0h1m-43 1h2m28 0h2m10 0h1m-42 1h1m29 0h2m9 0h1m-41 1h1m38 0h2m42 0h2m-84 1h1m37 0h1m43 0h3m-85 1h3m35 0h1m44 0h3m-85 1h2m34 0h1m46 0h3m-50 1h1m46 0h2m-3 1h1m-48 1h1m-2 1h2m-4 1h3m-4 1h3m-5 1h4m-4 1h3M20 93h1m-1 1h1m-1 1h2m-2 1h3m-2 1h2m-1 1h2m9 9h5m-5 1h7m-4 1h9m-4 1h4m105 12h3m-4 1h5m-6 1h7m-7 1h7m-7 1h7m-6 1h5m-4 1h3"/>
    <path stroke="#070707" d="M71 0h2m17 0h5m5 0h3M71 1h2m17 0h5m5 0h2M71 2h2m17 0h5m5 0h2M71 3h2m16 0h6m4 0h3M71 4h2m9 0h1m6 0h5m5 0h2M71 5h2m8 0h2m6 0h5m5 0h2M71 6h2m8 0h2m5 0h5m5 0h2M71 7h2m7 0h3m4 0h6m5 0h2M71 8h2m7 0h3m3 0h7m4 0h2M71 9h2m6 0h4m2 0h7m5 0h2m-28 1h2m6 0h12m5 0h2m-27 1h2m7 0h10m6 0h1m-26 1h2m7 0h9m6 0h2m-26 1h2m6 0h9m6 0h2m-25 1h2m7 0h7m7 0h1m-24 1h2m7 0h6m7 0h2m-24 1h2m6 0h7m6 0h2m-23 1h2m5 0h7m6 0h2m-22 1h2m2 0h10m5 0h2m-21 1h9m3 0h1m5 0h2m-16 1h4m9 0h2m-3 1h2m-4 1h2m-4 1h3m-4 1h3m-5 1h3m-5 1h4m-62 1h1m56 0h3m-61 1h2m-2 1h2m-2 1h2m-3 1h4m-4 1h4m-4 1h4m-4 1h4m-5 1h6m72 0h1m-79 1h5m73 0h2m-80 1h6m73 0h2m-81 1h6m74 0h2m-83 1h7m75 0h2m-84 1h7m76 0h2m-85 1h7m76 0h2m-85 1h8m76 0h2m-86 1h8m77 0h1m-87 1h8m79 0h1m-88 1h4m83 0h1m-88 1h2m86 0h1m-1 1h1m-91 1h1m90 0h1m-1 1h1m0 1h1m-1 1h1m0 1h1m11 0h1m-13 1h1m11 0h1M11 54h1m94 0h2m-1 1h1M7 71h1m105 2h1m-2 1h3M10 75h1m101 0h4M10 76h2m101 0h3M10 77h2m101 0h4M10 78h2m101 0h4M10 79h1m102 0h4M10 80h1m103 0h3m-4 1h4m-4 1h3m-3 1h2m-2 1h2m-3 1h2m-3 1h2m-3 1h3m-4 1h3m-3 1h2m4 8h4m-38 1h1m32 0h2m1 0h1m-38 1h1m28 0h1m4 0h1m-7 1h2m4 0h1m-7 1h2m-2 1h1m-2 1h2m-64 1h1m30 0h4m27 0h1m-88 1h3m15 0h1m4 0h3m29 0h5m26 0h2m-86 1h2m7 0h5m4 0h6m29 0h4m27 0h2m-76 1h1m42 0h4m-4 1h3m-3 1h3m-2 1h1m27 2h1m-2 1h2m-38 1h3m33 0h2m-2 1h1m-40 1h2m36 0h3m-40 1h1m37 0h9m-47 1h2m39 0h12m-53 1h2m39 0h13m-13 1h14m6 0h3m-22 1h15m3 0h4m-20 1h1m5 0h1m4 0h10m-9 1h9m-5 1h1"/>
    <path stroke="#291b04" d="M37 11h1m70 33h1"/>
    <path stroke="#8b8b8b" d="M65 19h5m-48 1h1m41 0h11m-11 1h15m-59 1h1m42 0h17m-61 1h2m41 0h21m-64 1h2m39 0h22m-64 1h3m38 0h18m1 0h2m3 0h3m-68 1h3m38 0h18m5 0h5m-70 1h3m40 0h17m4 0h7m-71 1h2m47 0h12m4 0h7m-73 1h3m51 0h8m5 0h7m-74 1h3m52 0h7m6 0h7m-76 1h3m54 0h6m7 0h6m-76 1h3m55 0h6m6 0h7m-77 1h3m55 0h6m7 0h6m-77 1h3m55 0h7m7 0h5m-78 1h3m57 0h6m7 0h6m-79 1h3m57 0h6m7 0h6m-79 1h3m57 0h7m6 0h7m-80 1h3m57 0h20m-80 1h2m58 0h20m-81 1h3m59 0h6m1 0h12m-81 1h3m59 0h5m8 0h6m-81 1h3m59 0h5m9 0h5m-81 1h3m59 0h5m9 0h5m-81 1h2m60 0h5m9 0h5m-81 1h2m60 0h5m9 0h5m-81 1h2m60 0h5m9 0h5m-81 1h3m59 0h5m9 0h5m-80 1h2m59 0h5m9 0h5m-81 1h3m59 0h5m9 0h5m-81 1h2m60 0h5m10 0h4m-81 1h2m59 0h6m11 0h3m-82 1h3m59 0h6m11 0h3m-82 1h2m60 0h5m12 0h3m-20 1h4m12 0h4m-21 1h4m13 0h3m-20 1h3m13 0h3m-19 1h2m14 0h2m-19 1h2m15 0h1m-18 1h2m-3 1h3m14 0h1m-33 1h3m12 0h3m14 0h1m-32 1h3m10 0h4m13 0h2m-31 1h3m8 0h5m13 0h2m-30 1h2m8 0h5m12 0h3m-29 1h2m6 0h6m12 0h3m-29 1h2m5 0h7m12 0h3m-29 1h2m4 0h7m12 0h3m-27 1h2m2 0h7m13 0h2m-26 1h11m12 0h3m-26 1h10m8 0h7m-25 1h9m8 0h7m-23 1h7m9 0h6m-22 1h6m9 0h6m-21 1h5m10 0h5m-20 1h4m11 0h3m-18 1h4m11 0h1m-16 1h4m-4 1h4m-4 1h4m-5 1h5m-5 1h5m-5 1h5m-5 1h4m-5 1h5m-5 1h5m-6 1h5m-6 1h5m-6 1h5m-6 1h5m-6 1h4m-15 1h14m-12 1h10m65 4h5m-7 1h7m-8 1h5m-5 1h4m-3 1h1m-6 1h2m-2 1h3m-4 1h4m-4 1h3m-4 1h3m-3 1h3m-3 1h3m-3 1h2m-2 1h2m-2 1h2m-39 1h1m36 0h2m-40 1h2m36 0h2m-43 1h4m38 0h2m-51 1h3m3 0h4m39 0h2m-55 1h13m41 0h2m-56 1h4m2 0h6m42 0h3m-57 1h5m1 0h5m44 0h2m10 0h1m3 0h4m-75 1h5m2 0h3m57 0h8m-75 1h5m62 0h8m-75 1h2m68 0h4m-3 1h3m-3 1h3m-14 1h1m9 0h4m-15 1h2m5 0h8m-16 1h2m6 0h8m-7 1h6m-3 1h3m-2 1h2"/>
    <path stroke="#d3dff6" d="M77 25h1m-1 1h1m2 1h1m-3 1h4m-4 1h5m-5 1h6m-6 1h7m-5 1h5m-2 1h3m-2 1h3m-2 1h2m-1 1h1"/>
    <path stroke="#292929" d="M58 27h2m-3 1h9m-9 1h13m-12 1h13m-12 1h13m-10 1h11m6 0h1m-16 1h9m6 0h4m-17 1h7m7 0h4m-17 1h7m6 0h5m-17 1h6m6 0h6m-17 1h5m7 0h6m-18 1h5m-4 1h4m-4 1h5m6 0h1m-11 1h4m5 0h8m-17 1h4m5 0h9m-18 1h4m5 0h9m-18 1h4m5 0h9m-18 1h4m5 0h9m-18 1h4m6 0h8m-18 1h4m6 0h8m-18 1h4m5 0h9m-18 1h4m5 0h9m-18 1h4m5 0h10m-19 1h3m6 0h11m-20 1h3m6 0h11m-20 1h3m5 0h12m-21 1h4m4 0h12m-20 1h3m4 0h13m-21 1h4m3 0h13m-20 1h4m2 0h14m-21 1h4m2 0h15m-21 1h4m2 0h15m-21 1h3m3 0h14m-21 1h4m3 0h14m-22 1h4m4 0h13m-22 1h4m5 0h13m-23 1h5m5 0h12m-24 1h6m6 0h12m-24 1h5m7 0h12m-24 1h4m7 0h12m-22 1h2m7 0h13m-13 1h12m-13 1h8m-9 1h8m-9 1h9m-10 1h9m-10 1h10m-10 1h10m-10 1h10m-10 1h10m-10 1h10m-10 1h11m-11 1h11m-11 1h11m-11 1h12m-12 1h12m-13 1h13m-14 1h14m-15 1h15m-15 1h14m-15 1h15m-16 1h16m-17 1h18m-20 1h21m-24 1h26m-32 1h32m-32 1h10m12 0h11m-33 1h2m21 0h10m-10 1h10m-9 1h8m-8 1h7m-7 1h6m-6 1h7m-7 1h7m-7 1h7m-7 1h6m-5 1h1"/>
    <path stroke="#0c0c0c" d="M100 31h4m-7 1h7m-8 1h7m-8 1h7m-6 1h6m-5 1h6m-5 1h7m-6 1h8m-7 1h8m-5 1h7m-5 1h5m-8 1h2m2 0h5m-8 1h2m2 0h4m-7 1h2m3 0h2m-6 1h1m0 1h1m8 6h3m-3 1h3m-2 1h3m-7 1h2m3 0h2m-6 1h2m-1 1h1m-5 8h6m6 0h2m-14 1h15m-16 1h17m-27 1h5m4 0h19m-30 1h31m-33 1h34m-34 1h35m-36 1h36m-36 1h19m1 0h17m-37 1h18m3 0h16m-37 1h18m4 0h16m-38 1h19m3 0h17m-39 1h19m4 0h16m-39 1h19m4 0h17m-40 1h19m4 0h5m1 0h12m-40 1h18m4 0h4m3 0h12m-41 1h18m4 0h4m7 0h7m-40 1h18m3 0h4m10 0h5m-40 1h18m2 0h4m12 0h6m-41 1h17m2 0h3m13 0h6m-40 1h15m2 0h3m13 0h7m-39 1h13m2 0h4m13 0h7m-39 1h12m3 0h3m13 0h8m-39 1h11m3 0h3m13 0h9m-39 1h11m2 0h4m12 0h10m-40 1h19m10 0h10M22 91h2m73 0h20m9 0h9M21 92h4m72 0h24m4 0h10M21 93h5m71 0h37M21 94h6m70 0h38M22 95h5m70 0h37M23 96h3m70 0h25m5 0h8M23 97h3m70 0h19m13 0h6M24 98h1m71 0h18m15 0h5m-39 1h14m1 0h4m16 0h4m-39 1h13m2 0h4m17 0h2m-38 1h13m2 0h4m18 0h1m-39 1h14m1 0h5m-20 1h13m2 0h4m-80 1h4m57 0h13m1 0h5m-81 1h6m55 0h13m2 0h4m-76 1h4m53 0h13m2 0h4m-81 1h1m6 0h7m47 0h20m-81 1h2m7 0h5m47 0h20m-81 1h5m56 0h20m-80 1h9m51 0h20m-79 1h12m47 0h20m-77 1h10m47 0h12m1 0h7m-75 1h9m47 0h10m2 0h8m-72 1h5m47 0h10m2 0h8m-19 1h9m1 0h10m-19 1h7m3 0h9m-18 1h7m9 0h3m-18 1h9m-8 1h8m-6 1h6m4 2h5m-3 1h3m-2 1h2"/>
    <path stroke="#1c2018" d="M23 44h1m-5 1h6m-8 1h9m-10 1h10m-10 1h11m-9 1h9m-9 1h10m-10 1h10m-11 1h12m-12 1h13m-18 1h2m3 0h14m-19 1h2m3 0h14m-19 1h2m2 0h16m-21 1h2m3 0h17m-22 1h2m3 0h17m-22 1h3m1 0h18m-23 1h23m-23 1h23m-23 1h22m-22 1h22M9 64h23M9 65h23M9 66h22M8 67h23M8 68h23M8 69h22M8 70h22M8 71h21M8 72h19M8 73h19M9 74h17m-15 1h15m-14 1h14m-14 1h14m-14 1h14m-15 1h15m-15 1h15m-14 1h14m-14 1h14m-13 1h7m3 0h3m-13 1h5m6 0h2m-13 1h3m9 0h1m-12 1h1"/>
    <path stroke="#10100e" d="M24 44h1"/>
    <path stroke="#a1130f" d="M25 45h1m-10 4h2m-3 1h3m-3 1h3m-3 1h2m-3 1h3m-3 1h3m-3 1h3m-3 1h2m-3 1h3m-3 1h3m-2 1h1m37 10h1m-2 1h3m-4 1h5m-6 1h5m-6 1h5m-6 1h5m-6 1h5m-4 1h3m-2 1h1m86 4h2m-2 1h2"/>
    <path stroke="#252525" d="M34 55h1m-1 1h3m-4 1h7m-7 1h9m-9 1h13m-13 1h17m-17 1h23m-24 1h25m-25 1h26m-26 1h27m-27 1h17m1 0h10m-29 1h15m7 0h7m-29 1h14m10 0h5m-29 1h13m12 0h5m-31 1h13m14 0h4m-31 1h13m14 0h4m-32 1h14m15 0h3m-34 1h16m15 0h4m-35 1h16m15 0h4m-35 1h16m15 0h4m-34 1h15m15 0h4m-34 1h16m13 0h5m-33 1h15m13 0h5m-33 1h16m11 0h6m-32 1h16m8 0h8m-32 1h18m4 0h9m-30 1h30m-29 1h29m-29 1h29m-28 1h27m-26 1h26m-25 1h24m-23 1h22m-21 1h20m-18 1h17m-15 1h14m-12 1h1"/>
    <path stroke="#1c1c1c" d="M49 65h1m-4 1h7m-8 1h10m-11 1h12m-13 1h9m1 0h4m-14 1h8m3 0h3m-14 1h7m5 0h3m-15 1h6m5 0h4m-15 1h5m5 0h5m-15 1h4m5 0h6m-15 1h3m5 0h7m-14 1h3m3 0h7m-13 1h4m1 0h8m-12 1h11m-10 1h8m-6 1h4"/>
    <path stroke="#0b140b" d="M122 79h1m-2 1h3m-3 1h7m-8 1h10m-11 1h12m-13 1h13m-14 1h13m-13 1h13m-14 1h13m-14 1h13m-13 1h12m-11 1h10m-9 1h9m-5 1h4m-9 6h1m-2 1h3m-3 1h4m-3 1h4m-3 1h3m-3 1h4m-3 1h4m-3 1h3m-2 1h3m-3 1h4m-3 1h4m-3 1h3m-3 1h4m-3 1h4m-3 1h4m-3 1h3m-3 1h4m-3 1h4m-3 1h4m-3 1h3"/>
    <path stroke="#090909" d="M113 80h1"/>
    <path stroke="#dadada" d="M85 85h2m-2 1h5m-6 1h9m-9 1h11m-11 1h12m-12 1h13m45 0h11m-69 1h13m44 0h19m-76 1h13m43 0h23m-80 1h14m43 0h26m-83 1h14m43 0h27m-84 1h14m43 0h28m-85 1h13m44 0h29m-87 1h14m44 0h29m-87 1h14m44 0h29m-88 1h14m45 0h30m-89 1h14m45 0h30m-89 1h14m45 0h30m-89 1h13m46 0h30m-90 1h14m46 0h31m-91 1h14m45 0h32m-91 1h13m46 0h32m-92 1h14m46 0h32m-92 1h13m47 0h32m-93 1h7m2 0h5m47 0h32m-93 1h8m3 0h3m47 0h32m-94 1h10m3 0h2m47 0h32m-95 1h13m50 0h33m-96 1h14m49 0h33m-97 1h18m45 0h34m-98 1h19m45 0h34m-114 1h2m13 0h21m44 0h10m6 0h18m-114 1h2m12 0h23m43 0h8m11 0h15m-114 1h2m11 0h25m42 0h8m12 0h14m-114 1h2m10 0h27m41 0h7m14 0h12m-113 1h2m7 0h31m39 0h8m15 0h11m-113 1h2m2 0h38m37 0h8m16 0h10m-113 1h49m30 0h8m16 0h10m-112 1h50m28 0h7m17 0h10m-112 1h53m25 0h7m17 0h10m-111 1h53m24 0h7m17 0h10m-110 1h55m20 0h8m17 0h10m-109 1h57m17 0h8m17 0h10m-108 1h56m17 0h7m18 0h9m-105 1h54m17 0h7m17 0h10m-104 1h52m17 0h8m17 0h10m-103 1h32m8 0h10m18 0h7m18 0h10m-103 1h31m13 0h4m20 0h7m18 0h10m-102 1h30m14 0h1m22 0h7m17 0h10m-100 1h29m13 0h1m22 0h8m17 0h10m-99 1h27m37 0h7m18 0h10m-98 1h27m36 0h7m18 0h10m-97 1h26m36 0h7m17 0h10m-95 1h26m34 0h8m17 0h10m-94 1h27m32 0h7m18 0h10m-93 1h30m27 0h8m17 0h10m-90 1h27m28 0h8m17 0h10m-89 1h24m30 0h7m18 0h10m-87 1h20m31 0h8m17 0h10m-83 1h15m33 0h8m17 0h10m-79 1h7m36 0h9m17 0h10m-36 1h9m17 0h9m-35 1h10m15 0h10m-35 1h11m14 0h9m-35 1h14m11 0h10m-35 1h18m5 0h11m-34 1h34m-34 1h33m-32 1h32m-32 1h31m-30 1h29m-27 1h26m-24 1h24m-21 1h20m-15 1h13"/>
    <path stroke="#cabe88" d="M140 88h16m-17 1h21m-21 1h3m11 0h10m-25 1h3m19 0h5m-27 1h2m23 0h4m-30 1h3m26 0h3m-34 1h5m27 0h3m-36 1h6m28 0h3m-37 1h6m29 0h2m-37 1h6m29 0h2m-37 1h6m29 0h2m-37 1h6m-7 1h7m-7 1h7m-7 1h7m-7 1h7m-6 1h5m-5 1h5m-4 1h4m-4 1h4m-3 1h3m-3 1h3m-3 1h3m-3 1h3m-3 1h3m-3 1h2m-3 1h3m-3 1h3m-3 1h3m-3 1h3m-3 1h3m-3 1h2m-3 1h3m-3 1h3m-3 1h3m-3 1h3m-3 1h3m-3 1h2m-3 1h3m-3 1h3m-3 1h3m-4 1h3m-3 1h3m-3 1h3m-3 1h3m-3 1h2m-2 1h2m-2 1h2m-2 1h2m-2 1h1m-1 1h1m-2 1h1m-1 1h1m-1 1h1"/>
    <path stroke="#171717" d="M85 108h2m-1 1h3m-2 1h3m-1 1h3m-2 1h2m56 3h6m-8 1h11m-11 1h12m-13 1h14m-14 1h15m-15 1h16m-16 1h16m-17 1h6m3 0h8m-17 1h5m5 0h7m-17 1h4m7 0h6m-17 1h4m7 0h6m-17 1h4m7 0h6m-18 1h6m5 0h7m-18 1h7m3 0h7m-17 1h17m-61 1h8m35 0h18m-62 1h13m31 0h18m-62 1h14m30 0h17m-61 1h13m31 0h17m-62 1h14m30 0h18m-61 1h12m31 0h18m-61 1h11m32 0h17m-59 1h9m33 0h17m-57 1h6m33 0h18m-18 1h17m-17 1h17m-18 1h18m-18 1h17m-17 1h17m-17 1h17m-17 1h17m-16 1h15m-14 1h14m-12 1h11m-7 1h5"/>
    <path stroke="#53afba" d="M116 122h4m-5 1h5m-5 1h4m-3 1h2"/>
</svg>
