<svg xmlns="http://www.w3.org/2000/svg" viewBox="0 -.5 180 70" width="180" height="70" shape-rendering="crispEdges"><path d="M0 0h120M0 1h120M0 2h120M0 3h120M0 4h120M0 5h120M0 6h120M0 7h49m4 0h67M0 8h48m6 0h66M0 9h47m8 0h65M0 10h47m9 0h64M0 11h47m10 0h63M0 12h46m11 0h63M0 13h46m11 0h63M0 14h46m9 0h1m1 0h63M0 15h46m8 0h1m1 0h64M0 16h45m6 0h1m4 0h64M0 17h43m9 0h2m1 0h65M0 18h43m14 0h63M0 19h43m15 0h62M0 20h44m15 0h61M0 21h44m15 0h61M0 22h43m18 0h59M0 23h43m18 0h59M0 24h43m11 0h1m6 0h59M0 25h42m12 0h1m6 0h59M0 26h42m19 0h59M0 27h41m20 0h59M0 28h41m11 0h1m2 0h1m3 0h61M0 29h40m12 0h1m2 0h65M0 30h40m12 0h1m2 0h65M0 31h39m13 0h1m2 0h65M0 32h39m13 0h2m1 0h65M0 33h39m13 0h68M0 34h26m4 0h2m1 0h2m18 0h67M0 35h25m28 0h67M0 36h25m28 0h67M0 37h25m29 0h66M0 38h25m29 0h66M0 39h25m29 0h66M0 40h25m29 0h66M0 41h25m29 0h66M0 42h25m1 0h4m1 0h1m1 0h2m1 0h1m1 0h4m1 0h1m1 0h1m8 0h66M0 43h25m1 0h4m1 0h1m1 0h1m1 0h2m1 0h4m1 0h1m1 0h2m8 0h65M0 44h25m1 0h4m1 0h1m1 0h1m1 0h1m1 0h1m1 0h3m1 0h1m1 0h3m7 0h65M0 45h25m1 0h4m1 0h1m1 0h1m1 0h1m1 0h1m1 0h3m1 0h1m1 0h3m7 0h65M0 46h25m1 0h4m1 0h1m3 0h1m1 0h1m1 0h3m1 0h1m1 0h4m6 0h65M0 47h25m1 0h4m1 0h1m3 0h1m1 0h1m1 0h3m1 0h1m1 0h4m5 0h66M0 48h25m1 0h4m1 0h1m1 0h1m1 0h1m1 0h2m1 0h2m1 0h1m1 0h3m5 0h67M0 49h25m1 0h4m1 0h1m1 0h1m1 0h1m1 0h2m1 0h2m1 0h1m1 0h3m5 0h67M0 50h25m18 0h1m1 0h2m6 0h67M0 51h25m18 0h1m1 0h2m6 0h67M0 52h25m1 0h4m15 0h1m3 0h1m3 0h67M0 53h25m1 0h4m15 0h1m2 0h2m4 0h66M0 54h25m1 0h3m16 0h1m2 0h3m3 0h66M0 55h25m1 0h3m18 0h4m3 0h66M0 56h25m1 0h2m19 0h5m3 0h65M0 57h25m1 0h2m18 0h7m2 0h65M0 58h25m1 0h2m19 0h6m2 0h65M0 59h25m1 0h2m19 0h7m2 0h64M0 60h25m1 0h2m11 0h3m1 0h1m4 0h6m2 0h4m2 0h58M0 61h25m1 0h3m20 0h5m3 0h2m3 0h58M0 62h25m1 0h3m2 0h1m1 0h2m1 0h3m1 0h2m1 0h1m1 0h1m3 0h6m6 0h59M0 63h25m1 0h3m2 0h1m1 0h2m1 0h3m1 0h2m1 0h1m1 0h10m6 0h59M0 64h25m1 0h3m2 0h1m1 0h2m1 0h3m1 0h2m1 0h1m1 0h10m5 0h60M0 65h25m1 0h3m2 0h1m1 0h2m1 0h3m1 0h2m1 0h1m1 0h11m2 0h62M0 66h25m1 0h3m1 0h5m1 0h6m1 0h77M0 67h120M0 68h120M0 69h120" stroke="#6d6776"/><path d="M49 7h4m-5 1h6m-7 1h3m1 0h4m-8 1h2m2 0h1m1 0h3m-9 1h1m3 0h1m2 0h3m-10 1h1m6 0h2m-2 1h1" stroke="#443b3d"/><path d="M50 9h1m1 2h1m0 1h1m-6 2h1" stroke="#9c938e"/><path d="M49 10h1m2 0h1m-5 1h1m4 0h1m-6 2h1" stroke="#706766"/><path d="M50 10h1m-2 1h1m1 1h2m0 1h1m-3 2h1" stroke="#c8bfb7"/><path d="M50 11h1m-2 1h2m-2 1h4m-4 1h4m-4 1h2" stroke="#f4ebdf"/><path d="M46 12h1m0 1h1m6 1h1" stroke="#3e3638"/><path d="M48 12h1" stroke="#605857"/><path d="M56 12h1m-2 1h1" stroke="#383032"/><path d="M46 13h1m6 2h1" stroke="#2b2527"/><path d="M56 13h1m-11 1h1" stroke="#4c464f"/><path d="M47 14h1m4 2h1" stroke="#5d5762"/><path d="M53 14h1" stroke="#908883"/><path d="M56 14h1" stroke="#5c5560"/><path d="M46 15h1m-2 1h3m-4 1h5m-6 1h6m4 0h3m-13 1h7m2 0h5m-13 1h7m1 0h6m-14 1h7m1 0h7m-15 1h7m2 0h1m1 0h4m-15 1h8m1 0h1m1 0h3m-15 1h9m1 0h1m2 0h2m-15 1h2m1 0h6m4 0h2m-15 1h2m1 0h7m4 0h1m-16 1h2m1 0h8m-12 1h4m1 0h6m-11 1h3m3 0h3m1 0h1m-12 1h4m4 0h1m-9 1h3m-3 1h2m-3 1h3m-6 1h5m-6 1h6m-6 1h5m-5 1h3m-3 1h1" stroke="#f8c1c1"/><path d="M47 15h1m2 3h1" stroke="#dd8585"/><path d="M48 15h1" stroke="#db9a94"/><path d="M52 15h1" stroke="#5d5755"/><path d="M55 15h1m-2 1h2m-2 1h1" stroke="#afa0a0"/><path d="M48 16h1m0 1h1m-1 1h1m1 0h1m-2 1h2m8 3h1m-3 1h3m-3 1h3m-3 1h3m-6 1h1m2 0h3m-5 1h1m-12 1h1m-2 1h1m1 0h1m3 0h1m-4 1h1m1 0h1m1 0h1m1 0h1m-6 1h1m5 0h1m-23 4h2m-3 1h4m-4 1h4m-5 1h1m2 0h2m1 0h2m-3 1h2" stroke="#c24949"/><path d="M49 16h2m-1 1h1m0 3h1m-1 1h1m-1 1h1m0 1h1m-1 1h1m-1 1h1m0 1h1m-1 1h1m-1 1h2m-2 1h2m-1 1h1m-2 1h1m0 1h1" stroke="#372e30"/><path d="M53 16h1" stroke="#4e4952"/><path d="M43 17h1m-1 5h1m-1 1h1m11 1h1m-1 1h1m-14 1h1m-2 1h1m2 0h1m-6 5h1" stroke="#b3949c"/><path d="M51 17h1M34 35h1" stroke="#eba3a3"/><path d="M52 18h1m3 0h1m0 1h1m0 1h1m-5 3h1" stroke="#d5abae"/><path d="M52 22h1m0 3h1" stroke="#c89c9d"/><path d="M54 22h1m-13 3h1m2 0h1m-1 1h1m-6 3h1m-2 2h1m-5 3h1" stroke="#907e89"/><path d="M59 22h1" stroke="#c88d91"/><path d="M54 26h1m-24 9h1" stroke="#82606b"/><path d="M56 26h1m0 1h1" stroke="#cd7e7e"/><path d="M54 27h1" stroke="#605965"/><path d="M55 27h1m-24 7h1" stroke="#985860"/><path d="M58 27h1" stroke="#a13a3a"/><path d="M59 27h1M31 39h3" stroke="#802b2b"/><path d="M60 27h1m-3 1h1" stroke="#785a65"/><path d="M56 28h1" stroke="#ad5154"/><path d="M57 28h1" stroke="#774951"/><path d="M45 29h1m-2 1h3m3 0h1m-7 1h4m1 0h3m-9 1h9m-10 1h10m-10 1h10m-11 1h12m-11 1h11m-11 1h11m-11 1h12m-12 1h12m-13 1h7m-3 1h1" stroke="#49464e"/><path d="M43 31h1" stroke="#75656b"/><path d="M42 32h1m-2 2h1" stroke="#a18488"/><path d="M26 34h4m-5 1h6m-6 1h6m-6 1h6m7 0h4m-17 1h4m-4 1h4m-4 1h4m-4 1h4m-4 9h5m0 14h1m1 0h1m6 0h1m4 0h1m-20 1h1m3 0h2m1 0h1m2 0h1m3 0h1m2 0h1m1 0h1m-20 1h1m3 0h1m5 0h1m6 0h1" stroke="#cfb192"/><path d="M52 34h1" stroke="#3c3438"/><path d="M40 36h1" stroke="#9e8c84"/><path d="M41 36h1" stroke="#8c7c70"/><path d="M53 37h1" stroke="#403a3f"/><path d="M29 38h1m8 0h4m-13 1h1m7 0h4m-12 1h3m4 0h5m-12 1h6m3 0h5m-18 1h1m4 0h1m1 0h1m9 0h1m-18 1h1m4 0h1m1 0h1m9 0h1m1 0h1m-20 1h1m4 0h1m1 0h1m9 0h1m1 0h1m-20 1h1m4 0h1m1 0h1m9 0h1m1 0h1m-20 1h1m4 0h1m1 0h1m9 0h1m1 0h1m-20 1h1m4 0h1m1 0h1m9 0h1m1 0h1m-20 1h1m4 0h1m11 0h1m1 0h1m-20 1h1m4 0h1m11 0h1m1 0h1m-15 1h1m11 0h1m1 0h1m-20 1h5m14 0h1m-20 1h1m18 0h1m-20 1h1m18 0h1m-20 1h1m-1 1h1m-1 1h1m-1 1h1m-1 1h1m-1 1h1m-1 1h1m16 0h1m1 0h1m-20 1h1m10 0h9m-20 1h1m3 0h2m1 0h1m2 0h1m3 0h1m2 0h1m1 0h1m-20 1h1m3 0h2m1 0h1m2 0h1m3 0h1m2 0h1m1 0h1m-20 1h1m3 0h1m5 0h1m6 0h1" stroke="#dad1e1"/><path d="M31 38h2m1 1h1m0 1h1" stroke="#933"/><path d="M30 39h1m2 1h2" stroke="#ad7e86"/><path d="M41 39h1" stroke="#888291"/><path d="M32 40h1" stroke="#c4a8b4"/><path d="M48 40h2m-4 1h2m-2 1h1" stroke="#3e373c"/><path d="M50 40h2" stroke="#433f45"/><path d="M52 40h2m-6 1h6m-7 1h7m-7 1h8m-7 1h7m-7 1h7m-6 1h5m-5 1h4m-4 1h3m-4 1h4m-5 1h6m-6 1h6m-6 1h2m1 0h3m-7 1h2m2 0h3m-7 1h2m3 0h3m-9 1h2m5 0h2m-10 1h2m6 0h2m-10 1h2m7 0h2m-2 1h2m-1 1h1m-1 1h2m-2 1h3m-2 1h2m-2 1h2" stroke="#322829"/><path d="M35 41h3m-3 1h1m1 0h1m-4 1h1m2 0h1m-4 1h1m1 0h1m1 0h1m-5 1h1m1 0h1m1 0h1m-6 1h2m1 0h1m1 0h1m-6 1h2m1 0h1m1 0h1m-7 1h1m1 0h1m1 0h1m2 0h1m-8 1h1m1 0h1m1 0h1m2 0h1m-8 1h1m3 0h1m-1 1h1m-1 1h1m-6 1h1m4 0h1m-6 1h1m4 0h1m-6 1h1m4 0h1m-6 1h1m4 0h1m-6 1h1m4 0h1m-6 1h1m-1 1h1m-1 1h1" stroke="#c9c3c9"/><path d="M43 41h1" stroke="#6d6973"/><path d="M44 41h1" stroke="#4a474f"/><path d="M44 42h1" stroke="#928c98"/><path d="M54 46h1m-2 1h1m-2 1h1m2 11h1" stroke="#41383c"/><path d="M48 48h1m3 1h1m-7 3h1m6 1h1m-3 2h1m-6 1h1m7 0h1" stroke="#504850"/><path d="M31 50h1m-2 1h3m-3 1h3m-1 2h1m-1 1h1m-1 1h1m-1 1h1" stroke="#a8caa4"/><path d="M33 50h3m1 0h3m1 0h1m-2 1h1m1 0h1m-3 1h2m1 0h1m-3 1h1m1 0h1m-15 1h1m11 0h1m2 0h1m-4 1h1m2 0h1m-17 1h1m12 0h1m-14 1h1m12 0h1m-14 1h1m10 0h3m-14 1h1m6 0h4m3 0h2m-16 1h1m3 0h3m-6 1h3" stroke="#8086a9"/><path d="M40 50h1m-8 1h3m1 0h3m1 0h1m-9 1h3m1 0h3m2 0h1m-13 1h1m3 0h2m1 0h4m-11 1h1m3 0h2m1 0h4m1 0h2m-15 1h2m3 0h2m1 0h4m1 0h2m-15 1h2m3 0h2m1 0h4m1 0h2m-15 1h2m3 0h2m1 0h4m1 0h2m-15 1h2m1 0h1m1 0h1m-6 1h2m1 0h3m4 0h3m-13 1h2m4 0h4m-7 1h4" stroke="#5f628b"/><path d="M32 53h1" stroke="#60638b"/><path d="M33 53h1" stroke="#60638a"/><path d="M42 53h1" stroke="#7f85a9"/><path d="M33 54h1m-1 1h1m-1 1h1m-1 1h1m-1 1h1" stroke="#ebcd56"/><path d="M35 58h1m1 0h2m3 0h2" stroke="#5f638b"/><path d="M36 58h1" stroke="#c8c3c9"/><path d="M44 58h3m-3 1h3m-2 1h2m14 0h1m-16 1h2m11 0h3m-15 1h1m9 0h4m-4 1h3m-5 1h4m-3 1h2" stroke="#64423d"/><path d="M47 60h1m12 0h1m-13 2h1m11 1h1m-2 1h1" stroke="#69555a"/><path d="M45 61h1" stroke="#9f8a8f"/><path d="M48 61h1m-3 1h1" stroke="#6b5e68"/><rect width="61.768" height="70.005" x="118.232" y="-.496" ry="0" fill="#6d6776"/></svg>