<svg width="120" height="70" shape-rendering="crispEdges" viewBox="0 0 31.75 18.521" xmlns="http://www.w3.org/2000/svg"><path fill="#6d6776" d="M0 0h31.75v18.521H0z"/><g stroke-width="0"><g fill="#322829"><path d="M13.758 11.377h.265v.265h-.265z"/><path d="M13.494 11.377h.265v.265h-.265zM13.229 11.377h.265v.265h-.265z"/><path d="M12.965 11.377h.265v.265h-.265zM12.7 11.377h.265v.265H12.7z"/><path d="M12.435 11.377h.265v.265h-.265zM12.435 11.112h.265v.265h-.265z"/><path d="M12.7 11.112h.265v.265H12.7zM12.965 11.112h.265v.265h-.265z"/><path d="M13.229 11.112h.265v.265h-.265zM13.494 11.112h.265v.265h-.265z"/><path d="M13.758 11.112h.265v.265h-.265zM14.023 11.112h.265v.265h-.265zM14.023 11.377h.265v.265h-.265z"/><path d="M14.023 11.642h.265v.265h-.265zM13.758 11.642h.265v.265h-.265z"/><path d="M14.023 11.906h.265v.265h-.265zM13.758 11.906h.265v.265h-.265zM13.229 11.642h.265v.265h-.265z"/><path d="M12.965 11.906h.265v.265h-.265z"/><path d="M12.965 11.642h.265v.265h-.265zM12.7 11.642h.265v.265H12.7z"/><path d="M12.7 11.906h.265v.265H12.7zM13.494 11.642h.265v.265h-.265zM14.288 11.377h.265v.265h-.265z"/><path d="M14.288 11.642h.265v.265h-.265z"/><path d="M14.288 11.906h.265v.265h-.265zM14.023 12.171h.265v.265h-.265zM13.758 12.171h.265v.265h-.265z"/><path d="M13.494 12.171h.265v.265h-.265zM12.965 12.171h.265v.265h-.265z"/><path d="M12.965 12.435h.265v.265h-.265z"/><path d="M13.229 12.435h.265v.265h-.265zM13.494 12.435h.265v.265h-.265z"/><path d="M13.758 12.435h.265v.265h-.265z"/><path d="M13.494 12.7h.265v.265h-.265zM13.229 12.7h.265v.265h-.265z"/><path d="M12.965 12.7h.265v.265h-.265zM12.7 12.965h.265v.265H12.7z"/><path d="M12.435 13.229h.265v.265h-.265zM12.435 13.494h.265v.265h-.265z"/><path d="M12.435 13.758h.265v.265h-.265zM12.435 14.023h.265v.265h-.265z"/><path d="M12.171 14.023h.265v.265h-.265zM12.171 14.288h.265v.265h-.265z"/><path d="M12.171 14.552h.265v.265h-.265z"/><path d="M11.906 14.552h.265v.265h-.265zM11.906 14.817h.265v.265h-.265z"/><path d="M11.906 15.081h.265v.265h-.265zM12.435 14.288h.265v.265h-.265zM12.7 13.758h.265v.265H12.7z"/><path d="M12.7 13.494h.265v.265H12.7zM12.7 13.229h.265v.265H12.7zM12.965 13.494h.265v.265h-.265z"/><path d="M13.229 13.758h.265v.265h-.265zM13.494 14.023h.265v.265h-.265zM13.229 14.023h.265v.265h-.265zM13.494 14.288h.265v.265h-.265z"/><path d="M13.758 14.552h.265v.265h-.265zM13.758 14.817h.265v.265h-.265zM14.023 15.081h.265v.265h-.265zM14.023 15.346h.265v.265h-.265zM14.288 15.346h.265v.265h-.265zM14.288 15.081h.265v.265h-.265z"/><path d="M14.023 14.817h.265v.265h-.265zM14.023 14.552h.265v.265h-.265zM13.758 14.288h.265v.265h-.265z"/><path d="M14.023 14.288h.265v.265h-.265zM13.758 14.023h.265v.265h-.265zM13.758 13.758h.265v.265h-.265z"/><path d="M13.758 13.494h.265v.265h-.265zM13.494 13.229h.265v.265h-.265z"/><path d="M13.758 13.229h.265v.265h-.265z"/><path d="M13.494 12.965h.265v.265h-.265zM13.494 13.494h.265v.265h-.265z"/><path d="M13.494 13.758h.265v.265h-.265zM13.229 13.494h.265v.265h-.265zM13.229 13.229h.265v.265h-.265z"/><path d="M13.229 12.965h.265v.265h-.265z"/><path d="M12.965 12.965h.265v.265h-.265z"/><path d="M12.965 13.229h.265v.265h-.265zM14.288 15.61h.265v.265h-.265zM14.552 15.875h.265v.265h-.265z"/><path d="M14.288 15.875h.265v.265h-.265zM14.552 16.14h.265v.265h-.265zM14.817 16.14h.265v.265h-.265z"/><path d="M14.552 16.404h.265v.265h-.265z"/><path d="M14.288 16.14h.265v.265h-.265zM14.552 16.669h.265v.265h-.265zM14.817 16.669h.265v.265h-.265zM14.817 16.404h.265v.265h-.265z"/></g><g fill="#64423d"><path d="M15.346 16.669h.265v.265h-.265zM15.081 16.404h.265v.265h-.265zM15.346 16.404h.265v.265h-.265z"/><path d="M15.61 16.404h.265v.265h-.265z"/><path d="M15.61 16.14h.265v.265h-.265zM15.875 16.14h.265v.265h-.265zM16.14 16.14h.265v.265h-.265zM16.14 15.875h.265v.265h-.265z"/><path d="M15.875 16.404h.265v.265h-.265zM15.61 16.669h.265v.265h-.265z"/><path d="M15.346 16.933h.265v.265h-.265zM15.081 17.198h.265v.265h-.265zM15.081 16.933h.265v.265h-.265z"/><path d="M14.817 16.933h.265v.265h-.265zM14.552 16.933h.265v.265h-.265zM14.817 17.198h.265v.265h-.265zM12.171 15.346h.265v.265h-.265z"/><path d="M12.171 15.61h.265v.265h-.265zM12.171 15.875h.265v.265h-.265zM12.435 16.404h.265v.265h-.265z"/><path d="M12.171 16.14h.265v.265h-.265zM11.906 15.875h.265v.265h-.265zM11.906 15.61h.265v.265h-.265z"/></g><path fill="#322829" d="M11.642 14.817h.265v.265h-.265z"/><path fill="#322829" d="M11.642 15.081h.265v.265h-.265z"/><path fill="#64423d" d="M11.642 15.346h.265v.265h-.265z"/><path fill="#64423d" d="M11.642 15.61h.265v.265h-.265z"/><g fill="#322829"><path d="M12.7 10.848h.265v.265H12.7zM12.965 10.848h.265v.265h-.265z"/><path d="M13.229 10.848h.265v.265h-.265zM13.494 10.848h.265v.265h-.265z"/><path d="M13.758 10.848h.265v.265h-.265zM14.023 10.848h.265v.265h-.265zM13.758 10.583h.265v.265h-.265zM14.023 10.583h.265v.265h-.265z"/></g><g fill="#dad1e1"><path d="M10.319 10.583h.265v.265h-.265z"/><path d="M10.583 10.583h.265v.265h-.265zM10.583 10.848h.265v.265h-.265zM10.848 10.848h.265v.265h-.265z"/><path d="M11.112 10.848h.265v.265h-.265z"/><path d="M11.112 11.112h.265v.265h-.265zM11.112 11.377h.265v.265h-.265z"/><path d="M11.112 11.642h.265v.265h-.265z"/><path d="M11.112 11.906h.265v.265h-.265z"/><path d="M11.112 12.171h.265v.265h-.265z"/><path d="M11.112 12.435h.265v.265h-.265z"/><path d="M11.112 12.7h.265v.265h-.265zM11.112 12.965h.265v.265h-.265z"/><path d="M11.112 13.229h.265v.265h-.265zM11.642 11.377h.265v.265h-.265zM10.319 10.848h.265v.265h-.265zM10.054 10.848h.265v.265h-.265zM10.054 10.583h.265v.265h-.265z"/><path d="M10.054 10.319h.265v.265h-.265zM10.583 10.319h.265v.265h-.265z"/><path d="M10.319 10.319h.265v.265h-.265zM10.848 10.054h.265v.265h-.265zM10.583 10.054h.265v.265h-.265z"/><path d="M10.319 10.054h.265v.265h-.265zM10.054 10.054h.265v.265h-.265zM9.79 10.319h.265v.265H9.79z"/><path d="M9.79 10.583h.265v.265H9.79z"/><path d="M9.525 10.583h.265v.265h-.265zM8.731 10.848h.265v.265h-.265z"/><path d="M8.467 10.848h.265v.265h-.265zM8.202 10.848h.265v.265h-.265zM8.202 10.583h.265v.265h-.265z"/><path d="M7.938 10.583h.265v.265h-.265zM7.938 10.848h.265v.265h-.265zM7.673 10.319h.265v.265h-.265zM7.673 10.054h.265v.265h-.265z"/><path d="M7.673 10.583h.265v.265h-.265zM7.673 10.848h.265v.265h-.265zM7.938 11.112h.265v.265h-.265zM7.938 11.377h.265v.265h-.265z"/><path d="M7.938 11.642h.265v.265h-.265z"/><path d="M7.938 11.906h.265v.265h-.265z"/><path d="M7.938 12.171h.265v.265h-.265z"/><path d="M7.938 12.435h.265v.265h-.265z"/><path d="M7.938 12.7h.265v.265h-.265z"/><path d="M7.938 12.7h.265v.265h-.265zM7.938 12.965h.265v.265h-.265z"/><path d="M7.938 13.229h.265v.265h-.265zM7.938 16.404h.265v.265h-.265zM7.938 16.669h.265v.265h-.265zM6.615 16.669h.265v.265h-.265zM6.615 16.404h.265v.265h-.265z"/><path d="M6.615 16.14h.265v.265h-.265zM6.615 15.875h.265v.265h-.265zM6.615 15.61h.265v.265h-.265z"/><path d="M6.615 15.346h.265v.265h-.265zM6.615 15.081h.265v.265h-.265z"/><path d="M6.615 14.817h.265v.265h-.265zM6.615 14.552h.265v.265h-.265z"/><path d="M6.615 14.287h.265v.265h-.265z"/><path d="M6.615 14.023h.265v.265h-.265zM6.615 13.758h.265v.265h-.265z"/><path d="M6.615 13.494h.265v.265h-.265z"/><path d="M6.879 13.494h.265v.265h-.265zM7.144 13.494h.265v.265h-.265z"/><path d="M7.408 13.494h.265v.265h-.265zM7.673 13.494h.265v.265h-.265zM6.615 12.965h.265v.265h-.265zM6.615 12.7h.265v.265h-.265zM6.615 12.171h.265v.265h-.265z"/><path d="M6.615 11.906h.265v.265h-.265zM6.615 12.435h.265v.265h-.265z"/><path d="M6.615 11.642h.265v.265h-.265z"/><path d="M6.615 11.377h.265v.265h-.265zM6.615 11.112h.265v.265h-.265z"/></g><g fill="#cfb192"><path d="M6.879 9.79h.265v.265h-.265z"/><path d="M6.879 9.525h.265v.265h-.265z"/><path d="M6.615 9.525h.265v.265h-.265z"/><path d="M6.615 9.79h.265v.265h-.265z"/><path d="M6.615 10.054h.265v.265h-.265zM6.615 10.319h.265v.265h-.265z"/><path d="M6.615 10.583h.265v.265h-.265zM6.615 10.848h.265v.265h-.265z"/><path d="M6.879 10.848h.265v.265h-.265zM7.144 10.848h.265v.265h-.265z"/><path d="M7.408 10.848h.265v.265h-.265zM7.408 10.583h.265v.265h-.265z"/><path d="M7.408 10.319h.265v.265h-.265zM7.408 10.054h.265v.265h-.265z"/><path d="M7.408 9.79h.265v.265h-.265zM7.673 9.79h.265v.265h-.265zM7.938 9.79h.265v.265h-.265z"/><path d="M7.938 9.525h.265v.265h-.265zM7.673 9.26h.265v.265h-.265zM7.673 9.525h.265v.265h-.265zM7.408 9.525h.265v.265h-.265z"/><path d="M7.144 9.525h.265v.265h-.265z"/><path d="M7.144 9.79h.265v.265h-.265z"/><path d="M7.144 10.054h.265v.265h-.265zM7.144 10.319h.265v.265h-.265z"/><path d="M7.144 10.583h.265v.265h-.265zM6.879 10.583h.265v.265h-.265z"/><path d="M6.879 10.319h.265v.265h-.265zM6.879 10.054h.265v.265h-.265zM6.615 9.26h.265v.265h-.265z"/><path d="M6.879 9.26h.265v.265h-.265zM7.144 9.26h.265v.265h-.265z"/><path d="M7.408 9.26h.265v.265h-.265z"/><path d="M7.408 8.996h.265v.265h-.265z"/><path d="M7.144 8.996h.265v.265h-.265zM6.879 8.996h.265v.265h-.265zM7.673 8.996h.265v.265h-.265zM7.938 9.26h.265v.265h-.265zM6.615 13.229h.265v.265h-.265z"/><path d="M6.879 13.229h.265v.265h-.265zM7.144 13.229h.265v.265h-.265z"/><path d="M7.408 13.229h.265v.265h-.265zM7.673 13.229h.265v.265h-.265z"/></g><g fill="#dad1e1"><path d="M8.467 11.112h.265v.265h-.265zM8.467 11.377h.265v.265h-.265z"/><path d="M8.467 11.642h.265v.265h-.265zM8.467 12.171h.265v.265h-.265z"/><path d="M8.467 11.906h.265v.265h-.265zM8.467 12.435h.265v.265h-.265z"/></g><g fill="#cac4ca" fill-opacity=".988"><path d="M10.054 12.171h.265v.265h-.265z"/><path d="M10.054 11.906h.265v.265h-.265z"/><path d="M10.054 11.642h.265v.265h-.265z"/><path d="M9.79 11.377h.265v.265H9.79zM9.79 11.112h.265v.265H9.79z"/><path d="M9.79 10.848h.265v.265H9.79z"/><path d="M9.525 10.848h.265v.265h-.265zM9.26 10.848h.265v.265H9.26z"/><path d="M9.26 11.112h.265v.265H9.26zM8.996 11.377h.265v.265h-.265z"/><path d="M8.996 11.642h.265v.265h-.265z"/><path d="M8.996 11.906h.265v.265h-.265z"/><path d="M8.996 12.171h.265v.265h-.265z"/><path d="M8.996 12.435h.265v.265h-.265z"/><path d="M8.996 12.7h.265v.265h-.265zM8.996 12.965h.265v.265h-.265zM8.731 12.171h.265v.265h-.265z"/><path d="M8.731 12.435h.265v.265h-.265z"/><path d="M8.467 12.7h.265v.265h-.265zM8.467 12.965h.265v.265h-.265z"/><path d="M8.467 13.229h.265v.265h-.265zM9.525 11.642h.265v.265h-.265z"/><path d="M9.525 11.906h.265v.265h-.265z"/><path d="M9.525 12.171h.265v.265h-.265z"/><path d="M9.525 12.435h.265v.265h-.265z"/><path d="M9.525 12.7h.265v.265h-.265zM9.525 12.965h.265v.265h-.265z"/><path d="M9.525 13.229h.265v.265h-.265zM9.525 14.023h.265v.265h-.265zM9.525 13.758h.265v.265h-.265z"/><path d="M9.525 13.494h.265v.265h-.265zM9.525 14.287h.265v.265h-.265z"/><path d="M9.525 14.552h.265v.265h-.265zM9.525 14.817h.265v.265h-.265z"/><path d="M9.525 15.081h.265v.265h-.265zM9.525 15.346h.265v.265h-.265zM8.202 14.023h.265v.265h-.265z"/><path d="M8.202 14.287h.265v.265h-.265z"/><path d="M8.202 14.552h.265v.265h-.265zM8.202 14.817h.265v.265h-.265z"/><path d="M8.202 15.081h.265v.265h-.265zM8.202 15.346h.265v.265h-.265z"/><path d="M8.202 15.61h.265v.265h-.265zM8.202 15.875h.265v.265h-.265zM10.054 12.435h.265v.265h-.265zM10.319 12.7h.265v.265h-.265zM10.319 12.965h.265v.265h-.265z"/></g><g fill="#5f628b"><path d="M10.054 14.023h.265v.265h-.265zM10.054 13.758h.265v.265h-.265z"/><path d="M10.054 13.494h.265v.265h-.265zM10.054 14.287h.265v.265h-.265z"/><path d="M10.054 14.552h.265v.265h-.265zM10.054 14.817h.265v.265h-.265z"/><path d="M10.054 15.081h.265v.265h-.265zM10.054 15.346h.265v.265h-.265zM10.054 15.875h.265v.265h-.265z"/><path d="M9.79 15.875h.265v.265H9.79z"/><path d="M9.525 15.875h.265v.265h-.265zM9.26 16.14h.265v.265H9.26z"/><path d="M8.996 16.14h.265v.265h-.265zM8.731 16.14h.265v.265h-.265z"/><path d="M8.467 16.14h.265v.265h-.265zM7.938 15.875h.265v.265h-.265zM7.673 15.875h.265v.265h-.265zM7.673 15.61h.265v.265h-.265zM7.938 15.61h.265v.265h-.265z"/><path d="M7.938 15.346h.265v.265h-.265zM7.938 15.081h.265v.265h-.265z"/><path d="M7.938 14.817h.265v.265h-.265zM7.938 14.552h.265v.265h-.265z"/><path d="M7.938 14.287h.265v.265h-.265z"/><path d="M7.938 14.023h.265v.265h-.265zM7.673 14.552h.265v.265h-.265zM7.673 14.817h.265v.265h-.265z"/><path d="M7.673 15.081h.265v.265h-.265zM7.673 15.346h.265v.265h-.265zM9.26 14.023h.265v.265H9.26z"/><path d="M9.26 14.287h.265v.265H9.26z"/><path d="M9.26 14.552h.265v.265H9.26zM9.26 14.817h.265v.265H9.26z"/><path d="M9.26 15.081h.265v.265H9.26zM9.26 15.346h.265v.265H9.26z"/><path d="M8.996 15.61h.265v.265h-.265zM8.731 15.61h.265v.265h-.265z"/><path d="M8.467 15.61h.265v.265h-.265zM8.996 15.346h.265v.265h-.265zM8.996 15.081h.265v.265h-.265zM8.996 14.552h.265v.265h-.265z"/><path d="M8.996 14.287h.265v.265h-.265zM8.996 14.817h.265v.265h-.265z"/><path d="M8.996 14.023h.265v.265h-.265zM8.731 14.023h.265v.265h-.265z"/><path d="M8.467 14.023h.265v.265h-.265zM8.731 13.758h.265v.265h-.265zM8.996 13.758h.265v.265h-.265z"/><path d="M9.26 13.758h.265v.265H9.26z"/><path d="M9.26 13.494h.265v.265H9.26z"/><path d="M8.996 13.494h.265v.265h-.265zM8.731 13.494h.265v.265h-.265zM10.583 13.229h.265v.265h-.265zM10.848 13.494h.265v.265h-.265z"/><path d="M11.112 13.758h.265v.265h-.265zM10.319 13.494h.265v.265h-.265z"/><path d="M10.319 13.758h.265v.265h-.265zM10.319 14.023h.265v.265h-.265z"/><path d="M10.583 14.023h.265v.265h-.265z"/><path d="M10.583 14.287h.265v.265h-.265z"/><path d="M10.583 14.552h.265v.265h-.265zM10.583 14.817h.265v.265h-.265z"/><path d="M10.583 15.081h.265v.265h-.265z"/><path d="M10.319 15.081h.265v.265h-.265z"/><path d="M10.319 14.817h.265v.265h-.265zM10.319 14.287h.265v.265h-.265z"/><path d="M10.319 14.552h.265v.265h-.265zM9.79 13.494h.265v.265H9.79z"/><path d="M9.79 13.758h.265v.265H9.79zM9.79 14.023h.265v.265H9.79z"/><path d="M9.79 14.287h.265v.265H9.79z"/><path d="M9.79 14.552h.265v.265H9.79zM9.79 14.817h.265v.265H9.79z"/><path d="M9.79 15.081h.265v.265H9.79zM9.79 15.346h.265v.265H9.79zM10.319 15.61h.265v.265h-.265z"/><path d="M10.583 15.61h.265v.265h-.265zM10.848 15.61h.265v.265h-.265zM11.377 15.346h.265v.265h-.265z"/><path d="M11.112 15.346h.265v.265h-.265zM11.112 15.081h.265v.265h-.265zM11.377 15.081h.265v.265h-.265z"/><path d="M11.377 14.817h.265v.265h-.265zM11.112 14.817h.265v.265h-.265zM11.112 14.552h.265v.265h-.265zM11.377 14.552h.265v.265h-.265z"/><path d="M11.377 14.287h.265v.265h-.265z"/></g><g fill="#8086a9"><path d="M11.377 14.023h.265v.265h-.265zM11.112 14.023h.265v.265h-.265zM10.848 13.758h.265v.265h-.265zM10.583 13.758h.265v.265h-.265z"/><path d="M10.583 13.494h.265v.265h-.265zM10.319 13.229h.265v.265h-.265zM10.054 13.229h.265v.265h-.265z"/><path d="M9.79 13.229h.265v.265H9.79zM10.848 13.229h.265v.265h-.265zM11.112 13.494h.265v.265h-.265zM11.377 13.758h.265v.265h-.265zM11.642 14.288h.265v.265h-.265z"/><path d="M11.642 14.552h.265v.265h-.265zM11.377 15.61h.265v.265h-.265zM11.112 15.61h.265v.265h-.265zM8.202 16.14h.265v.265h-.265z"/><path d="M7.938 16.14h.265v.265h-.265zM7.673 16.14h.265v.265h-.265zM7.408 15.875h.265v.265h-.265zM7.408 15.61h.265v.265h-.265z"/><path d="M7.408 15.346h.265v.265h-.265zM7.408 15.081h.265v.265h-.265z"/><path d="M7.408 14.817h.265v.265h-.265zM7.673 14.288h.265v.265h-.265zM8.467 15.875h.265v.265h-.265z"/><path d="M8.731 15.875h.265v.265h-.265zM8.996 15.875h.265v.265h-.265zM9.26 15.61h.265v.265H9.26zM9.525 15.61h.265v.265h-.265z"/><path d="M9.79 15.61h.265v.265H9.79z"/><path d="M10.054 15.61h.265v.265h-.265zM10.319 15.346h.265v.265h-.265z"/><path d="M10.583 15.346h.265v.265h-.265zM10.848 15.346h.265v.265h-.265zM10.848 15.081h.265v.265h-.265z"/><path d="M10.848 14.817h.265v.265h-.265zM10.848 14.552h.265v.265h-.265z"/><path d="M10.848 14.288h.265v.265h-.265zM10.848 14.023h.265v.265h-.265zM9.26 13.229h.265v.265H9.26z"/><path d="M8.996 13.229h.265v.265h-.265zM8.731 13.229h.265v.265h-.265z"/></g><g fill="#5f628b"><path d="M9.26 15.875h.265v.265H9.26zM11.112 14.287h.265v.265h-.265zM8.467 15.346h.265v.265h-.265z"/></g><g fill="#ebcd56"><path d="M8.731 15.081h.265v.265h-.265z"/><path d="M8.731 14.817h.265v.265h-.265zM8.731 14.552h.265v.265h-.265z"/><path d="M8.731 14.287h.265v.265h-.265zM8.731 15.346h.265v.265h-.265z"/></g><g fill="#a8caa4"><path d="M8.467 14.552h.265v.265h-.265z"/><path d="M8.467 14.287h.265v.265h-.265zM8.467 14.817h.265v.265h-.265z"/><path d="M8.467 15.081h.265v.265h-.265zM8.467 13.758h.265v.265h-.265zM8.202 13.758h.265v.265h-.265z"/><path d="M7.938 13.758h.265v.265h-.265z"/><path d="M7.938 13.494h.265v.265h-.265z"/><path d="M8.202 13.494h.265v.265h-.265zM8.467 13.494h.265v.265h-.265zM8.202 13.229h.265v.265h-.265z"/></g><g fill="#dad1e1"><path d="M7.673 16.404h.265v.265h-.265zM7.673 16.669h.265v.265h-.265z"/><path d="M7.673 16.933h.265v.265h-.265zM8.467 16.404h.265v.265h-.265zM8.467 16.669h.265v.265h-.265zM9.26 16.404h.265v.265H9.26zM9.26 16.669h.265v.265H9.26z"/><path d="M9.26 16.933h.265v.265H9.26zM10.319 16.404h.265v.265h-.265zM10.319 16.669h.265v.265h-.265zM11.642 16.404h.265v.265h-.265zM11.642 16.669h.265v.265h-.265zM11.112 16.404h.265v.265h-.265zM11.112 16.669h.265v.265h-.265z"/><path d="M11.112 16.933h.265v.265h-.265z"/></g><g fill="#cfb192"><path d="M11.642 17.198h.265v.265h-.265zM11.642 16.933h.265v.265h-.265zM11.112 17.198h.265v.265h-.265z"/><path d="M11.112 17.462h.265v.265h-.265zM10.319 16.933h.265v.265h-.265zM10.319 17.198h.265v.265h-.265zM8.467 16.933h.265v.265h-.265zM8.467 17.198h.265v.265h-.265zM7.938 16.933h.265v.265h-.265zM7.938 17.198h.265v.265h-.265zM7.673 17.198h.265v.265h-.265z"/><path d="M7.673 17.462h.265v.265h-.265zM6.615 17.198h.265v.265h-.265z"/><path d="M6.615 17.462h.265v.265h-.265z"/></g><path fill="#dad1e1" d="M6.615 16.933h.265v.265h-.265z"/><path fill="#cfb192" d="M9.26 17.198h.265v.265H9.26z"/><path fill="#cfb192" d="M9.26 17.462h.265v.265H9.26z"/><g fill="#dad1e1"><path d="M11.642 16.14h.265v.265h-.265z"/><path d="M11.377 16.14h.265v.265h-.265zM10.848 16.14h.265v.265h-.265z"/><path d="M11.112 16.14h.265v.265h-.265zM10.583 16.14h.265v.265h-.265z"/><path d="M10.319 16.14h.265v.265h-.265zM10.054 16.14h.265v.265h-.265z"/><path d="M9.79 16.14h.265v.265H9.79z"/><path d="M9.525 16.14h.265v.265h-.265zM11.112 15.875h.265v.265h-.265z"/></g><g fill="#cfb192"><path d="M10.054 9.79h.265v.265h-.265zM10.319 9.79h.265v.265h-.265z"/><path d="M10.583 9.79h.265v.265h-.265zM10.848 9.79h.265v.265h-.265z"/></g><g fill="#f8c1c1"><path d="M9.79 9.26h.265v.265H9.79zM9.26 9.525h.265v.265H9.26z"/><path d="M9.26 9.79h.265v.265H9.26zM9.525 9.26h.265v.265h-.265zM9.525 9.79h.265v.265h-.265z"/><path d="M9.26 10.054h.265v.265H9.26zM9.79 9.79h.265v.265H9.79z"/><path d="M9.79 9.525h.265v.265H9.79z"/><path d="M9.525 9.525h.265v.265h-.265zM10.054 9.525h.265v.265h-.265zM10.319 9.525h.265v.265h-.265zM10.583 9.26h.265v.265h-.265zM10.054 8.996h.265v.265h-.265z"/><path d="M9.79 8.996h.265v.265H9.79z"/><path d="M9.525 8.996h.265v.265h-.265zM10.319 8.731h.265v.265h-.265z"/><path d="M10.583 8.467h.265v.265h-.265zM10.583 8.202h.265v.265h-.265z"/><path d="M10.583 7.938h.265v.265h-.265zM10.848 7.673h.265v.265h-.265zM10.583 8.731h.265v.265h-.265zM10.583 8.996h.265v.265h-.265zM10.848 8.731h.265v.265h-.265z"/><path d="M10.848 8.467h.265v.265h-.265zM10.848 8.202h.265v.265h-.265z"/><path d="M11.112 8.202h.265v.265h-.265zM11.112 7.673h.265v.265h-.265zM10.848 7.408h.265v.265h-.265z"/><path d="M11.112 7.408h.265v.265h-.265z"/><path d="M11.112 7.144h.265v.265h-.265zM11.377 7.144h.265v.265h-.265z"/><path d="M11.377 7.408h.265v.265h-.265zM11.377 7.673h.265v.265h-.265zM11.377 7.938h.265v.265h-.265z"/><path d="M11.642 7.408h.265v.265h-.265z"/><path d="M11.906 7.144h.265v.265h-.265z"/><path d="M12.171 7.144h.265v.265h-.265z"/><path d="M12.171 7.408h.265v.265h-.265zM12.435 7.673h.265v.265h-.265z"/><path d="M12.435 7.408h.265v.265h-.265z"/><path d="M12.435 7.144h.265v.265h-.265zM11.642 6.879h.265v.265h-.265z"/><path d="M11.377 6.879h.265v.265h-.265z"/><path d="M11.377 6.615h.265v.265h-.265zM11.642 6.35h.265v.265h-.265zM11.642 6.085h.265v.265h-.265z"/><path d="M11.377 6.35h.265v.265h-.265zM11.642 5.821h.265v.265h-.265zM11.642 5.556h.265v.265h-.265z"/><path d="M11.642 5.292h.265v.265h-.265zM11.642 5.027h.265v.265h-.265z"/><path d="M11.377 5.027h.265v.265h-.265z"/><path d="M11.377 4.763h.265v.265h-.265z"/><path d="M11.642 4.763h.265v.265h-.265zM11.642 4.498h.265v.265h-.265z"/><path d="M11.906 4.498h.265v.265h-.265zM11.906 4.233h.265v.265h-.265z"/><path d="M12.171 4.233h.265v.265h-.265z"/><path d="M12.171 3.969h.265v.265h-.265z"/><path d="M12.435 4.233h.265v.265h-.265zM12.435 4.498h.265v.265h-.265zM12.435 4.763h.265v.265h-.265z"/><path d="M12.7 4.763h.265v.265H12.7zM12.7 4.498h.265v.265H12.7zM12.171 4.498h.265v.265h-.265zM12.171 4.763h.265v.265h-.265z"/><path d="M11.906 4.763h.265v.265h-.265z"/><path d="M11.906 5.027h.265v.265h-.265z"/><path d="M12.171 5.027h.265v.265h-.265z"/><path d="M12.435 5.027h.265v.265h-.265z"/><path d="M12.7 5.027h.265v.265H12.7zM12.965 5.027h.265v.265h-.265zM13.229 5.292h.265v.265h-.265z"/><path d="M13.229 5.556h.265v.265h-.265zM13.229 5.821h.265v.265h-.265z"/><path d="M13.229 6.085h.265v.265h-.265zM13.494 6.085h.265v.265h-.265zM13.494 6.35h.265v.265h-.265zM13.229 6.35h.265v.265h-.265zM13.494 6.615h.265v.265h-.265zM13.229 6.615h.265v.265h-.265z"/><path d="M13.758 6.879h.265v.265h-.265z"/><path d="M13.494 6.879h.265v.265h-.265zM13.229 6.879h.265v.265h-.265zM13.758 7.144h.265v.265h-.265z"/><path d="M13.494 7.144h.265v.265h-.265zM13.229 7.144h.265v.265h-.265z"/><path d="M12.965 7.408h.265v.265h-.265zM12.965 7.673h.265v.265h-.265zM12.7 7.673h.265v.265H12.7zM12.7 7.938h.265v.265H12.7z"/><path d="M12.965 7.144h.265v.265h-.265zM12.7 7.144h.265v.265H12.7z"/><path d="M12.7 7.408h.265v.265H12.7zM12.965 6.879h.265v.265h-.265z"/><path d="M12.965 6.615h.265v.265h-.265zM12.965 6.35h.265v.265h-.265zM12.965 6.085h.265v.265h-.265z"/><path d="M12.965 5.821h.265v.265h-.265zM12.965 5.556h.265v.265h-.265z"/><path d="M12.965 5.292h.265v.265h-.265zM11.642 6.615h.265v.265h-.265zM11.906 5.292h.265v.265h-.265z"/><path d="M12.171 5.292h.265v.265h-.265z"/><path d="M12.435 5.292h.265v.265h-.265z"/><path d="M12.7 5.292h.265v.265H12.7zM11.906 5.556h.265v.265h-.265z"/><path d="M12.171 5.556h.265v.265h-.265z"/><path d="M12.435 5.556h.265v.265h-.265z"/><path d="M12.7 5.556h.265v.265H12.7zM11.906 5.821h.265v.265h-.265z"/><path d="M12.171 5.821h.265v.265h-.265z"/><path d="M12.435 5.821h.265v.265h-.265z"/><path d="M12.7 5.821h.265v.265H12.7zM11.906 6.085h.265v.265h-.265z"/><path d="M12.171 6.085h.265v.265h-.265z"/><path d="M12.435 6.085h.265v.265h-.265z"/><path d="M12.7 6.085h.265v.265H12.7zM11.906 6.35h.265v.265h-.265z"/><path d="M12.171 6.35h.265v.265h-.265z"/><path d="M12.435 6.35h.265v.265h-.265z"/><path d="M12.7 6.35h.265v.265H12.7zM12.171 6.615h.265v.265h-.265z"/><path d="M12.435 6.615h.265v.265h-.265z"/><path d="M12.7 6.615h.265v.265H12.7zM12.171 6.879h.265v.265h-.265z"/><path d="M12.435 6.879h.265v.265h-.265z"/><path d="M12.7 6.879h.265v.265H12.7zM14.023 5.027h.265v.265h-.265z"/><path d="M14.287 5.027h.265v.265h-.265z"/><path d="M14.552 5.027h.265v.265h-.265zM14.023 5.292h.265v.265h-.265z"/><path d="M14.287 5.292h.265v.265h-.265z"/><path d="M14.023 5.556h.265v.265h-.265z"/><path d="M14.287 5.556h.265v.265h-.265z"/><path d="M14.552 5.556h.265v.265h-.265zM14.552 5.821h.265v.265h-.265zM14.817 5.821h.265v.265h-.265z"/><path d="M15.081 5.821h.265v.265h-.265zM14.552 6.085h.265v.265h-.265z"/><path d="M14.817 6.085h.265v.265h-.265z"/><path d="M15.081 6.085h.265v.265h-.265zM13.758 5.027h.265v.265h-.265zM13.758 5.292h.265v.265h-.265z"/><path d="M13.758 5.556h.265v.265h-.265zM14.023 5.821h.265v.265h-.265z"/><path d="M14.023 6.085h.265v.265h-.265zM14.023 6.35h.265v.265h-.265zM14.287 4.763h.265v.265h-.265z"/><path d="M14.023 4.763h.265v.265h-.265zM14.552 4.763h.265v.265h-.265zM14.817 5.027h.265v.265h-.265zM15.081 5.292h.265v.265h-.265z"/><path d="M14.817 5.556h.265v.265h-.265zM15.346 5.556h.265v.265h-.265zM15.346 5.821h.265v.265h-.265zM15.081 6.35h.265v.265h-.265zM15.081 6.615h.265v.265h-.265z"/><path d="M15.081 6.879h.265v.265h-.265z"/><path d="M14.817 6.615h.265v.265h-.265zM14.817 6.35h.265v.265h-.265z"/></g><g fill="#372e30"><path d="M14.023 7.144h.265v.265h-.265zM14.023 7.673h.265v.265h-.265zM14.287 7.938h.265v.265h-.265z"/><path d="M14.023 8.202h.265v.265h-.265zM14.287 8.467h.265v.265h-.265zM14.023 6.879h.265v.265h-.265zM13.758 6.615h.265v.265h-.265zM13.758 6.35h.265v.265h-.265zM13.758 6.085h.265v.265h-.265z"/><path d="M13.494 5.821h.265v.265h-.265zM13.494 5.556h.265v.265h-.265z"/><path d="M13.494 5.292h.265v.265h-.265zM14.287 7.673h.265v.265h-.265zM14.287 7.408h.265v.265h-.265z"/></g><g fill="#c24949"><path d="M14.023 7.938h.265v.265h-.265z"/><path d="M14.287 8.202h.265v.265h-.265zM11.642 7.673h.265v.265h-.265zM11.906 7.408h.265v.265h-.265zM12.171 7.673h.265v.265h-.265zM12.435 7.938h.265v.265h-.265z"/><path d="M12.7 8.202h.265v.265H12.7zM12.965 7.938h.265v.265h-.265zM13.229 7.673h.265v.265h-.265zM13.494 7.938h.265v.265h-.265z"/></g><g fill="#f8c1c1"><path d="M13.229 7.408h.265v.265h-.265zM13.494 7.408h.265v.265h-.265zM13.494 7.673h.265v.265h-.265z"/></g><g fill="#c24949"><path d="M14.552 6.879h.265v.265h-.265zM14.817 7.144h.265v.265h-.265zM15.346 6.879h.265v.265h-.265zM15.875 6.879h.265v.265h-.265z"/><path d="M15.875 6.615h.265v.265h-.265zM15.875 6.35h.265v.265h-.265zM15.875 6.085h.265v.265h-.265z"/><path d="M15.875 5.821h.265v.265h-.265zM15.61 6.085h.265v.265h-.265z"/><path d="M15.346 6.085h.265v.265h-.265zM15.346 6.35h.265v.265h-.265zM15.346 6.615h.265v.265h-.265zM12.965 4.498h.265v.265h-.265zM12.965 4.763h.265v.265h-.265zM13.494 4.763h.265v.265h-.265z"/><path d="M13.229 5.027h.265v.265h-.265zM13.494 5.027h.265v.265h-.265zM12.7 4.233h.265v.265H12.7zM8.202 9.79h.265v.265h-.265z"/><path d="M7.938 10.054h.265v.265h-.265zM8.731 10.054h.265v.265h-.265zM8.996 10.054h.265v.265h-.265zM9.26 10.319h.265v.265H9.26zM9.525 10.319h.265v.265h-.265zM9.525 10.054h.265v.265h-.265z"/><path d="M9.79 10.054h.265v.265H9.79zM8.996 9.79h.265v.265h-.265z"/><path d="M8.996 9.525h.265v.265h-.265z"/></g><path fill="#985860" d="M8.467 8.996h.265v.265h-.265z"/><g fill="#c24949"><path d="M8.467 9.26h.265v.265h-.265zM8.467 9.525h.265v.265h-.265zM8.202 9.525h.265v.265h-.265z"/><path d="M8.731 9.525h.265v.265h-.265z"/><path d="M8.731 9.79h.265v.265h-.265z"/><path d="M8.467 9.79h.265v.265h-.265z"/></g><g fill="#802b2b"><path d="M8.467 10.319h.265v.265h-.265zM8.202 10.319h.265v.265h-.265z"/><path d="M8.731 10.319h.265v.265h-.265zM15.61 7.144h.265v.265h-.265z"/></g><g fill="#afa0a0"><path d="M14.552 4.233h.265v.265h-.265z"/><path d="M14.552 3.969h.265v.265h-.265zM14.287 4.498h.265v.265h-.265z"/><path d="M14.287 4.233h.265v.265h-.265z"/></g><g fill="#f4ebdf"><path d="M13.494 3.44h.265v.265h-.265z"/><path d="M13.494 3.704h.265v.265h-.265zM13.229 3.704h.265v.265h-.265z"/><path d="M12.965 3.704h.265v.265h-.265z"/><path d="M12.965 3.969h.265v.265h-.265z"/><path d="M13.229 3.969h.265v.265h-.265zM13.758 3.704h.265v.265h-.265z"/><path d="M13.758 3.44h.265v.265h-.265zM13.229 3.175h.265v.265h-.265zM12.965 3.44h.265v.265h-.265z"/><path d="M12.965 3.175h.265v.265h-.265z"/><path d="M13.229 2.91h.265v.265h-.265z"/></g><g fill="#443b3d"><path d="M13.758 2.381h.265v.265h-.265z"/><path d="M13.494 2.381h.265v.265h-.265zM13.494 2.646h.265v.265h-.265z"/><path d="M13.494 2.91h.265v.265h-.265zM14.023 2.646h.265v.265h-.265z"/><path d="M14.287 2.91h.265v.265h-.265z"/><path d="M14.287 3.175h.265v.265h-.265zM14.287 3.44h.265v.265h-.265z"/><path d="M14.552 2.91h.265v.265h-.265z"/><path d="M14.287 2.646h.265v.265h-.265zM14.287 2.381h.265v.265h-.265z"/><path d="M14.023 2.117h.265v.265h-.265zM13.758 1.852h.265v.265h-.265z"/><path d="M13.494 1.852h.265v.265h-.265zM13.229 1.852h.265v.265h-.265z"/><path d="M12.965 1.852h.265v.265h-.265zM12.7 2.117h.265v.265H12.7z"/><path d="M12.435 2.381h.265v.265h-.265zM12.435 2.646h.265v.265h-.265z"/><path d="M12.435 2.91h.265v.265h-.265z"/><path d="M12.7 2.646h.265v.265H12.7zM12.7 2.381h.265v.265H12.7zM12.965 2.381h.265v.265h-.265z"/><path d="M13.229 2.117h.265v.265h-.265zM12.435 3.175h.265v.265h-.265zM14.552 3.175h.265v.265h-.265zM14.817 2.91h.265v.265h-.265zM14.552 2.646h.265v.265h-.265z"/></g><g fill="#49464e"><path d="M12.435 9.525h.265v.265h-.265z"/><path d="M12.171 9.525h.265v.265h-.265z"/><path d="M11.906 9.525h.265v.265h-.265z"/><path d="M11.642 9.525h.265v.265h-.265z"/><path d="M11.377 9.525h.265v.265h-.265zM12.7 9.525h.265v.265H12.7zM12.965 9.525h.265v.265h-.265z"/><path d="M13.229 9.525h.265v.265h-.265zM12.435 9.26h.265v.265h-.265z"/><path d="M12.171 9.26h.265v.265h-.265z"/><path d="M11.906 9.26h.265v.265h-.265zM11.377 9.26h.265v.265h-.265zM12.965 9.26h.265v.265h-.265z"/><path d="M13.229 9.26h.265v.265h-.265zM12.435 8.996h.265v.265h-.265z"/><path d="M12.171 8.996h.265v.265h-.265z"/><path d="M11.906 8.996h.265v.265h-.265z"/><path d="M11.642 8.996h.265v.265h-.265z"/><path d="M11.377 8.996h.265v.265h-.265zM12.965 8.996h.265v.265h-.265z"/><path d="M13.229 8.996h.265v.265h-.265zM12.435 8.731h.265v.265h-.265z"/><path d="M12.171 8.731h.265v.265h-.265z"/><path d="M11.906 8.731h.265v.265h-.265z"/><path d="M11.642 8.731h.265v.265h-.265z"/><path d="M11.377 8.731h.265v.265h-.265zM12.7 8.731h.265v.265H12.7zM12.965 8.731h.265v.265h-.265z"/><path d="M13.229 8.731h.265v.265h-.265zM12.435 8.467h.265v.265h-.265z"/><path d="M12.171 8.467h.265v.265h-.265z"/><path d="M11.906 8.467h.265v.265h-.265z"/><path d="M11.642 8.467h.265v.265h-.265z"/><path d="M11.377 8.467h.265v.265h-.265zM12.7 8.467h.265v.265H12.7zM12.965 8.467h.265v.265h-.265z"/><path d="M13.229 8.467h.265v.265h-.265zM12.435 9.79h.265v.265h-.265z"/><path d="M12.171 9.79h.265v.265h-.265zM11.642 9.79h.265v.265h-.265zM12.7 9.79h.265v.265H12.7z"/><path d="M12.435 10.054h.265v.265h-.265z"/><path d="M12.171 10.054h.265v.265h-.265zM12.7 10.054h.265v.265H12.7zM12.965 10.054h.265v.265h-.265z"/><path d="M13.229 10.054h.265v.265h-.265zM12.435 10.319h.265v.265h-.265z"/><path d="M12.171 10.319h.265v.265h-.265z"/><path d="M11.906 10.319h.265v.265h-.265z"/><path d="M11.642 10.319h.265v.265h-.265zM12.7 10.319h.265v.265H12.7zM12.965 10.319h.265v.265h-.265z"/><path d="M13.229 10.319h.265v.265h-.265zM11.642 8.202h.265v.265h-.265z"/><path d="M11.642 7.938h.265v.265h-.265z"/><path d="M11.906 7.938h.265v.265h-.265zM11.906 7.673h.265v.265h-.265z"/><path d="M12.171 7.938h.265v.265h-.265z"/><path d="M12.171 8.202h.265v.265h-.265z"/><path d="M11.906 8.202h.265v.265h-.265zM12.435 8.202h.265v.265h-.265zM12.965 8.202h.265v.265h-.265z"/><path d="M13.229 7.938h.265v.265h-.265z"/><path d="M13.229 8.202h.265v.265h-.265zM13.494 8.202h.265v.265h-.265zM13.494 8.467h.265v.265h-.265z"/><path d="M13.494 8.731h.265v.265h-.265zM13.494 8.996h.265v.265h-.265z"/><path d="M13.494 9.26h.265v.265h-.265z"/><path d="M13.758 9.26h.265v.265h-.265zM13.758 9.525h.265v.265h-.265z"/><path d="M13.758 9.79h.265v.265h-.265z"/><path d="M13.758 10.054h.265v.265h-.265zM13.758 10.319h.265v.265h-.265zM14.023 10.319h.265v.265h-.265zM14.023 10.054h.265v.265h-.265zM13.494 9.525h.265v.265h-.265z"/><path d="M13.494 9.79h.265v.265h-.265z"/><path d="M13.494 10.054h.265v.265h-.265zM13.494 10.319h.265v.265h-.265zM12.435 10.583h.265v.265h-.265z"/><path d="M12.171 10.583h.265v.265h-.265z"/><path d="M11.906 10.583h.265v.265h-.265zM11.906 10.848h.265v.265h-.265z"/><path d="M11.642 10.848h.265v.265h-.265zM11.642 10.583h.265v.265h-.265z"/><path d="M11.377 10.583h.265v.265h-.265zM11.112 10.583h.265v.265h-.265z"/><path d="M10.848 10.583h.265v.265h-.265z"/><path d="M11.112 10.319h.265v.265h-.265zM11.112 10.054h.265v.265h-.265z"/><path d="M11.112 9.79h.265v.265h-.265z"/><path d="M11.112 9.525h.265v.265h-.265zM11.112 9.26h.265v.265h-.265z"/><path d="M11.112 8.996h.265v.265h-.265zM11.112 8.731h.265v.265h-.265z"/><path d="M10.848 9.26h.265v.265h-.265z"/></g><g fill="#dad1e1"><path d="M11.642 11.642h.265v.265h-.265z"/><path d="M11.642 11.906h.265v.265h-.265z"/><path d="M11.642 12.171h.265v.265h-.265z"/><path d="M11.642 12.435h.265v.265h-.265z"/><path d="M11.642 12.7h.265v.265h-.265zM11.642 12.965h.265v.265h-.265z"/><path d="M11.642 13.229h.265v.265h-.265zM11.642 13.494h.265v.265h-.265z"/><path d="M11.642 13.758h.265v.265h-.265zM11.642 14.023h.265v.265h-.265zM11.642 15.875h.265v.265h-.265z"/></g><g fill="#933"><path d="M8.467 10.054h.265v.265h-.265zM8.202 10.054h.265v.265h-.265zM8.996 10.319h.265v.265h-.265z"/><path d="M9.26 10.583h.265v.265H9.26z"/></g><path fill="#ad7e86" d="M7.938 10.319h.265v.265h-.265z"/><path fill="#c4a8b4" d="M8.467 10.583h.265v.265h-.265z"/><path fill="#ad7e86" d="M8.996 10.583h.265v.265h-.265z"/><path fill="#dad1e1" d="M8.996 10.848h.265v.265h-.265z"/><path fill="#ad7e86" d="M8.731 10.583h.265v.265h-.265z"/><path fill="#eba3a3" d="M8.996 9.26h.265v.265h-.265z"/><path fill="#f8c1c1" d="M9.26 9.26h.265v.265H9.26z"/><path fill="#82606b" d="M8.202 9.26h.265v.265h-.265z"/><path fill="#c24949" d="M8.731 9.26h.265v.265h-.265z"/><path fill="#c88d91" d="M15.61 5.821h.265v.265h-.265z"/><path fill="#f8c1c1" d="M15.081 5.556h.265v.265h-.265z"/><path fill="#785a65" d="M15.875 7.144h.265v.265h-.265zM15.346 7.408h.265v.265h-.265z"/><path fill="#c24949" d="M15.61 6.879h.265v.265h-.265z"/><path fill="#985860" d="M14.552 7.144h.265v.265h-.265z"/><path fill="#ad5154" d="M14.817 7.408h.265v.265h-.265z"/><path fill="#82606b" d="M14.287 6.879h.265v.265h-.265z"/><path fill="#774951" d="M15.081 7.408h.265v.265h-.265z"/><path fill="#a13a3a" d="M15.346 7.144h.265v.265h-.265z"/><path fill="#cd7e7e" d="M15.081 7.144h.265v.265h-.265zM14.817 6.879h.265v.265h-.265z"/><path fill="#c24949" d="M15.61 6.615h.265v.265h-.265zM15.61 6.35h.265v.265h-.265z"/><g fill="#907e89"><path d="M9.26 8.996h.265v.265H9.26zM10.319 8.202h.265v.265h-.265zM10.583 7.673h.265v.265h-.265zM11.112 6.615h.265v.265h-.265z"/></g><g fill="#b3949c"><path d="M10.319 8.467h.265v.265h-.265zM10.848 7.144h.265v.265h-.265zM11.112 6.879h.265v.265h-.265zM11.377 6.085h.265v.265h-.265z"/><path d="M11.377 5.821h.265v.265h-.265zM11.377 4.498h.265v.265h-.265z"/></g><g><path fill="#928c98" d="M11.642 11.112h.265v.265h-.265z"/><path fill="#49464e" d="M11.906 10.054h.265v.265h-.265z"/><path fill="#6d6973" d="M11.377 10.848h.265v.265h-.265z"/></g><g fill="#49464e"><path d="M11.377 9.79h.265v.265h-.265z"/><path d="M11.377 10.054h.265v.265h-.265zM11.377 10.319h.265v.265h-.265zM11.906 9.79h.265v.265h-.265z"/></g><g fill="#3e373c"><path d="M12.965 10.583h.265v.265h-.265zM12.7 10.583h.265v.265H12.7zM12.435 10.848h.265v.265h-.265z"/><path d="M12.171 10.848h.265v.265h-.265z"/><path d="M12.171 11.113h.265v.265h-.265z"/></g><g><path fill="#433f45" d="M13.229 10.583h.265v.265h-.265zM13.494 10.583h.265v.265h-.265z"/><path fill="#49464e" d="M13.229 9.79h.265v.265h-.265z"/><path fill="#49464e" d="M12.965 9.79h.265v.265h-.265z"/></g><g fill="#f8c1c1"><path d="M10.054 9.26h.265v.265h-.265zM10.319 9.26h.265v.265h-.265z"/><path d="M10.319 8.996h.265v.265h-.265z"/></g><g><path fill="#a18488" d="M11.112 8.731h.265v-.265h-.265zM10.848 9.26h.265v-.265h-.265z"/><path fill="#75656b" d="M11.377 8.202h.265v.265h-.265z"/><path fill="#f8c1c1" d="M11.112 7.938h.265v.265h-.265z"/><path fill="#f8c1c1" d="M10.848 7.938h.265v.265h-.265z"/><path fill="#8c7c70" d="M10.848 9.525h.265v.265h-.265z"/><path fill="#9e8c84" d="M10.583 9.525h.265v.265h-.265z"/><path fill="#49464e" d="M11.642 9.26h.265v.265h-.265z"/><path fill="#888291" d="M10.848 10.319h.265v.265h-.265z"/><path fill="#49464e" d="M11.642 10.054h.265v.265h-.265z"/></g><g fill="#9c938e"><path d="M13.229 2.381h.265v.265h-.265zM12.7 3.704h.265v.265H12.7zM14.023 3.175h.265v.265h-.265zM13.758 2.91h.265v.265h-.265z"/></g><g fill="#c8bfb7"><path d="M13.494 3.175h.265v.265h-.265z"/><path d="M13.758 3.175h.265v.265h-.265zM12.965 2.91h.265v.265h-.265z"/><path d="M13.229 2.646h.265v.265h-.265zM14.023 3.44h.265v.265h-.265zM13.494 3.969h.265v.265h-.265z"/></g><g fill="#706766"><path d="M13.758 2.646h.265v.265h-.265zM14.023 2.91h.265v.265h-.265zM12.965 2.646h.265v.265h-.265zM12.7 2.91h.265v.265H12.7zM12.7 3.44h.265v.265H12.7z"/></g><g><path fill="#605857" d="M12.7 3.175h.265v.265H12.7z"/><path fill="#443b3d" d="M12.965 2.117h.265v.265h-.265z"/><path fill="#2b2527" d="M12.171 3.44h.265v.265h-.265zM14.023 3.969h.265v.265h-.265z"/></g><g fill="#3e3638"><path d="M12.435 3.44h.265v.265h-.265zM12.171 3.175h.265v.265h-.265zM14.287 3.704h.265v.265h-.265z"/></g><g><path fill="#383032" d="M14.552 3.44h.265v.265h-.265zM14.817 3.175h.265v.265h-.265z"/><path fill="#908883" d="M14.023 3.704h.265v.265h-.265z"/><path fill="#5d5755" d="M13.758 3.969h.265v.265h-.265z"/><path fill="#4c464f" d="M12.171 3.704h.265v.265h-.265z"/><path fill="#5d5762" d="M12.435 3.704h.265v.265h-.265zM13.758 4.233h.265v.265h-.265z"/><path fill="#4e4952" d="M14.023 4.233h.265v.265h-.265z"/><path fill="#4c464f" d="M14.817 3.44h.265v.265h-.265z"/><path fill="#5c5560" d="M14.817 3.704h.265v.265h-.265z"/><path fill="#443b3d" d="M14.023 2.381h.265v.265h-.265z"/></g><g fill="#372e30"><path d="M12.965 4.233h.265v.265h-.265z"/><path d="M13.229 4.233h.265v.265h-.265zM13.229 4.498h.265v.265h-.265z"/></g><g><path fill="#dd8585" d="M13.229 4.763h.265v.265h-.265z"/><path fill="#eba3a3" d="M13.494 4.498h.265v.265h-.265z"/><path fill="#443b3d" d="M13.758 2.117h.265v.265h-.265z"/><path fill="#443b3d" d="M13.494 2.117h.265v.265h-.265z"/><path fill="#dd8585" d="M12.435 3.969h.265v.265h-.265z"/><path fill="#db9a94" d="M12.7 3.969h.265v.265H12.7z"/><path fill="#f4ebdf" d="M13.229 3.44h.265v.265h-.265z"/><path fill="#907e89" d="M14.287 5.821h.265v.265h-.265z"/><path fill="#b3949c" d="M14.552 6.35h.265v.265h-.265zM14.552 6.615h.265v.265h-.265z"/><path fill="#f8c1c1" d="M14.817 5.292h.265v.265h-.265z"/></g><g fill="#d5abae"><path d="M14.817 4.763h.265v.265h-.265z"/><path d="M15.081 5.027h.265v.265h-.265zM15.346 5.292h.265v.265h-.265zM14.287 6.085h.265v.265h-.265z"/></g><g><path fill="#c89c9d" d="M13.758 5.821h.265v.265h-.265z"/><path fill="#f8c1c1" d="M14.552 5.292h.265v.265h-.265z"/><path fill="#c89c9d" d="M14.023 6.615h.265v.265h-.265z"/><path fill="#605965" d="M14.287 7.144h.265v.265h-.265z"/><path fill="#372e30" d="M14.023 7.408h.265v.265h-.265z"/><path fill="#d5abae" d="M13.758 4.763h.265v.265h-.265z"/><path fill="#b3949c" d="M11.642 7.144h.265v.265h-.265z"/><path fill="#907e89" d="M11.906 6.615h.265v.265h-.265z"/><path fill="#907e89" d="M11.906 6.879h.265v.265h-.265z"/><path fill="#403a3f" d="M14.023 9.79h.265v.265h-.265z"/><path fill="#3c3438" d="M13.758 8.996h.265v.265h-.265z"/><path fill="#49464e" d="M12.7 8.996h.265v.265H12.7z"/><path fill="#49464e" d="M12.7 9.26h.265v.265H12.7z"/><path fill="#41383c" d="M13.758 12.7h.265v.265h-.265z"/></g><g fill="#504850"><path d="M13.758 12.965h.265v.265h-.265zM12.7 12.7h.265v.265H12.7zM12.171 13.758h.265v.265h-.265zM14.023 14.023h.265v.265h-.265zM12.171 14.817h.265v.265h-.265zM13.494 14.552h.265v.265h-.265zM14.288 14.817h.265v.265h-.265z"/></g><g fill="#41383c"><path d="M14.023 12.435h.265v.265h-.265z"/><path d="M14.287 12.171h.265v.265h-.265zM14.552 15.61h.265v.265h-.265z"/></g><g fill="#322829"><path d="M13.494 11.906h.265v.265h-.265zM13.229 11.906h.265v.265h-.265z"/><path d="M13.229 12.171h.265v.265h-.265z"/></g><g fill="#69555a"><path d="M15.875 15.875h.265v.265h-.265zM15.875 16.669h.265v.265h-.265zM15.61 16.933h.265v.265h-.265z"/></g><g><path fill="#64423d" d="M15.081 16.669h.265v.265h-.265z"/><path fill="#69555a" d="M12.435 15.875h.265v.265h-.265zM12.7 16.404h.265v.265H12.7z"/><path fill="#9f8a8f" d="M11.906 16.14h.265v.265h-.265z"/><path fill="#64423d" d="M11.906 15.346h.265v.265h-.265z"/><path fill="#6b5e68" d="M12.171 16.404h.265v.265h-.265z"/><path fill="#64423d" d="M12.435 16.14h.265v.265h-.265z"/><path fill="#6b5e68" d="M12.7 16.14h.265v.265H12.7z"/></g></g></svg>