<svg xmlns="http://www.w3.org/2000/svg" viewBox="0 -.5 480 270" shape-rendering="crispEdges"><path stroke="#6c68b7" d="M0 0h480M0 1h480M0 2h480M0 3h480M0 4h480M0 5h480M0 6h480M0 7h480M0 8h480M0 9h480M0 10h480M0 11h480M0 12h480M0 13h480M0 14h480M0 15h480M0 16h480M0 17h480M0 18h480M0 19h480M0 20h480M0 21h480M0 22h480M0 23h480M0 24h480M0 25h480M0 26h480M0 27h480M0 28h480M0 29h480M0 30h480M0 31h480M0 32h480M0 33h480M0 34h480M0 35h480M0 36h480M0 37h480M0 38h480M0 39h480M0 40h480M0 41h480M0 42h480M0 43h480M0 44h387m13 0h80M0 45h383m21 0h76M0 46h381m25 0h74M0 47h379m28 0h73M0 48h377m32 0h71M0 49h376m34 0h70M0 50h375m37 0h68M0 51h374m39 0h67M0 52h373m41 0h66M0 53h372m43 0h65M0 54h371m44 0h65M0 55h371m45 0h64M0 56h370m47 0h63M0 57h370m48 0h62M0 58h368m50 0h62M0 59h369m50 0h61M0 60h368m51 0h61M0 61h368m51 0h61M0 62h368m51 0h61M0 63h367m52 0h61M0 64h367m52 0h61M0 65h367m52 0h61M0 66h365m55 0h60M0 67h366m55 0h59M0 68h366m55 0h59M0 69h366m53 0h61M0 70h366m53 0h61M0 71h365m54 0h1m1 0h59M0 72h365m56 0h59M0 73h365m54 0h2m2 0h57M0 74h365m57 0h58M0 75h365m57 0h58M0 76h364m57 0h59M0 77h363m58 0h59M0 78h360m59 0h61M0 79h362m3 0h2m52 0h61M0 80h367m52 0h61M0 81h365m53 0h62M0 82h366m52 0h62M0 83h366m52 0h62M0 84h366m52 0h62M0 85h365m1 0h1m51 0h62M0 86h348m3 0h14m1 0h1m51 0h62M0 87h347m5 0h15m51 0h62M0 88h345m7 0h15m52 0h61M0 89h344m8 0h12m1 0h1m53 0h61M0 90h342m10 0h11m7 0h1m48 0h61M0 91h341m11 0h16m2 0h2m47 0h61M0 92h341m11 0h17m2 0h1m38 0h1m9 0h60M0 93h341m12 0h16m1 0h3m37 0h1m9 0h60M0 94h341m12 0h21m1 0h1m33 0h2m9 0h60M0 95h342m11 0h23m33 0h1m11 0h59M0 96h342m11 0h23m33 0h1m11 0h59M0 97h342m11 0h23m33 0h1m11 0h59M0 98h342m12 0h22m32 0h1m3 0h1m8 0h59M0 99h342m12 0h22m32 0h1m3 0h1m9 0h58M0 100h343m11 0h22m7 0h1m24 0h1m3 0h1m9 0h58M0 101h343m11 0h22m46 0h58M0 102h343m11 0h21m47 0h58M0 103h343m11 0h21m47 0h58M0 104h341m14 0h21m1 0h1m45 0h57M0 105h341m14 0h20m2 0h1m45 0h57M0 106h342m13 0h19m3 0h1m46 0h56M0 107h342m12 0h20m3 0h1m46 0h56M0 108h342m13 0h19m3 0h1m46 0h56M0 109h342m15 0h18m1 0h2m46 0h56M0 110h343m15 0h19m48 0h55M0 111h343m15 0h18m49 0h55M0 112h344m14 0h17m51 0h54M0 113h343m16 0h14m53 0h54M0 114h343m16 0h12m55 0h54M0 115h343m16 0h11m57 0h53M0 116h343m16 0h10m58 0h53M0 117h343m15 0h11m58 0h53M0 118h342m17 0h9m60 0h52M0 119h342m17 0h8m61 0h52M0 120h342m16 0h8m62 0h52M0 121h341m18 0h6m63 0h52M0 122h341m17 0h7m63 0h52M0 123h341m17 0h7m63 0h52M0 124h341m16 0h7m64 0h52M0 125h341m15 0h7m65 0h52M0 126h341m14 0h7m67 0h51M0 127h341m11 0h9m68 0h51M0 128h341m10 0h9m69 0h51M0 129h341m10 0h9m69 0h51M0 130h341m10 0h8m70 0h51M0 131h342m10 0h7m71 0h50M0 132h342m10 0h6m72 0h50M0 133h342m10 0h6m72 0h50M0 134h343m10 0h5m72 0h50M0 135h343m10 0h5m72 0h50M0 136h343m11 0h4m72 0h50M0 137h344m10 0h4m70 0h52M0 138h344m11 0h3m71 0h51M0 139h344m11 0h3m71 0h51M0 140h344m11 0h3m71 0h51M0 141h345m11 0h2m71 0h51M0 142h345m11 0h2m63 0h3m5 0h51M0 143h345m12 0h1m63 0h3m5 0h51M0 144h345m12 0h2m62 0h3m4 0h52M0 145h346m12 0h1m62 0h2m5 0h52M0 146h346m12 0h1m62 0h2m5 0h52M0 147h346m13 0h1m61 0h2m5 0h52M0 148h346m13 0h1m61 0h2m4 0h53M0 149h347m74 0h1m5 0h53M0 150h347m74 0h1m5 0h53M0 151h347m74 0h1m4 0h54M0 152h348m78 0h54M0 153h348m78 0h54M0 154h348m77 0h55M0 155h349m76 0h55M0 156h349m50 0h1m24 0h56M0 157h349m50 0h1m24 0h56M0 158h350m48 0h2m23 0h57M0 159h350m48 0h3m13 0h2m7 0h57M0 160h350m48 0h3m13 0h2m6 0h58M0 161h351m47 0h3m13 0h2m6 0h58M0 162h351m47 0h3m13 0h2m6 0h58M0 163h352m45 0h4m13 0h2m6 0h58M0 164h353m44 0h5m12 0h2m7 0h57M0 165h354m43 0h5m12 0h2m7 0h57M0 166h355m42 0h4m13 0h1m8 0h57M0 167h356m41 0h4m13 0h1m8 0h57M0 168h356m41 0h4m13 0h1m9 0h56M0 169h356m42 0h2m14 0h1m9 0h56M0 170h356m43 0h1m14 0h1m9 0h56M0 171h356m43 0h1m25 0h55M0 172h356m69 0h55M0 173h355m70 0h55M0 174h355m71 0h54M0 175h354m73 0h53M0 176h353m74 0h53M0 177h352m69 0h2m5 0h52M0 178h351m70 0h2m6 0h51M0 179h350m70 0h3m7 0h4m1 0h45M0 180h350m70 0h4m12 0h44M0 181h349m70 0h5m11 0h45M0 182h349m70 0h5m10 0h46M0 183h349m69 0h3m12 0h47M0 184h347m71 0h1m14 0h47M0 185h345m88 0h47M0 186h343m31 0h1m53 0h2m4 0h46M0 187h341m64 0h1m22 0h2m4 0h46M0 188h339m66 0h1m22 0h3m3 0h46M0 189h337m67 0h2m18 0h1m3 0h3m4 0h45M0 190h335m69 0h2m16 0h2m4 0h3m4 0h45M0 191h332m71 0h1m17 0h3m4 0h3m5 0h44M0 192h331m88 0h5m3 0h4m5 0h44M0 193h331m86 0h7m3 0h4m6 0h43M0 194h329m72 0h1m14 0h7m4 0h4m6 0h43M0 195h327m89 0h7m3 0h5m6 0h43M0 196h325m91 0h6m3 0h6m7 0h42M0 197h323m92 0h7m3 0h5m8 0h42M0 198h321m88 0h2m4 0h6m3 0h6m8 0h42M0 199h319m89 0h3m4 0h4m1 0h2m1 0h7m8 0h42M0 200h317m91 0h3m3 0h4m3 0h8m5 0h1m3 0h42M0 201h315m93 0h3m4 0h4m1 0h8m5 0h2m3 0h42M0 202h314m93 0h4m4 0h11m7 0h2m3 0h42M0 203h312m95 0h6m1 0h11m7 0h2m3 0h43M0 204h311m95 0h18m7 0h3m3 0h43M0 205h309m96 0h20m5 0h5m1 0h44M0 206h308m96 0h24m1 0h51M0 207h307m97 0h76M0 208h306m98 0h76M0 209h305m100 0h75M0 210h304m101 0h75M0 211h304m101 0h75M0 212h303m102 0h75M0 213h302m104 0h15m4 0h55M0 214h301m105 0h14m7 0h53M0 215h300m106 0h13m9 0h52M0 216h300m106 0h12m11 0h51M0 217h300m109 0h8m13 0h50M0 218h299m113 0h3m18 0h47M0 219h299m52 0h7m79 0h43M0 220h299m50 0h9m80 0h42M0 221h299m48 0h11m81 0h41M0 222h300m45 0h13m82 0h40M0 223h300m43 0h16m81 0h40M0 224h300m41 0h18m82 0h39M0 225h301m37 0h21m82 0h39M0 226h302m34 0h23m83 0h38M0 227h303m30 0h27m82 0h38M0 228h304m25 0h31m56 0h2m24 0h38M0 229h306m19 0h36m53 0h8m20 0h38M0 230h308m16 0h38m50 0h13m17 0h38M0 231h310m12 0h40m49 0h16m15 0h38M0 232h363m46 0h20m13 0h38M0 233h364m43 0h24m11 0h38M0 234h365m39 0h31m6 0h39M0 235h367m35 0h33m5 0h40M0 236h368m30 0h38m3 0h41M0 237h369m25 0h86M0 238h370m21 0h89M0 239h371m17 0h92M0 240h372m13 0h95M0 241h375m6 0h99M0 242h480M0 243h480M0 244h480M0 245h480M0 246h480M0 247h480M0 248h480M0 249h480M0 250h480M0 251h480M0 252h480M0 253h480M0 254h480M0 255h480M0 256h480M0 257h480M0 258h480M0 259h480M0 260h480M0 261h480M0 262h480M0 263h480M0 264h480M0 265h480M0 266h480M0 267h480M0 268h480M0 269h480"/><path stroke="#6866b7" d="M387 44h13m-17 1h3m15 0h2m-22 1h1m23 0h1m-27 1h1m38 12h1m-1 1h1m-54 6h1m54 11h1m-3 2h1m-1 1h1m-54 1h1m51 1h1m-1 3h1m-53 1h1m51 0h1m-47 3h1m40 0h1m5 0h1m-48 1h1m39 0h1m6 0h1m-8 2h1m7 0h1m-11 1h1m1 0h1m7 0h1m-44 1h1m-1 1h1m31 0h1m-1 1h1m1 0h1m2 0h1m6 0h1m-45 1h1m35 0h2m6 0h1m-45 1h1m36 0h1m-38 1h1m5 0h1m24 0h1m1 0h1m1 0h1m1 0h1m7 0h1m-46 1h1m5 0h1m26 0h1m1 0h1m9 0h1m-46 1h1m5 0h2m37 0h1m-47 1h1m1 0h2m3 0h2m37 0h1m-47 1h1m1 0h2m3 0h2m8 0h1m-15 1h1m3 0h1m-5 1h1m-1 1h1m-5 1h1m1 0h1m1 0h1m-5 1h1m1 0h1m1 0h1m-4 1h1m-11 13h1m-2 2h1m63 14h1m-1 1h1m-1 1h1m-1 1h1m-9 1h1m3 0h1m3 0h1m-9 1h1m3 0h1m3 0h1m-9 1h1m-1 1h1m2 0h1m3 0h1m-8 1h1m2 0h1m3 0h1m-8 1h1m2 0h1m3 0h1m-8 1h1m-1 1h1m1 0h1m3 0h1m-7 1h1m1 0h1m3 0h1m-7 1h1m-1 1h2m3 0h1m-6 1h2m-2 1h1m-21 1h1m23 0h1m-25 1h1m-1 1h1m14 0h1m7 0h1m-24 1h1m14 0h1m6 1h1m-22 1h1m14 0h1m-16 1h1m14 0h1m4 0h1m-21 1h1m11 0h1m2 0h1m4 0h1m-21 1h1m11 0h1m2 0h1m-4 1h1m2 0h1m5 0h1m-1 1h1m-10 1h1m8 0h1m-10 1h1m1 0h1m-3 1h1m1 0h1m7 0h1m-11 1h1m1 0h1m7 0h1m-11 1h1m-16 1h1m14 0h2m-17 1h1m14 0h1m10 0h1m-27 1h1m-1 1h1m22 1h2m-2 1h2m-3 2h1m2 0h1m-1 1h1m5 0h1m-11 1h1m4 1h1m-7 1h1m-2 2h1m14 0h1m-27 1h1m-1 1h1m-1 1h1m20 0h1m5 0h1m-28 1h1m20 0h1m-22 1h1m20 0h1m3 0h1m2 0h1m-8 1h1m3 0h1m-8 1h1m2 0h1m3 0h1m3 0h1m-12 1h1m6 0h1m-6 1h1m4 0h1m4 0h1m-22 1h1m15 0h1m4 0h1m-35 1h1m12 0h1m15 0h1m5 1h1m-28 1h1m13 0h1m12 0h1m-24 1h1m6 0h1m8 0h1m3 0h1m2 0h1m-27 1h1m2 0h1m7 0h1m10 0h1m3 0h1m-27 1h1m21 0h1m3 0h1m-27 1h1m23 0h1m1 0h1m-12 1h1m5 0h1m-9 2h1m4 0h1m4 0h1m1 0h1m-12 1h2m8 0h1"/><path stroke="#7372bd" d="M386 45h1m13 0h1m8 47h1m-27 12h1m27 94h1m21 0h1"/><path stroke="#fcbcbd" d="M387 45h1m11 0h1m-17 1h1m-3 1h1m23 0h1m-27 1h1m28 1h1m-33 1h1m-2 1h1m35 0h1m-38 1h1m37 0h1m-40 1h1m39 0h1m-42 1h1m-2 1h1m43 1h1m-46 1h1m47 5h1m-52 1h1m-2 3h1m-4 11h1m54 0h1m-58 1h1m0 1h1m1 0h1m52 1h1m-52 1h1m-1 3h1m3 4h1m40 0h1m-46 1h1m5 1h1m37 0h1m-36 1h1m33 0h1m-34 1h1m41 0h1m-11 1h1m3 0h1m-1 1h1m-32 5h1m28 0h1m9 0h1m-44 1h1m32 0h1m-27 1h1m-2 4h1m-3 4h1m-4 1h1m-4 3h1m-11 11h1m21 3h1m38 11h1m-8 4h1m7 1h1m-4 2h1m1 2h1m-4 2h1m1 1h1m-4 2h1m1 0h1m-4 3h1m1 0h1m-2 2h1m-22 1h1m14 0h1m4 0h1m-1 1h1m-1 5h1m0 4h1m-27 2h1m18 1h1m8 3h1m-5 2h1m2 0h1m2 1h1m-8 1h1m7 0h1m-1 1h2m-11 1h1m6 0h1m2 0h1m-3 1h1m-10 1h1m-2 2h1m14 0h1m-1 1h1m-6 3h1m5 0h1m-7 1h1m6 0h1m-8 2h1m7 0h1m-10 1h1m9 1h1m0 3h1m-26 1h1m21 0h1m-21 2h1m-2 1h1m17 0h1m1 0h1m3 0h1m-8 1h1m-2 1h1m2 0h1m-6 1h1"/><path stroke="#fabbbd" d="M388 45h11m-15 1h3m13 0h2m-20 1h1m20 0h2m-25 1h1m-10 8h1m-2 2h1m46 3h1m-50 1h1m49 1h1m-52 1h1m50 0h1m-52 1h1m50 0h1m-1 1h1m-53 1h1m51 0h1m-53 1h1m51 0h1m-53 1h1m51 0h1m-53 1h1m51 0h1m-1 1h1m-1 1h1m-54 1h1m52 0h1m-54 1h1m53 0h2m-56 1h1m-4 3h1m54 0h1m-55 1h1m3 0h1m49 0h1m-51 1h1m48 1h1m-51 1h1m-1 1h1m0 2h1m-1 1h1m-1 1h1m3 0h1m44 0h1m-50 1h1m1 0h1m2 0h1m43 0h1m-45 1h1m37 0h1m2 0h1m-40 1h1m38 0h1m3 0h1m-1 1h1m-10 1h1m-32 1h1m36 0h1m3 0h1m-42 1h1m29 0h1m6 0h1m3 0h1m-12 1h1m6 0h1m-1 1h1m-35 1h1m33 0h1m4 0h1m-43 1h1m2 0h1m25 0h1m7 0h1m4 0h1m-43 1h1m28 0h1m7 0h1m-34 1h1m24 0h1m7 0h1m5 0h1m-42 1h1m1 0h1m38 0h1m-42 1h1m1 0h1m2 0h1m-6 1h1m1 0h1m2 0h1m6 0h1m-13 1h1m1 0h1m2 0h1m6 0h1m-13 1h1m1 0h1m-3 1h1m1 0h1m1 0h1m-5 1h1m1 0h1m1 0h1m-5 1h1m1 0h1m1 0h1m-5 1h1m3 0h1m-4 1h1m-5 3h1m-7 6h1m-5 4h1m-2 2h1m-1 1h1m-1 1h1m24 2h1m-1 1h1m2 0h1m-4 1h1m1 0h1m-3 1h1m-1 1h2m-2 1h1m36 5h1m-1 1h1m-3 1h1m1 0h1m-3 1h1m1 0h1m-9 1h1m5 0h1m-7 1h1m5 0h2m-8 1h1m6 0h1m-8 1h1m4 0h1m1 0h1m-8 1h1m4 0h1m-21 1h1m14 0h1m4 0h2m-7 1h1m5 0h1m-7 1h1m3 0h1m-22 1h1m16 0h1m3 0h2m-6 1h1m-19 1h1m17 0h1m2 0h2m-23 1h1m17 0h1m2 0h2m-23 1h1m17 0h1m-19 1h1m14 0h1m2 0h1m1 0h2m-22 1h1m14 0h1m2 0h1m1 0h1m-3 1h1m-18 1h1m14 0h1m2 0h1m-19 1h1m14 0h1m2 0h1m-19 1h1m14 0h1m2 0h1m-19 1h1m14 0h1m2 0h1m-4 1h1m2 0h1m-4 1h1m-1 1h1m3 0h1m-1 1h1m-1 1h1m-6 1h1m-5 1h1m3 0h1m5 0h1m-11 1h1m3 0h1m5 0h1m-27 1h1m15 0h1m9 0h1m-27 1h2m14 0h1m2 0h1m-20 1h2m14 0h1m8 0h3m-28 1h2m14 0h1m7 0h1m2 0h1m-28 1h2m14 0h1m1 0h1m5 0h1m2 0h1m-28 1h2m15 0h1m-18 1h2m21 0h1m4 0h1m1 1h1m-9 1h1m-2 2h1m7 0h1m-19 2h1m8 0h1m-10 1h1m-1 1h1m7 0h1m-9 1h1m-1 1h1m-1 1h1m-1 1h1m24 0h1m-1 1h2m-2 1h1m-1 1h1m1 0h1m-3 1h1m-1 1h1m2 0h1m-4 1h1m-20 1h1m18 0h2m1 0h1m-23 1h1m21 0h2m-25 1h2m18 0h1m3 0h1m-25 1h1m18 0h2m-2 2h1m-4 2h1"/><path stroke="#6b68b7" d="M403 45h1m-36 13h1m51 9h1m-1 1h1m-3 20h1m-47 4h1m1 14h1m-10 15h1m-12 17h1m70 15h1m-2 18h1m7 12h1m-18 13h1m6 0h1m14 6h1m-4 1h1m-131 7h1m39 12h1m-3 1h1m-3 1h1m69 7h1m-15 5h1"/><path stroke="#6464b7" d="M382 46h1m-3 1h1m25 0h1m-37 9h1m46 2h1m0 3h1m0 16h1m-2 1h1m-2 3h1m-7 8h1m6 2h1m-44 1h1m0 1h1m31 1h1m4 0h1m-1 1h1m-2 1h1m-32 2h1m38 0h1m-37 2h1m-3 5h1m-1 1h1m-1 1h1m-1 1h1m-5 1h1m-14 14h1m58 21h1m2 0h1m-5 4h1m2 0h1m-5 3h1m2 0h1m-5 3h1m-2 1h1m-1 1h1m2 0h1m-4 1h1m1 1h1m-7 1h1m4 1h1m-1 3h1m0 4h1m-8 3h1m8 3h1m-4 1h2m3 2h1m-7 1h1m2 0h1m-5 2h1m4 1h1m1 0h1m2 0h1m-12 1h1m-2 2h1m15 5h1m0 2h1m-9 2h1m8 0h1m0 3h1m-3 2h1m-5 2h1m4 1h1m-4 1h1m-6 1h1"/><path stroke="#f9babd" d="M387 46h13m-17 1h20m-22 1h25m-27 1h29m-30 1h31m-33 1h34m-35 1h37m-38 1h39m-40 1h40m-41 1h42m-42 1h43m-44 1h44m-44 1h45m-46 1h47m-47 1h47m-48 1h21m1 0h26m-48 1h20m3 0h26m-50 1h21m3 0h2m1 0h23m-50 1h20m4 0h1m3 0h22m-50 1h19m6 0h1m2 0h22m-51 1h20m6 0h1m3 0h21m-51 1h12m1 0h7m10 0h21m-51 1h11m3 0h6m10 0h21m-51 1h11m4 0h5m11 0h20m-51 1h11m5 0h3m12 0h4m1 0h15m-51 1h11m6 0h2m12 0h4m1 0h15m-52 1h12m6 0h2m13 0h3m1 0h15m-52 1h11m8 0h1m13 0h3m1 0h1m1 0h13m-52 1h8m1 0h1m9 0h2m12 0h1m2 0h1m3 0h13m-53 1h7m13 0h1m19 0h14m-55 1h9m1 0h1m30 0h13m-55 1h2m1 0h8m30 0h13m-55 1h2m3 0h6m32 0h11m-49 1h6m33 0h10m-49 1h7m33 0h9m-50 1h8m33 0h8m-49 1h9m31 0h9m-49 1h9m31 0h8m-48 1h9m31 0h8m-47 1h8m30 0h8m-46 1h8m30 0h7m-45 1h3m1 0h4m29 0h7m3 0h1m-48 1h1m4 0h4m28 0h6m3 0h2m-49 1h1m5 0h4m29 0h4m4 0h3m-44 1h1m1 0h3m27 0h5m4 0h3m-41 1h1m28 0h4m5 0h3m-12 1h3m6 0h4m-14 1h4m7 0h3m-14 1h3m8 0h3m-40 1h1m26 0h2m8 0h4m-41 1h2m24 0h3m8 0h4m-41 1h2m24 0h3m8 0h4m-41 1h2m23 0h3m9 0h4m-41 1h3m22 0h3m9 0h5m-41 1h2m22 0h3m9 0h5m-43 1h1m2 0h1m4 0h2m15 0h4m13 0h1m-40 1h1m4 0h4m13 0h4m-26 1h1m4 0h6m11 0h3m-29 1h1m3 0h1m4 0h6m10 0h4m-29 1h1m3 0h1m3 0h7m10 0h4m-29 1h1m3 0h1m3 0h6m10 0h4m-24 1h1m3 0h5m10 0h5m-24 1h1m3 0h3m11 0h5m-23 1h1m3 0h1m11 0h7m-24 1h1m15 0h7m-24 1h2m14 0h6m-22 1h1m15 0h5m-22 1h2m14 0h1m2 0h1m-22 1h2m-3 1h2m15 1h1m-1 1h2m-3 1h3m-4 1h4m-24 1h3m17 0h4m-25 1h3m17 0h6m-27 1h4m17 0h6m-27 1h3m18 0h6m-28 1h3m19 0h6m-28 1h2m21 0h5m-28 1h1m23 0h4m-28 1h1m23 0h4m-3 1h3m-3 1h3m-3 1h2m-2 1h1m-1 1h1m34 7h1m-1 1h1m-1 1h1m-1 1h1m-1 1h1m-2 2h1m-8 1h1m6 0h1m-8 1h1m6 0h1m-8 1h1m-15 1h1m12 0h2m5 0h1m-22 1h2m12 0h2m5 0h1m-22 1h2m12 0h2m-17 1h2m12 0h3m4 0h1m-22 1h2m12 0h3m-17 1h2m12 0h3m-17 1h2m13 0h2m3 0h1m-21 1h2m13 0h2m-17 1h2m13 0h2m-17 1h1m14 0h2m-1 1h2m-2 1h2m-2 1h2m-2 1h2m-2 1h2m-2 1h3m-3 1h3m-4 1h4m-4 1h4m-4 1h5m-5 1h5m-5 1h5m-6 1h6m-6 1h7m-12 1h1m3 0h6m-10 1h1m3 0h5m-9 1h1m3 0h5m4 0h1m-15 1h3m1 0h6m4 0h1m-15 1h9m6 0h1m-29 1h1m11 0h10m6 0h1m-17 1h9m-10 1h10m-10 1h9m-10 1h10m-9 1h8m-8 1h8m-8 1h7m-7 1h6m-6 1h4m-4 1h2m23 3h1m-1 1h1m-1 1h2m-2 1h1m-22 2h1m-1 1h1m18 3h1m-2 1h1m-2 1h2"/><path stroke="#fbbcbd" d="M402 46h1m-34 13h1m47 30h1m-52 33h1m60 16h1m-5 34h1m-10 23h1"/><path stroke="#9184be" d="M403 46h1m-35 12h1m47 30h1m-49 1h1m6 23h1m46 59h1m-10 25h1"/><path stroke="#6766b7" d="M404 46h1m12 41h1m-48 2h1m4 23h1m48 42h1m-2 16h1m6 16h1m-6 2h1m-3 7h1m0 1h1m-11 1h1"/><path stroke="#6b67b7" d="M377 48h1m39 9h1m2 14h1m-10 20h1m-2 4h1m-28 4h1m-9 6h1m-18 14h1m39 51h1m4 20h1m20 0h1m-2 4h1m2 0h1m3 3h1m-12 2h1m-2 1h1m1 0h1m-7 1h1m4 0h1m15 1h1m0 1h1m-33 2h1m24 0h1m-2 1h1m-70 20h1m75 9h1m0 1h1"/><path stroke="#6364b7" d="M378 48h1m30 1h1m-35 1h1m-2 1h1m37 0h1m-40 1h1m39 0h1m-42 1h1m-2 1h1m43 1h1m-44 36h1m37 0h1m2 83h1m13 3h1m0 1h1m-16 22h1m15 0h1m-2 1h1m-4 2h1"/><path stroke="#fbbbbd" d="M406 48h1m-29 1h1m30 1h1m4 5h1m1 3h1m0 2h1m-50 1h1m-4 11h1m55 2h1m-3 2h1m-55 2h1m50 8h1m-49 3h1m-2 1h1m44 2h1m-36 3h1m29 1h1m11 0h1m-43 1h1m-1 15h1m-10 8h1m-2 1h1m57 19h1m-10 27h1m-5 1h1m-16 3h1m16 3h1m10 2h1m-2 2h1m0 1h1m2 2h1m-4 1h1m5 4h1m0 1h1m-7 3h1m-2 1h1m9 4h1m-25 1h1m19 2h1m3 0h1m0 1h1m-10 4h1m1 0h1m-4 1h1"/><path stroke="#d7a5ba" d="M407 48h1m11 47h1m-13 2h1m-31 14h1m47 28h1m-10 27h1m-3 7h1m10 2h1m6 11h1m-2 1h1m-2 16h1"/><path stroke="#6565b7" d="M408 48h1m-40 43h1m49 3h1m-10 3h1m-4 1h1m3 0h1m-35 12h1m38 55h1m-3 7h1m-2 1h1m11 1h1m6 11h1m-2 3h1m-20 14h1m18 1h1"/><path stroke="#6665b7" d="M376 49h1m34 1h1m2 3h1m1 3h1m-5 34h1m-2 4h1m3 62h1m9 33h1m-2 4h1m0 2h1m5 1h1"/><path stroke="#ad9ac0" d="M377 49h1m32 1h1m3 4h1m1 3h1m-49 3h1m-4 11h1m55 4h1m-10 16h1m-2 4h1m-45 25h1m47 35h1m-19 15h1m27 20h1m5 7h1"/><path stroke="#fababd" d="M377 50h1m32 1h1m2 3h1m1 3h1m-47 3h1m-4 11h1m53 4h1m-55 2h1m0 1h1m45 13h1m-29 9h1m5 2h1m-1 3h1m23 49h1m0 1h1m-5 7h1m-1 1h1m-16 16h1m-1 1h1m16 6h2m-4 1h2m-4 1h2m-4 1h2m24 5h1m-23 1h2m19 0h1m-2 2h1"/><path stroke="#efb7bd" d="M417 59h1m3 14h1m-58 3h1m55 0h1m-49 40h1m51 63h1m2 25h1"/><path stroke="#f9b9bd" d="M390 61h1m-2 1h1m1 0h1m-3 1h1m1 0h1m2 0h1m-6 1h1m1 0h1m1 0h1m1 0h1m-9 1h1m1 0h1m2 0h1m1 0h2m-9 1h1m1 0h1m4 0h1m1 0h1m-18 1h1m7 0h1m1 0h1m3 0h2m1 0h1m-19 1h1m8 0h1m5 0h2m1 0h1m-19 1h1m2 0h1m5 0h1m6 0h1m2 0h1m-20 1h1m2 0h2m3 0h1m7 0h1m2 0h1m-20 1h1m2 0h1m1 0h1m2 0h1m7 0h1m-12 1h1m2 0h1m7 0h1m3 0h1m-15 1h1m1 0h1m11 0h1m5 0h1m-31 1h1m1 0h1m23 0h2m1 0h1m1 0h1m-33 1h1m1 0h2m8 0h1m1 0h1m14 0h2m1 0h1m-30 1h1m9 0h2m11 0h1m2 0h1m2 0h1m-31 1h2m-3 1h1m1 0h1m27 0h2m-32 1h1m29 0h1m2 1h1m-33 1h1m31 0h1m-32 1h1m29 0h1m-31 1h1m29 0h1m-31 1h1m29 0h1m-31 1h1m28 0h1m-30 1h1m28 0h1m-30 1h1m0 2h1m27 0h1m-2 1h1m-28 1h1m26 0h1m-28 1h1m26 0h1m-27 1h1m24 0h1m-26 1h1m24 0h1m-25 1h1m24 0h1m-25 1h1m22 0h1m-1 1h1m-2 1h1m-1 1h1m-1 1h1m-16 1h2m12 0h1m-13 1h2m10 0h1m-4 1h1m2 0h1m-4 1h1m1 0h1m-3 1h1m1 0h1m-11 1h1m8 0h1m-2 1h1m-2 1h1m-3 1h1m-2 1h1m-2 1h1m6 0h1m17 31h1m-1 1h1m-1 1h1m-1 1h1m-14 2h1m11 0h1m-13 1h1m11 0h1m-13 1h1m10 0h1m-12 1h1m10 0h1m-1 1h1m-13 1h1m10 0h1m-12 1h1m10 0h1m-12 1h1m-1 1h1m-1 1h1m-1 1h1m-2 1h1m-1 1h1m-1 1h1m-1 1h1m-1 1h1m7 5h1m-1 1h1m-1 1h1m-1 1h1m-1 1h1m-1 1h1m-2 1h1m-1 1h1m-1 1h1m-2 1h1m-1 1h1m-2 1h1m-1 1h1m-2 2h1"/><path stroke="#ffe4cd" d="M390 62h1m-3 3h1m6 1h1m-14 5h1m-8 7h1m-1 1h1m29 0h1m-30 2h1m29 0h1m-26 15h1m0 1h1m19 0h1m-2 1h1m-17 1h1m-30 11h1m0 3h1m-1 3h1m-16 5h1m13 2h1m-2 1h1m-2 1h1m54 5h1m-60 1h1m0 3h1m-8 2h1m7 0h1m-8 4h1m8 1h1m63 0h1m-64 2h1m-10 1h1m9 1h1m0 2h1m-11 1h1m10 1h1m-11 2h1m0 3h1m0 3h1m0 3h1m60 1h1m-61 1h1m0 1h1m0 1h1m0 1h1m44 7h1m0 19h1m-73 4h1m-3 1h1m55 0h1m-59 1h1m76 0h1m-80 1h1m82 0h1m-86 1h1m-3 1h1m83 0h1m-87 1h1m-3 1h1m-2 1h1m89 0h2m-94 1h1m-2 1h1m50 0h1m-55 2h1m-2 1h1m-4 4h1m-2 1h1m-2 1h1m-2 1h1m57 1h1m-10 2h1m-3 1h1m-49 2h1m40 1h1m17 0h1m-21 1h1m-39 1h1m35 0h1m-36 1h1m32 0h1m-33 1h1m28 0h1m-29 1h1m1 1h1m17 0h1m-17 1h1m14 0h1m38 0h1m-53 1h1m10 0h1m42 2h1m2 2h1m0 1h1m0 1h1m0 1h1m19 0h1m-20 1h1m15 0h1m-13 2h1m4 0h1"/><path stroke="#ffe3cc" d="M390 63h1m-1 1h1m-1 1h2m-4 1h1m1 0h2m-4 1h1m1 0h1m4 0h1m-8 1h1m1 0h1m1 0h1m2 0h1m-17 1h2m7 0h1m6 0h2m-18 1h2m6 0h1m5 0h1m1 0h2m-18 1h2m6 0h1m5 0h1m1 0h1m-17 1h2m1 0h1m4 0h1m5 0h1m1 0h1m1 0h1m-17 1h1m1 0h1m3 0h1m5 0h1m1 0h1m1 0h1m-15 1h1m4 0h1m8 0h1m-21 1h1m6 0h1m3 0h1m11 0h1m3 0h1m-28 1h1m7 0h1m2 0h1m9 0h1m1 0h2m-25 1h1m8 0h1m11 0h1m1 0h2m-25 1h1m9 0h1m11 0h1m1 0h1m1 0h1m-27 1h1m24 0h2m-1 1h1m-26 1h1m25 0h1m-28 1h1m24 0h1m1 0h2m-4 1h2m1 0h1m-29 1h1m23 0h1m1 0h1m1 0h1m-29 1h1m24 0h1m1 0h1m-28 1h1m26 0h1m-28 1h1m25 0h1m-26 2h1m24 1h1m-26 1h1m24 0h1m-26 1h1m0 1h1m22 0h1m-24 1h1m0 1h1m20 0h1m-2 1h1m-18 1h1m16 0h1m-2 1h1m-14 1h1m14 0h1m-15 1h2m9 0h1m1 0h2m-13 1h5m4 0h1m1 0h1m-7 1h1m2 0h1m1 0h2m-7 1h1m2 0h1m1 0h2m-4 1h1m1 0h1m-3 1h1m-2 2h1m-2 1h1m-2 1h1m-43 1h1m1 0h2m37 0h1m-44 1h2m4 0h1m-9 1h2m6 0h1m-11 1h2m-4 1h2m11 0h1m-14 1h1m12 0h1m-14 1h1m-1 1h1m11 0h1m-13 1h1m11 1h1m-14 1h1m12 0h1m-15 2h1m13 0h1m-15 1h1m-1 1h1m-1 1h1m8 0h3m-12 1h1m71 0h5m-77 1h1m6 0h1m62 0h1m7 0h1m-79 1h1m6 0h1m71 0h1m-80 1h1m6 0h1m60 0h1m10 0h1m-73 1h1m-7 1h1m65 0h1m-67 1h1m6 0h1m58 0h1m10 0h1m-71 1h1m58 0h1m10 0h1m-77 1h1m64 0h1m-66 1h1m6 0h1m67 0h1m-12 1h1m10 0h1m-75 1h1m6 0h1m55 0h1m10 0h1m-75 1h1m6 0h1m55 0h1m-64 1h1m62 0h1m9 0h1m-66 1h1m64 0h1m-73 1h1m60 0h1m-62 1h1m7 0h1m52 0h1m9 0h1m-72 1h1m60 0h1m9 0h1m-63 1h1m51 0h1m9 0h1m-71 1h1m-1 1h1m8 0h1m49 0h1m9 0h1m-70 1h1m58 0h1m9 0h1m-60 1h1m48 0h1m9 0h1m-69 1h1m57 0h1m8 0h1m-68 1h1m9 0h1m47 0h1m8 0h1m-1 1h1m-67 1h1m9 0h1m45 0h1m8 0h1m-66 1h1m55 0h1m8 0h1m-57 1h1m46 0h1m-56 1h1m7 0h1m46 0h1m7 0h1m-64 1h1m7 0h1m46 0h1m7 0h1m-56 1h1m46 0h1m7 0h1m-63 1h1m6 0h1m-8 1h1m6 0h1m45 0h1m7 0h1m-9 1h1m7 0h1m-61 1h1m4 0h1m46 0h1m-48 1h1m46 0h1m6 0h1m-55 1h1m53 0h1m-9 1h1m7 0h1m-56 1h1m46 0h1m7 0h1m-9 1h1m6 1h1m-9 1h1m7 0h1m-1 1h1m-10 1h1m8 0h1m-10 1h1m8 0h1m-1 1h1m-11 1h1m8 0h1m-10 1h1m8 0h1m-1 1h1m-11 1h1m8 0h1m-10 1h1m8 0h1m-2 1h1m-10 1h1m8 0h1m-10 1h1m-1 1h1m7 0h1m-10 2h1m7 0h1m-9 1h1m6 1h1m-7 1h1m4 1h1m-5 1h1m0 2h2m-74 6h1m-3 1h1m3 0h1m53 0h1m-61 1h1m-3 1h1m83 0h1m-87 1h1m85 0h1m-89 1h1m85 0h1m-89 1h1m88 0h1m-93 2h1m49 0h1m32 1h1m-91 5h1m90 0h1m-37 1h1m-21 1h1m55 0h1m-53 3h1m-45 1h1m-1 1h1m47 1h1m9 0h1m-13 1h1m11 0h1m-60 1h1m43 0h1m14 0h1m-18 1h1m16 0h1m-59 1h1m38 0h1m-40 1h1m36 0h1m21 0h1m-25 1h1m23 0h1m-28 1h2m-6 1h3m29 0h1m-57 1h1m19 0h2m34 0h1m-55 1h1m1 1h1m12 0h1m-12 1h10m42 0h1m1 2h1m30 2h1m-3 1h1m-4 1h1m-4 1h2m-5 1h2m-13 1h1m6 0h3m-8 1h4"/><path stroke="#f9b9be" d="M388 64h1m-5 10h1m2 0h1m18 5h1m-21 21h1m9 8h1"/><path stroke="#fddfcf" d="M394 64h1m-21 11h1m28 20h1"/><path stroke="#f9b9bc" d="M392 66h1m-13 2h1m-3 4h1m-2 1h1m16 0h1m3 1h1m0 1h1m3 1h1m-2 1h1m1 0h1m-30 3h1m30 21h1m7 0h5m-14 2h1m-1 1h1m-2 2h1m-18 2h1m15 0h1m-19 1h1m-3 1h1m9 2h1m3 1h1m19 33h1"/><path stroke="#7674bd" d="M419 66h1"/><path stroke="#ffe2cc" d="M391 67h1m-1 1h1m-2 1h3m-5 1h5m-5 1h5m3 0h1m-9 1h5m3 0h1m-18 1h2m1 0h1m5 0h5m3 0h1m-19 1h4m7 0h5m1 0h2m-19 1h4m1 0h1m5 0h5m1 0h3m-20 1h7m4 0h5m1 0h3m-20 1h1m1 0h6m3 0h5m1 0h3m-20 1h1m1 0h7m1 0h11m1 0h1m-23 1h24m-24 1h23m1 0h1m-24 1h24m-25 1h24m-24 1h24m2 0h1m-27 1h23m3 0h1m-27 1h24m1 0h1m-26 1h26m-26 1h25m-25 1h26m-25 1h25m-25 1h24m-24 1h24m-24 1h24m-23 1h22m-22 1h22m-21 1h20m-19 1h18m-16 1h16m-15 1h14m-12 1h12m-10 1h9m-4 1h4m-3 1h2m-2 1h2m-2 1h2m-2 1h2m-2 1h3m-3 1h1m-2 1h1m-2 1h1m-41 1h1m38 0h1m-41 1h4m35 0h1m-42 1h6m-8 1h9m-11 1h11m-12 1h12m-12 1h12m-12 1h11m-11 1h12m-13 1h12m-12 1h12m-13 1h14m-14 1h13m-13 1h13m-13 1h12m-12 1h8m-8 1h7m-7 1h6m64 0h7m-77 1h6m62 0h10m-78 1h6m62 0h10m-78 1h6m61 0h11m-77 1h6m60 0h11m-77 1h6m60 0h10m-77 1h7m60 0h10m-75 1h6m59 0h10m-75 1h6m58 0h10m-74 1h7m57 0h10m-73 1h6m57 0h10m-73 1h6m57 0h10m-73 1h7m56 0h9m-72 1h7m55 0h10m-71 1h7m54 0h10m-71 1h7m54 0h9m-70 1h8m53 0h9m-70 1h8m53 0h9m-69 1h8m51 0h10m-69 1h8m51 0h9m-68 1h9m50 0h9m-68 1h9m50 0h9m-67 1h9m49 0h8m-66 1h9m49 0h8m-66 1h10m47 0h9m-65 1h9m47 0h8m-64 1h9m47 0h8m-64 1h8m48 0h8m-63 1h7m48 0h7m-62 1h7m48 0h7m-62 1h7m48 0h7m-61 1h6m47 0h9m-62 1h6m47 0h7m-60 1h6m47 0h7m-59 1h4m48 0h7m-59 1h4m48 0h6m-57 1h3m47 0h7m-56 1h2m47 0h7m-7 1h7m-7 1h7m-8 1h7m-7 1h7m-9 1h9m-8 1h8m-8 1h8m-9 1h9m-9 1h8m-8 1h8m-9 1h9m-9 1h8m-8 1h8m-9 1h8m-8 1h8m-8 1h8m-8 1h7m-8 1h8m-8 1h7m-7 1h7m-7 1h6m-5 1h5m-5 1h4m-3 1h3m-3 1h2m-73 7h1m44 0h7m-54 1h3m42 0h12m-59 1h6m41 0h14m17 0h1m-81 1h8m41 0h14m18 0h1m-84 1h11m39 0h16m17 0h2m-87 1h14m37 0h20m15 0h1m-89 1h16m35 0h26m-79 1h19m30 0h1m1 0h29m-81 1h22m28 0h32m-84 1h24m27 0h33m-85 1h26m26 0h34m-88 1h28m26 0h34m-89 1h30m24 0h35m-90 1h31m24 0h35m-90 1h32m23 0h35m-91 1h34m22 0h35m-92 1h36m20 0h36m-93 1h39m18 0h35m-93 1h41m17 0h34m-93 1h43m2 0h1m13 0h34m-93 1h47m11 0h34m-92 1h48m9 0h34m-92 1h48m11 0h34m-93 1h46m13 0h35m-94 1h43m16 0h35m-94 1h41m18 0h36m-94 1h38m20 0h37m-95 1h36m23 0h36m-95 1h34m25 0h37m-95 1h30m28 0h37m-94 1h25m33 0h37m-93 1h19m37 0h37m-91 1h16m37 0h38m-89 1h12m41 0h37m-36 1h35m-36 1h36m-33 1h33m-32 1h31m-30 1h28m-27 1h25m-24 1h21m-20 1h17m-16 1h13m-10 1h6"/><path stroke="#fddecf" d="M392 67h1m-14 1h1m-2 5h1m-2 1h1m26 0h1m-7 1h1m5 1h1m-2 1h1m-28 3h1m20 27h1m19 38h1"/><path stroke="#8b76b6" d="M419 67h1m-1 1h1"/><path stroke="#f9b8bc" d="M389 68h1m-9 4h1m5 5h1m11 0h1m2 1h1m-27 1h1m27 1h1m-28 1h1m24 14h1m-2 1h1m-1 1h1m-2 1h1m-2 2h1m-2 2h1m-10 5h1m9 5h1"/><path stroke="#ffe0cb" d="M389 69h1m-8 6h1m11 1h1m-16 2h1m23 3h1"/><path stroke="#fac2c0" d="M393 69h1m3 2h1m7 9h1m-29 8h1m26 0h1m-3 6h1m2 57h1m5 15h1m-5 14h1"/><path stroke="#f9babe" d="M402 70h1"/><path stroke="#fac3c0" d="M402 71h1m-1 1h1m-1 1h1m-29 3h1m27 20h1m-5 10h1m7 39h1"/><path stroke="#9284be" d="M419 72h1m-7 129h1"/><path stroke="#b19cc0" d="M420 72h1"/><path stroke="#fdbdbd" d="M422 73h1m-63 5h1m50 19h1m-36 6h1m-2 5h1m49 96h1"/><path stroke="#fdddce" d="M382 74h1m11 1h1m-1 2h1m-18 6h1"/><path stroke="#fac2bf" d="M394 74h1m-7 3h1m-12 3h1m0 10h1"/><path stroke="#ffe1cb" d="M401 75h1m1 17h1m-5 7h1m4 59h1m-2 5h1"/><path stroke="#fac1bf" d="M379 77h1m21 3h1"/><path stroke="#aa99c0" d="M366 78h1m67 117h1"/><path stroke="#ffe3cd" d="M406 80h1m-3 9h1m-30 106h5m-50 1h1m42 0h1m7 0h2m2 1h1m-15 1h1m14 0h1m-56 1h1m39 0h1m14 0h1m16 0h1m1 0h1m-19 1h2m-20 1h1m20 0h3m-60 1h1m33 0h1m26 0h1m9 0h1m-71 1h1m28 0h1m1 0h1m29 0h1m-60 2h1m25 1h1m-26 1h1m24 0h1m34 0h1m-1 1h1m-60 1h1m22 0h1m35 0h1m-37 1h1m35 1h1m-38 2h1m-1 1h1m34 0h1m-50 1h1m1 0h1m11 0h1m-12 1h1m0 1h1"/><path stroke="#f9b8bd" d="M405 81h1m-6 18h1m-2 2h1"/><path stroke="#f9b7bc" d="M403 82h1m-2 2h1"/><path stroke="#fbbcbe" d="M416 82h1m-5 5h1m0 1h1m-27 38h1m-22 4h1m27 1h1"/><path stroke="#f9bbbe" d="M415 83h1m-22 30h2m-22 3h1m17 0h1m0 1h1m-1 1h1m-23 1h1m21 0h1m-6 1h1m4 0h1m-23 1h1m-1 1h1m15 0h1m6 0h1m-25 1h1m16 0h1m6 0h1m-8 1h1m6 0h1m-1 1h1m-28 1h1m21 0h1m4 0h1m-1 1h1m-5 1h1m3 0h1m-1 1h1m-1 1h1"/><path stroke="#da5171" d="M416 83h1"/><path stroke="#6968b8" d="M417 83h1m-1 1h1"/><path stroke="#fabcbf" d="M415 84h1m-2 1h1m-2 1h1m0 1h1m-38 27h1m-2 1h1m-2 1h1m17 0h1m-5 2h1m-18 1h1m15 0h1m-17 1h1m14 1h1m6 0h1m-24 2h1m-3 1h1m-2 1h1m-2 2h1m21 0h1"/><path stroke="#d54165" d="M416 84h1"/><path stroke="#febdbd" d="M365 85h1m2 6h1m55 104h1"/><path stroke="#d33963" d="M415 85h1m-2 1h1"/><path stroke="#fbbdbf" d="M416 85h1"/><path stroke="#6c66b7" d="M348 86h3m0 1h1m-7 1h1m5 0h1m-1 1h1m-10 1h1m8 0h1m-11 1h1m9 0h1m-11 1h1m-1 1h1m10 0h1m-12 1h1m10 0h1m-1 1h1m-11 1h1m9 0h1m-11 1h1m-1 1h1m10 0h1m-12 1h1m10 0h1m-1 1h1m-11 1h1m9 0h1m-11 1h1m9 0h1m-11 1h1m10 1h1m-1 1h1m-1 1h1m-13 2h1m11 0h1m-13 1h1m0 2h1"/><path stroke="#edb7bf" d="M415 86h1m-26 30h1"/><path stroke="#6c64b7" d="M347 87h1m-4 2h1m-3 6h1m9 2h1m0 6h1m-11 1h1m-1 6h1"/><path stroke="#5fbebb" d="M348 87h1m-2 1h1m-3 1h1m-2 1h1m-3 1h1m8 2h1m-10 1h1m9 4h1m-10 1h1m9 5h1m-11 1h1m9 1h1m-1 2h1m-11 1h1m0 2h1"/><path stroke="#5fbdbb" d="M349 87h1m0 1h1m-5 1h1m3 0h1m-1 1h1m-8 1h1m6 0h1m-9 1h1m7 0h1m-9 1h1m8 1h1m-9 1h1m7 0h1m-9 1h1m7 0h1m-9 1h1m7 0h1m-9 1h1m8 1h1m-9 1h1m7 0h1m-9 1h1m7 0h1m-9 1h1m7 0h1m-9 1h1m7 0h1m-9 1h1m8 1h1m-11 1h1m-1 1h1m8 0h1m-9 3h1m0 2h1"/><path stroke="#61b0bb" d="M350 87h1"/><path stroke="#f9b8be" d="M404 87h1"/><path stroke="#d84c6f" d="M413 87h1"/><path stroke="#706bb7" d="M346 88h1m-4 2h1m7 2h1m-9 8h1"/><path stroke="#5fbcbb" d="M348 88h2m-3 1h3m-5 1h5m-6 1h6m-7 1h7m-7 1h8m-8 1h8m-7 1h7m-7 1h7m-7 1h7m-7 1h8m-8 1h8m-7 1h7m-7 1h7m-7 1h7m-7 1h7m-11 1h2m2 0h8m-12 1h2m1 0h9m-11 1h1m1 0h9m-11 1h1m1 0h8m-9 1h10m-9 1h8m-7 1h4m-4 1h3"/><path stroke="#6f71bd" d="M371 88h1"/><path stroke="#5f62b7" d="M412 88h1m-39 3h1m7 18h1m37 49h1m5 21h1"/><path stroke="#6967b7" d="M364 89h1m-2 1h1m6 2h1m-2 1h1m5 0h1m-2 1h1m45 1h1m-45 1h1m31 1h1m0 1h1m3 67h1m1 1h1m10 9h1m6 11h1m-4 1h1m-17 15h1m-2 1h1m16 1h1"/><path stroke="#d9a6ba" d="M364 90h1m45 8h1"/><path stroke="#fdbcbd" d="M365 90h1m7 1h1m37 5h1m-37 11h1m49 86h1m10 8h1"/><path stroke="#d5a4ba" d="M366 90h1m1 0h1m8 6h1m0 4h1"/><path stroke="#6966b7" d="M369 90h1m4 2h1m-2 1h1m2 18h1m-35 7h1m8 9h1m49 39h1m31 16h1m-5 3h1m4 14h1m-70 35h1"/><path stroke="#daa7ba" d="M369 92h1m4 1h1"/><path stroke="#9385be" d="M373 92h1m1 14h1m60 96h1"/><path stroke="#eeb6bd" d="M413 92h1m-49 36h1m46 38h1m-1 1h1"/><path stroke="#6062b7" d="M413 93h1"/><path stroke="#f0b7bd" d="M412 95h1m-1 106h1"/><path stroke="#5e5fb6" d="M381 97h1"/><path stroke="#6664b7" d="M382 98h1m41 84h1m-19 8h1m-5 1h1m2 13h1m-46 23h1"/><path stroke="#ac98c0" d="M383 98h1m18 92h1m-43 36h1"/><path stroke="#ffe4cc" d="M384 98h1m-42 21h1m6 7h1m62 0h1m-3 1h1m9 0h1m-12 1h1m10 2h1m-14 5h1m-56 4h1m53 1h1m-49 11h1m-1 2h1m54 1h1m-57 6h1m-2 4h1m44 3h1m-6 15h1m-1 3h1m0 2h1m3 2h1m-3 2h1m-91 15h1m-6 5h1m52 6h1m-59 2h1m44 1h1m-3 1h1m16 4h1m-34 2h1m38 6h1m28 2h1m-4 1h1m-20 3h1"/><path stroke="#6361b6" d="M384 99h1m8 3h1m-37 10h1m-16 8h1m14 2h1m-2 2h1m-2 1h1m-6 2h1m-1 3h1m-8 4h1m8 1h1m-9 2h1m9 3h1m-10 1h1m9 1h1m0 2h1m-11 1h1m10 1h1m0 2h1m-12 1h1m11 1h1m-12 2h1m1 6h1m62 1h1m-63 2h1m0 2h1m0 1h1m0 1h1m0 1h1m45 2h1m-2 3h1m-2 3h1m5 11h1m-2 2h1m-2 2h1m-76 6h1m-3 1h1m-3 1h1m-3 1h1m-3 1h1m86 0h1m-90 1h1m-3 1h1m-3 1h1m91 0h1m-94 1h1m-3 1h1m-2 1h1m-4 2h1m-2 1h1m-3 3h1m-2 1h1m-2 1h1m-2 1h1m56 4h1m-10 1h1m9 4h1m-59 2h1m34 0h1m-35 1h1m30 0h1m-31 1h1m1 1h1m19 0h1m-2 1h1m36 0h1m-53 1h1m12 0h1m39 0h1m0 2h1m2 2h1m0 1h1m0 1h1m0 1h1m21 0h1m-22 1h1m17 0h1m-4 1h1m-12 1h1m6 0h1"/><path stroke="#6462b6" d="M407 100h1m3 1h1m-70 30h1"/><path stroke="#696bb7" d="M413 100h1m-36 1h1"/><path stroke="#fcfcfe" d="M407 101h1m-15 3h1m27 0h1m-1 110h1m-2 1h1m5 0h1m-8 1h1m7 0h1m-10 1h1m9 0h1m-19 1h1m5 0h1m13 0h1m1 1h1m3 1h1m0 1h1m0 1h1m0 2h1m0 2h1m-26 1h1m2 0h1m-6 1h1m8 0h1m-12 1h1m13 0h1m1 1h1m1 1h1m1 1h1m-29 1h1m31 0h1m4 0h1m-2 1h1m-2 1h1"/><path stroke="#7679c9" d="M408 101h1"/><path stroke="#6361b5" d="M409 101h1"/><path stroke="#fcbbbc" d="M410 101h1m-29 9h1"/><path stroke="#6562b6" d="M412 101h1"/><path stroke="#d7a3b9" d="M413 101h1"/><path stroke="#f1b7bd" d="M376 102h1"/><path stroke="#7271bd" d="M392 102h1"/><path stroke="#f9b8bb" d="M406 102h1m12 0h1m-15 3h1m-15 1h1m12 1h1m-17 1h1m-3 1h1m16 0h1m-20 1h1m17 0h1m-23 1h1m20 0h1m-23 1h1m18 1h1"/><path stroke="#f9fafd" d="M407 102h1m2 0h1m2 0h3m-10 2h1m-1 1h1m-16 2h1m1 0h1m11 0h1m-14 1h1m-5 1h1m2 0h1m12 0h1m-19 1h1m-5 1h3m4 0h1m11 1h1m-22 1h2m2 1h2m13 0h5m-9 102h1m-1 2h1m0 2h1m0 1h1m0 2h1m0 2h1m0 3h1m-1 2h1m-2 3h1"/><path stroke="#fafafd" d="M408 102h2m1 0h2m-1 1h3m-4 1h1m-19 1h1m15 2h1m-2 2h1m-3 3h1m-2 2h1m16 100h2m1 1h1m-30 1h4m4 1h2m2 1h2m7 0h1m11 0h1m-19 1h5m15 0h1m1 1h3m2 3h1m0 2h1m-24 1h2m-4 1h1m4 0h3m18 0h1m-29 1h1m10 0h2m15 0h1m-31 1h1m15 0h1m13 0h1m-13 1h1m11 0h1m-11 1h1m9 0h1m-37 1h1m27 0h3m5 0h1m-39 1h1m-4 1h1"/><path stroke="#fafbfd" d="M416 102h2m1 1h1m-20 113h3"/><path stroke="#f9fbfe" d="M418 102h1m-13 1h1m-2 3h1m-17 2h1m14 0h1m-18 1h1m-3 1h1m17 0h1m-2 1h1m-23 1h1m8 1h4m6 0h1m-2 1h1"/><path stroke="#fababc" d="M420 102h1"/><path stroke="#6360b5" d="M393 103h1"/><path stroke="#f9f9fc" d="M407 103h5m-5 1h4m-4 1h4m-5 1h4m-18 1h1m13 0h3m-18 1h1m13 0h4m-20 1h1m15 0h3m-21 1h2m15 0h4m-23 1h4m14 0h4m-26 1h7m14 0h4m-23 1h5m13 0h5m15 102h4m-5 1h7m-32 1h9m15 0h9m-32 1h12m10 0h11m-32 1h14m5 0h15m-34 1h36m-35 1h39m-38 1h39m-39 1h39m-38 1h39m-39 1h39m-38 1h15m2 0h22m-39 1h13m8 0h18m-39 1h11m13 0h15m-38 1h8m17 0h13m-39 1h8m20 0h11m-39 1h6m24 0h9m-39 1h3m31 0h5m-40 1h2m34 0h4m-3 1h2"/><path stroke="#fcfcfd" d="M415 103h1m2 0h1m1 1h1m-10 1h1m-2 1h1m-2 2h1m-2 2h1m-3 3h1"/><path stroke="#7579c9" d="M416 103h2m-6 1h1m6 0h1m-9 2h1m-2 1h1m-2 2h1m-2 2h1m-3 3h1"/><path stroke="#fafbfe" d="M420 103h1m-29 3h1m-12 5h1m4 3h1m11 120h1"/><path stroke="#645fb4" d="M421 103h1m-5 114h1m11 0h1m-19 1h1m3 0h1m15 0h1m1 1h1m5 4h1m0 2h1m-27 3h1m6 0h1m-10 1h1m11 0h1m1 1h1m1 1h1m1 1h1m-33 3h1"/><path stroke="#6261b5" d="M392 104h1"/><path stroke="#ffe2cb" d="M394 104h1m-1 1h1m-1 1h1m-1 1h1m-4 3h1m-2 1h1m1 0h1m-3 1h1m28 14h1m-21 63h1m-7 28h1m1 3h1m1 3h1m0 2h1m0 2h1m-1 1h1m-1 2h1m-1 1h1"/><path stroke="#797cca" d="M413 104h3m2 0h1m-7 1h1m-3 3h1m-2 2h1"/><path stroke="#7c7fcb" d="M416 104h2m-5 1h7m-8 1h9m-10 1h12m-12 1h13m-14 1h14m-14 1h14m-15 1h15m-15 1h16m-17 1h17m-18 1h19m-18 1h18m-17 1h17m-56 1h1m38 0h18m-18 1h18m-19 1h19m-19 1h20m-20 1h20m-21 1h21m-21 1h21m-48 1h1m25 0h10m1 0h11m-49 1h2m25 0h7m7 0h8m-50 1h3m24 0h6m11 0h6m-65 1h1m14 0h2m24 0h5m15 0h4m-66 1h2m13 0h3m5 0h2m16 0h5m17 0h4m-68 1h3m12 0h4m5 0h2m15 0h5m18 0h4m-69 1h5m11 0h3m5 0h3m15 0h4m20 0h3m-69 1h5m10 0h4m4 0h5m14 0h3m22 0h2m-70 1h7m1 0h4m4 0h3m5 0h6m13 0h3m23 0h1m-70 1h12m3 0h4m4 0h7m6 0h1m5 0h5m-48 1h13m3 0h4m3 0h8m6 0h3m2 0h6m-48 1h12m3 0h5m3 0h7m4 0h1m1 0h13m-49 1h12m3 0h4m3 0h8m3 0h16m-49 1h12m3 0h4m3 0h7m3 0h17m-49 1h11m3 0h4m4 0h8m1 0h18m-49 1h11m3 0h4m3 0h28m-49 1h10m4 0h3m4 0h27m-48 1h9m5 0h3m4 0h27m-47 1h7m6 0h2m4 0h28m-47 1h6m6 0h3m4 0h28m-47 1h5m7 0h3m4 0h27m-45 1h3m7 0h4m4 0h26m-44 1h2m7 0h4m5 0h26m-44 1h2m6 0h5m5 0h25m-43 1h1m6 0h6m5 0h25m-43 1h1m5 0h7m5 0h24m-37 1h8m6 0h22m-37 1h9m6 0h22m-37 1h10m5 0h21m-37 1h12m5 0h20m-37 1h14m3 0h19m-36 1h15m1 0h20m-39 1h1m1 0h36m-38 1h38m-38 1h35m1 0h1m-37 1h38m-38 1h35m1 0h2m-39 1h38m-38 1h38m-38 1h38m-38 1h35m-36 1h39m-39 1h39m-40 1h40m-40 1h39m-39 1h38m-39 1h38m-38 1h38m-38 1h39m-39 1h39m-39 1h37m-38 1h38m-38 1h40m-41 1h41m-42 1h41m-42 1h44m-45 1h45m-46 1h30m1 0h15m-46 1h28m13 0h5m-47 1h28m16 0h3m-46 1h26m-26 1h25m19 0h2m-45 1h22m22 0h2m-45 1h20m24 0h1m-45 1h19m26 0h1m-45 1h18m26 0h1m-44 1h16m28 0h1m-45 1h15m-14 1h13m-12 1h10m-8 1h7m-5 1h4"/><path stroke="#6864b6" d="M422 104h1m-2 109h4m7 5h1m1 1h3m2 3h1m0 2h1m0 2h1m-1 1h1m-27 1h1m2 0h3m20 0h1m-29 1h1m8 0h2m17 0h1m-17 1h1m15 0h1m-15 1h1m13 0h1m-13 1h1m11 0h1m-37 1h1m25 0h3m7 0h1m-39 1h1m-5 1h2m-4 1h1m39 0h2"/><path stroke="#aa96be" d="M392 105h1"/><path stroke="#ffe1cc" d="M399 105h1"/><path stroke="#767aca" d="M420 105h1"/><path stroke="#e9dcde" d="M421 105h1"/><path stroke="#6865b6" d="M422 105h1"/><path stroke="#f9f9fd" d="M393 106h1m-4 2h1m-1 1h1m-2 1h1m-2 2h1m11 1h1m-5 106h1m1 3h1m0 2h1m0 2h1m-1 1h1m0 2h1m-2 2h1m-1 1h1"/><path stroke="#797dcb" d="M421 106h1m-9 19h2m3 0h2m-9 1h1m9 0h1m0 1h1m-16 8h1m-1 1h1m-1 1h1m-1 1h1m-2 2h1m-1 1h1m-1 1h1m-48 14h1m-1 1h1m-1 1h1m-1 1h1m-1 1h1m-2 2h1m-1 1h1m-1 1h1m-2 2h1m38 16h1m-1 1h1m-1 2h1m0 2h1m0 2h1m0 2h1m0 1h1"/><path stroke="#7c80cc" d="M422 106h1m0 1h1m0 4h1m-53 3h1m-2 1h1m-2 1h1m55 0h1m-58 1h1m57 2h1m-65 7h1m-2 1h1m-2 1h1m-2 1h1m-2 2h1m69 1h1m-72 1h1m-1 9h1m0 3h1m39 9h1m-2 2h1m-43 13h1m-3 7h1m-2 1h1m-2 1h1m-2 1h1m-2 1h1m29 1h1m-32 1h1m-1 2h1m46 4h1"/><path stroke="#6b67b6" d="M423 106h1m0 4h1m0 2h1m-55 2h1m-2 1h1m55 0h1m-58 1h1m57 2h1m-65 7h1m-2 1h1m-2 1h1m-2 1h1m-3 4h1m-1 11h1m0 3h1m39 9h1m-2 2h1m-43 11h1m-2 5h1m-2 2h1m-2 1h1m-2 1h1m-2 1h1m-2 1h1m-2 2h1"/><path stroke="#7069b7" d="M353 107h1"/><path stroke="#fdddcd" d="M390 107h1m9 5h1"/><path stroke="#ffe1ca" d="M393 108h1m-2 1h1m-3 1h1m0 2h1m2 104h1m-1 2h1m0 1h1m0 2h1m0 1h1m0 2h1m0 2h1m-1 6h1m-2 1h1m-2 1h1"/><path stroke="#5abbbb" d="M352 109h1m-3 1h1m-5 2h1"/><path stroke="#59bcbb" d="M353 109h1"/><path stroke="#6863b7" d="M354 109h1"/><path stroke="#6865b7" d="M355 109h2m0 1h1m-1 1h1m-15 2h1m14 0h1m-16 1h1m14 0h1m-16 1h1m14 0h1m-16 1h1m14 0h1m-17 3h1m-2 2h1m16 0h1m-18 1h1m-1 1h1m15 0h1m-17 1h1m-1 1h1m-1 1h1m11 0h2m-14 1h1m-1 1h1m8 0h1m-10 1h1m8 0h1m0 2h1m-10 1h1m-1 1h1m9 1h1m-10 1h1m-1 1h1m9 0h1m-10 2h1m-1 1h1m9 0h1m-11 1h1m10 1h1m-11 1h1m-1 1h1m10 0h1m-12 1h1m11 1h1m-12 1h1m-1 1h1m11 0h1m-13 1h1m0 2h1m-1 1h1m0 2h1m-1 1h1m0 3h1m64 0h1m-1 1h1m-65 1h1m-1 1h1m62 0h1m-1 1h1m-63 1h1m49 5h1m-2 2h1m-1 1h1m-2 2h1m-1 1h1m5 13h1m-2 2h1m-76 6h2m-4 1h1m73 0h1m-77 1h1m-3 1h1m-3 1h1m86 0h1m-90 1h1m-3 1h1m89 0h1m-93 1h1m91 0h1m-96 2h1m93 0h1m-107 12h1m-1 1h1m51 2h6m-59 1h1m50 0h1m7 0h1m-60 1h1m48 0h1m9 0h1m-60 1h1m58 0h1m-1 1h1m-59 1h1m-1 1h1m38 0h1m19 0h1m-23 1h1m21 0h1m-26 1h2m-6 1h3m-29 1h1m21 0h2m32 0h1m-53 2h1m14 0h1m-14 1h12m40 0h1m32 5h1m-4 1h1m-4 1h2m-5 1h2m-15 1h1m8 0h3m-10 1h6"/><path stroke="#5cbcbb" d="M349 110h1"/><path stroke="#54bbba" d="M351 110h1m-5 2h1"/><path stroke="#5a5db5" d="M381 110h1"/><path stroke="#57bbbb" d="M348 111h1"/><path stroke="#c8bbc0" d="M349 111h1"/><path stroke="#fbfbfd" d="M407 111h1m-2 106h1m0 14h1m-3 1h1m-6 2h1"/><path stroke="#6860b7" d="M344 112h1"/><path stroke="#ffe1c9" d="M389 112h1m10 117h1"/><path stroke="#f9fafe" d="M392 112h1m1 105h1"/><path stroke="#c0bbbd" d="M407 112h1"/><path stroke="#7b7ecb" d="M408 112h1"/><path stroke="#ffe5cd" d="M344 113h1m75 21h1m-2 4h1m-64 28h1m-27 29h1m43 0h1m5 0h1m-9 1h1m-2 1h1m14 0h1m-56 1h1m70 0h1m4 0h1m-76 2h1m37 0h1m18 0h1m-57 1h1m34 0h1m24 0h1m-31 1h2m1 0h1m28 0h1m-61 1h1m0 1h1m59 0h1m-60 2h1m59 0h1m-60 2h1m22 0h1m-23 2h1m0 1h1m1 1h1m17 0h1m-18 1h1m52 0h1m-53 1h1m4 1h1m1 2h7"/><path stroke="#4dbaba" d="M345 113h1"/><path stroke="#6c67b6" d="M373 113h1m-6 5h1"/><path stroke="#767dcc" d="M374 113h1m-2 1h1m-6 5h1"/><path stroke="#f9fcff" d="M379 113h1"/><path stroke="#f9fbfd" d="M382 113h1m5 0h1m15 1h1"/><path stroke="#777bca" d="M407 113h1"/><path stroke="#7c80cb" d="M425 113h1m-17 14h1m13 0h1m-19 4h1m-1 1h1m0 2h1m-10 27h1m-43 13h1"/><path stroke="#fcbbbd" d="M374 114h1m-2 1h1m-5 4h1m22 13h1m-2 2h1m-3 1h2m13 12h1m-2 2h1m-3 3h1m0 11h1m26 18h1m0 3h1m-5 3h1m-20 3h1m6 4h1"/><path stroke="#d44267" d="M378 114h1m1 0h2m7 0h2m4 0h1m-19 1h1m6 0h2m4 0h1m1 0h1m5 0h6m-28 1h1m12 1h1m-2 1h1m-2 2h1m6 0h1m-23 1h1m-1 2h1m-3 1h2m-3 1h1m-2 1h1m-2 2h1"/><path stroke="#d44167" d="M379 114h1m12 0h1m-10 1h1m2 0h1m10 0h1m7 1h1"/><path stroke="#d43962" d="M382 114h1m21 1h1"/><path stroke="#fafcff" d="M383 114h1m13 0h1"/><path stroke="#e6dbde" d="M387 114h1"/><path stroke="#d43460" d="M388 114h1"/><path stroke="#d43e65" d="M391 114h1m-5 1h1"/><path stroke="#d44569" d="M393 114h1m0 2h1m-22 1h1m1 0h1m-4 1h1m0 1h1m13 0h1m-15 1h1m12 1h1m8 0h1m-23 3h1m-2 1h1m-5 2h1"/><path stroke="#d44669" d="M394 114h1m-21 3h1m19 0h1m-1 1h1m-1 1h1m-23 3h1m13 0h1m8 0h1m-10 1h1m8 0h1m-10 1h1m8 0h1m-1 1h1m-1 1h1m-1 1h1m-1 1h1m-29 1h1m27 0h1m-1 1h1"/><path stroke="#edb6be" d="M396 114h1m-9 11h1"/><path stroke="#767dcb" d="M372 115h1m20 17h1m8 17h1"/><path stroke="#d5496b" d="M378 115h5m11 0h2m-19 1h11m7 0h10m-29 1h13m6 0h12m-34 1h15m7 0h12m-33 1h13m8 0h11m-32 1h8m1 0h4m8 0h11m-33 1h8m3 0h2m10 0h10m-33 1h7m4 0h2m10 0h9m-32 1h6m4 0h3m10 0h9m-31 1h4m5 0h3m10 0h8m-34 1h2m1 0h4m6 0h2m11 0h8m-35 1h7m7 0h1m12 0h7m-34 1h7m6 0h2m12 0h6m-34 1h4m1 0h2m7 0h1m13 0h5m-33 1h3m11 0h1m13 0h4m-27 1h1m7 0h1m14 0h4m-4 1h4m-20 1h1m17 0h2m-31 9h1m-2 1h2m-3 1h2m-3 1h2m-3 1h3m-4 1h3m8 0h1m-12 1h2m9 0h1m-13 1h2m10 0h1m-13 1h1m11 0h1m-14 1h1m12 0h2m-1 1h1"/><path stroke="#e7dee2" d="M388 115h1"/><path stroke="#d54468" d="M389 115h1m-2 1h1"/><path stroke="#eeb8c0" d="M391 115h1"/><path stroke="#da5574" d="M393 115h1"/><path stroke="#d54669" d="M396 115h1m-8 1h1"/><path stroke="#fbfdff" d="M405 115h1"/><path stroke="#777dcb" d="M406 115h1m-42 15h1m22 6h1m0 1h1m15 7h1"/><path stroke="#7a80cc" d="M407 115h1m0 1h1m-1 1h1m-1 1h1m-2 2h1m-1 1h1m-2 2h1m-26 1h1m-1 1h1m-5 2h1m2 0h1m4 0h1m-6 1h1m3 1h1m-10 1h1m3 0h1m21 0h1m-34 1h4m29 0h1m-31 1h1m2 0h1m26 0h1m-31 1h1m6 0h1m17 0h1m-24 1h1m4 0h1m19 0h2m-30 1h1m9 0h1m-11 1h1m1 0h1m4 0h1m-6 1h1m6 0h1m-11 1h1m6 0h1m-6 1h1m-1 1h1m3 0h1m2 0h1m-8 1h1m6 0h1m-5 1h1m-1 1h1m2 0h1m-4 1h1m2 0h1m-1 1h1m-16 1h1m14 0h1m-5 1h1m3 0h1m-17 1h1m11 0h1m3 0h1m-5 1h1m-14 1h1m12 0h1m4 0h1m-1 1h1m-16 1h1m11 1h1m3 0h1m-18 1h1m16 0h1m-2 1h1"/><path stroke="#797ecb" d="M371 116h1m-3 2h1m46 6h1m-53 2h1m-1 1h1m21 0h1m-23 1h1m22 0h1m-1 1h1m-1 1h1m-23 1h1m22 0h1m4 2h2m-1 1h1m-7 1h1m4 0h1m9 12h1m-3 3h1m-2 2h1m-6 21h1m-1 2h1m-1 1h1m-1 1h1m0 4h1"/><path stroke="#fabbbe" d="M373 116h1m16 1h1m-4 8h1m-22 3h1m-1 1h1"/><path stroke="#d64869" d="M406 116h1m0 1h1m-2 2h1m-25 1h1m23 0h1m-24 1h1m-1 1h1m21 0h1m-24 2h1m21 0h1m-23 1h1m2 0h1m-10 1h1m5 0h1m1 0h1m-13 2h1m8 0h1m1 0h1m-11 1h2m6 0h1m18 0h1m-33 1h2m30 0h1m-29 1h2m6 0h2m18 0h1m-29 1h1m24 0h1m-19 1h1m-10 7h1m6 0h1m-8 1h1m5 0h1m-1 1h1m-2 1h2m-2 1h2m-2 1h2m-1 1h1m-14 1h1m10 0h1m1 0h1m-3 1h1m1 0h1m-15 1h1m11 0h1m1 0h1m-16 2h2m14 0h1m-17 1h1m14 0h2"/><path stroke="#d74766" d="M407 116h1m-1 2h1m-27 3h1m24 0h1m-27 1h1m-2 1h1m25 0h1m-28 1h1m-2 1h1m25 1h1m-28 1h1m4 0h1m2 0h1m17 0h1m-28 1h1m7 1h1m-14 1h1m3 0h1m5 0h1m1 0h1m-10 2h1m22 0h1m3 0h1m-29 1h1m7 0h1m18 0h1m-21 1h1m-9 2h1m-2 3h1m6 0h1m-9 1h1m6 0h1m-9 1h1m8 0h1m-11 1h1m-2 1h1m-2 1h1m-2 1h1m3 0h1m-6 1h1m3 0h1m-2 1h1m-2 1h1m-2 1h1m-4 1h1m1 0h1m13 0h1m-16 2h1m12 0h1m-15 1h1m15 0h2"/><path stroke="#6463b7" d="M343 117h1m8 9h1m49 39h1m-39 68h1"/><path stroke="#605fb6" d="M357 117h1"/><path stroke="#7880cd" d="M371 117h1m35 2h1m-27 3h2m23 0h1m-27 1h1m-2 1h1m25 0h1m-28 1h1m-2 1h1m3 0h1m3 0h1m18 0h1m-2 1h1m-28 1h1m7 0h1m17 0h1m-23 1h1m2 1h1m-10 1h1m4 0h1m2 0h1m-10 2h1m7 0h1m18 0h1m-30 1h1m8 0h1m-9 1h1m6 1h1m-10 1h1m6 0h1m-7 1h1m-3 1h1m6 0h1m-9 1h1m-2 1h1m-2 1h1m10 0h1m-13 1h1m4 0h1m-7 1h1m-2 1h1m4 1h1m-2 1h1m-2 1h1m-6 1h1m3 0h1m-2 1h1m-2 1h1m-2 2h1m13 0h1m0 1h1"/><path stroke="#db5472" d="M372 117h1"/><path stroke="#e6bac1" d="M343 118h1m7 8h1m50 40h1m-38 67h1"/><path stroke="#c9bec0" d="M357 118h1"/><path stroke="#6a66b7" d="M358 118h1m75 61h1m-5 1h3m2 0h1m-15 3h2m-4 1h1m-3 1h1m5 4h1m-20 2h1m15 0h1m-19 1h1m15 0h1m-3 1h1m-8 4h1m-101 8h1m-11 13h1m46 3h1m-19 7h1m64 9h1m-22 3h1"/><path stroke="#777ecc" d="M370 118h1m15 8h1m-20 5h1"/><path stroke="#d64364" d="M371 118h1"/><path stroke="#ae99c0" d="M357 119h1m40 96h1"/><path stroke="#6a67b7" d="M367 119h1m-2 1h1"/><path stroke="#6160b6" d="M357 120h1"/><path stroke="#ffe6cd" d="M357 121h1"/><path stroke="#9084be" d="M366 121h1"/><path stroke="#7681ce" d="M382 121h1m-12 9h1"/><path stroke="#7a7fcc" d="M381 123h1m23 2h1m-28 7h1m3 0h1m-12 10h1m1 4h1"/><path stroke="#dc5671" d="M382 123h1m21 2h1m-26 7h1m1 0h1m-12 10h1"/><path stroke="#fbbec1" d="M372 124h1"/><path stroke="#797ecc" d="M364 125h1m30 45h1m-1 2h1"/><path stroke="#d54467" d="M386 125h1m-20 5h1m27 1h1"/><path stroke="#767ccb" d="M415 125h1m1 0h1"/><path stroke="#e7bbc0" d="M416 125h1"/><path stroke="#d33e65" d="M388 126h1"/><path stroke="#757acb" d="M412 126h1m7 0h1m-11 1h1m-4 12h1m-50 22h1m-2 4h1m39 21h1m0 2h1m0 2h1"/><path stroke="#6c67b7" d="M428 126h1"/><path stroke="#d54065" d="M388 127h1"/><path stroke="#7975bd" d="M428 127h1m-35 37h1"/><path stroke="#757fcd" d="M388 128h1m6 4h1"/><path stroke="#d63f62" d="M389 128h1"/><path stroke="#d74767" d="M401 128h1m-31 1h1m0 1h1m25 3h1m-24 9h1m-14 6h1"/><path stroke="#7d80cc" d="M408 128h1m15 0h1m-18 1h1m17 1h1m0 1h1m0 1h1m0 1h2m-34 31h1m-19 18h2m2 0h9m-14 1h1m14 0h1m-17 1h1m16 0h1m-45 1h1m25 0h1m-26 1h1m22 0h1m20 0h1m-44 1h1m20 0h1m22 0h1m-45 1h1m19 0h1m-20 1h1m43 0h1m-44 1h1m16 0h1m26 0h1m-29 1h1m28 0h1m-45 1h1m13 0h1m30 0h1m-45 1h1m10 0h2m32 0h1m-44 1h1m7 0h1m-8 1h2m4 0h1m-4 1h3"/><path stroke="#5347b4" d="M409 128h1"/><path stroke="#554ab4" d="M422 128h1"/><path stroke="#5a4eb4" d="M423 128h1m1 3h1m-20 1h1m19 0h1m0 1h1"/><path stroke="#7a7ecb" d="M364 129h1m22 8h1m0 1h1m15 7h1"/><path stroke="#d7a4b9" d="M365 129h1m39 16h1"/><path stroke="#8779b9" d="M372 129h1"/><path stroke="#7880cc" d="M375 129h1m2 6h1m-2 14h1m0 3h1"/><path stroke="#fdbcbc" d="M388 129h1m-1 1h1m-23 1h1m22 5h1"/><path stroke="#737dcc" d="M389 129h1"/><path stroke="#8b78b7" d="M401 129h1m-5 4h1m-23 8h1m-14 6h1"/><path stroke="#594db4" d="M408 129h1"/><path stroke="#9082be" d="M409 129h1m-57 9h1m-49 72h1m38 11h1"/><path stroke="#554bb5" d="M422 129h1m-15 1h1m13 0h1m-15 1h1m-1 1h1m12 1h1m-1 1h1m-2 3h1m-1 1h1m-2 2h1"/><path stroke="#5b4fb5" d="M423 129h1"/><path stroke="#6f6eb6" d="M424 129h1m-66 1h1m69 1h1m-33 31h1"/><path stroke="#6965b6" d="M341 130h1m66 102h1m-3 1h1m-6 2h1"/><path stroke="#e8dbde" d="M342 130h1"/><path stroke="#757dcb" d="M389 130h1m-1 4h1m2 0h1m-2 1h1m-2 1h1m13 10h1m-2 2h1m-3 3h1"/><path stroke="#6c68b6" d="M406 130h1"/><path stroke="#5a4fb5" d="M407 130h1m-2 1h1m0 2h1m20 1h2m-1 1h1m-3 1h2m-6 5h1"/><path stroke="#5b50b5" d="M423 130h1m-17 1h1m15 0h2m-18 1h1m14 0h4m-4 1h5m-5 1h6m-7 1h8m-8 1h6m-6 1h5m-5 1h4m-5 1h4m-4 1h4m-4 1h3"/><path stroke="#5a4eb5" d="M424 130h1"/><path stroke="#787ecb" d="M389 131h1m-1 2h1m6 47h1"/><path stroke="#727ccc" d="M393 131h1"/><path stroke="#c8bdc0" d="M421 131h1m-113 75h1m-10 12h1m71 21h1"/><path stroke="#584db5" d="M422 131h1"/><path stroke="#6764b7" d="M351 132h1m1 5h1m-5 19h1m64 0h1m-110 53h1m39 12h1m-3 1h1m-3 1h1m-36 6h1"/><path stroke="#797eca" d="M366 132h1m33 21h1"/><path stroke="#9384bd" d="M389 132h1"/><path stroke="#f0b7bc" d="M394 132h1"/><path stroke="#5247b4" d="M421 132h1"/><path stroke="#7270bd" d="M351 133h1m-3 22h1m-43 74h1"/><path stroke="#757dca" d="M392 133h1"/><path stroke="#7d80cb" d="M406 133h1m-26 49h1m11 3h1"/><path stroke="#554ab5" d="M408 133h1m11 3h1"/><path stroke="#d84564" d="M372 134h1m-2 1h1m7 0h1m-2 1h1m-8 1h1m-2 1h1m7 16h1"/><path stroke="#febdbc" d="M393 134h1"/><path stroke="#594eb4" d="M407 134h1"/><path stroke="#7462b1" d="M408 134h1m11 1h1"/><path stroke="#6c69b7" d="M429 136h1"/><path stroke="#d84665" d="M378 137h1m-2 1h1m-17 16h1"/><path stroke="#daa6b9" d="M388 137h1"/><path stroke="#544cb5" d="M426 137h1"/><path stroke="#9486be" d="M427 137h1"/><path stroke="#7d5c9d" d="M378 138h1m-10 6h1m4 7h1"/><path stroke="#7c7fcc" d="M379 138h1m-10 6h1m2 7h1m-14 4h1m1 0h1m-2 1h1"/><path stroke="#524bb5" d="M425 138h1"/><path stroke="#7a80cd" d="M378 139h1m-10 6h1m4 7h1"/><path stroke="#4f45b4" d="M419 139h1"/><path stroke="#574eb5" d="M424 139h1"/><path stroke="#554db5" d="M424 140h1"/><path stroke="#4f48b5" d="M419 141h1"/><path stroke="#6867b7" d="M424 141h1"/><path stroke="#d74768" d="M369 143h1m4 7h1"/><path stroke="#757ccb" d="M406 143h1"/><path stroke="#d6496a" d="M368 144h1m6 7h1"/><path stroke="#fbbbbc" d="M406 144h1"/><path stroke="#8a78b7" d="M374 145h1"/><path stroke="#dc5672" d="M374 146h1"/><path stroke="#fbbabd" d="M405 146h1"/><path stroke="#6764b6" d="M359 149h1m-4 18h1"/><path stroke="#efb6bd" d="M402 150h1m-7 28h1"/><path stroke="#777dcc" d="M360 151h1m-1 1h1m-1 1h1"/><path stroke="#8975b6" d="M424 153h1m5 32h1"/><path stroke="#ac98bf" d="M359 154h1"/><path stroke="#797fcc" d="M360 154h1"/><path stroke="#6765b6" d="M400 154h1"/><path stroke="#787ccb" d="M359 155h1"/><path stroke="#7f5b9b" d="M361 155h1"/><path stroke="#716fbd" d="M414 155h1"/><path stroke="#6e6db6" d="M395 158h1m-3 16h1"/><path stroke="#7975bc" d="M397 158h1m-5 17h1"/><path stroke="#676bb7" d="M401 159h1m25 21h1"/><path stroke="#7c7fca" d="M395 160h1m-2 15h1"/><path stroke="#6567a9" d="M395 164h1m-2 6h1m-1 14h2"/><path stroke="#6363b7" d="M402 164h1m-5 11h1m7 9h1m21 20h1"/><path stroke="#eeb5bd" d="M412 164h1"/><path stroke="#d6a3ba" d="M412 165h1"/><path stroke="#7b7fcb" d="M396 168h1m-2 1h1"/><path stroke="#ae9bc0" d="M396 169h1m27 25h2"/><path stroke="#6c6db7" d="M397 169h1"/><path stroke="#6567aa" d="M394 171h1"/><path stroke="#6165aa" d="M395 171h1"/><path stroke="#6f6db6" d="M394 174h1"/><path stroke="#6b6cb6" d="M395 174h1"/><path stroke="#ffdfcf" d="M399 175h1m5 9h1m-2 2h1m-2 2h1m2 13h1m-101 8h1m77 30h1"/><path stroke="#8e82be" d="M413 175h1"/><path stroke="#6363b6" d="M398 176h1"/><path stroke="#6e6fbd" d="M398 177h1"/><path stroke="#6466a9" d="M394 178h1"/><path stroke="#7a7ecc" d="M395 178h1"/><path stroke="#fbc3c0" d="M398 178h1m7 4h1"/><path stroke="#9183be" d="M396 179h1"/><path stroke="#6864b7" d="M433 180h1m0 1h1m-12 2h1m-4 1h1m6 2h1m-4 2h1m-3 1h1m-2 1h1m-17 1h1m13 0h1m-17 1h1m13 0h1m-10 5h1"/><path stroke="#c4c0c1" d="M434 180h1"/><path stroke="#fab9bc" d="M397 181h1"/><path stroke="#6162b7" d="M427 181h1m-12 4h1"/><path stroke="#c0bdc0" d="M430 181h1m-4 1h1m2 1h1m-2 1h1m-14 2h1m9 0h1m-13 7h1m-69 27h1m-19 7h1m64 9h1"/><path stroke="#c1bdc0" d="M431 181h1m-10 3h2m4 0h1m-9 1h1m-4 1h2m6 0h1m-4 2h1m-4 2h1m-3 1h1m-13 1h1m9 0h1m-13 1h1m0 1h1m0 1h1m4 0h1m-3 1h1m-12 19h1"/><path stroke="#c1bec0" d="M432 181h1m-2 1h1m-8 5h1"/><path stroke="#c3bfc0" d="M433 181h1m-32 12h1"/><path stroke="#514c98" d="M380 182h1"/><path stroke="#fababe" d="M426 182h1"/><path stroke="#bfbcc0" d="M428 182h2m-5 1h2m-12 4h1m-3 1h1m-3 1h1m-3 1h1m-3 1h1m4 3h1"/><path stroke="#c0bcc0" d="M430 182h1m-4 1h3m-6 1h4m-7 1h6m-8 1h6m-9 1h8m-10 1h8m-10 1h9m-11 1h9m-11 1h9m-11 1h9m-11 1h10m-9 1h7m-6 1h4m-4 1h2m-1 1h1"/><path stroke="#9384be" d="M432 182h1"/><path stroke="#484392" d="M378 183h1m-2 1h1m14 0h1m-17 1h1m-28 1h1m43 0h1m-44 1h1m43 0h1m-44 2h1m0 1h1m43 0h1m-27 1h1m26 0h1m-29 1h1m28 0h1m-45 1h1m13 0h1m30 0h1m-34 1h1m-10 1h1m7 0h1m-2 1h1"/><path stroke="#494593" d="M379 183h1m1 0h9m-43 2h2m43 0h1m-49 1h2m-4 1h2m30 0h1m-35 1h2m8 0h1m-13 1h2m55 0h1m-60 1h2m-5 1h3m-5 1h2m-2 1h1m-1 1h1m35 0h1m32 1h1m-43 1h1m1 1h4m39 8h1m-1 1h1m-1 1h1m-1 1h1m-1 1h1m0 2h1m-1 1h1m-1 1h1"/><path stroke="#4a4694" d="M380 183h1m-3 1h14m-15 1h15m-46 1h3m27 0h17m-49 1h6m25 0h19m-52 1h8m23 0h22m-55 1h11m21 0h23m-57 1h14m20 0h24m-60 1h17m18 0h26m-64 1h20m17 0h28m-66 1h22m15 0h30m-67 1h23m13 0h6m7 0h18m-67 1h24m10 0h5m14 0h15m-68 1h26m7 0h5m17 0h13m-67 1h27m4 0h6m18 0h13m-68 1h37m18 0h13m-68 1h37m20 0h12m-68 1h31m1 0h2m26 0h8m-67 1h28m33 0h6m-66 1h26m35 0h6m-66 1h25m35 0h6m-65 1h23m37 0h5m-65 1h23m38 0h4m-64 1h22m38 0h4m-64 1h22m38 0h4m-63 1h20m39 0h4m-63 1h20m39 0h4m-61 1h18m40 0h4m-61 1h16m40 0h5m-60 1h15m40 0h5m-58 1h1m1 0h11m39 0h6m-54 1h9m40 0h6m-54 1h7"/><path stroke="#494493" d="M390 183h1m-20 7h1m-19 2h1"/><path stroke="#5a56a4" d="M391 183h1m-21 6h1m-19 2h1"/><path stroke="#5f60b6" d="M406 183h1"/><path stroke="#c2bec0" d="M424 183h1m-4 1h1m-3 1h1m7 0h1m-5 3h1m-3 1h1m-2 1h1m-15 1h1m11 0h1m-15 1h1m11 0h1m-8 4h1"/><path stroke="#6462b7" d="M431 183h1m-22 13h1"/><path stroke="#6d69b8" d="M347 184h1m-3 1h1m-3 1h1m-3 1h1m-3 1h1m-3 1h1m-3 1h1m-4 1h1m71 18h1m0 4h1"/><path stroke="#514d99" d="M348 184h1"/><path stroke="#797dca" d="M396 184h1"/><path stroke="#524e9a" d="M346 185h1"/><path stroke="#7672bd" d="M418 185h1m9 0h1m-14 8h1"/><path stroke="#484492" d="M375 186h1m-17 10h1"/><path stroke="#524d99" d="M373 187h1m-2 1h1m22 0h1"/><path stroke="#bebcc0" d="M414 187h1m-3 1h1m-3 1h1m-3 1h1m2 5h1"/><path stroke="#9182be" d="M425 187h1"/><path stroke="#7673bd" d="M401 192h1"/><path stroke="#6a65b6" d="M401 193h1"/><path stroke="#484493" d="M355 194h1m43 16h1"/><path stroke="#6668ab" d="M356 194h1m43 0h1"/><path stroke="#424093" d="M374 194h7m-50 1h1m40 0h1m9 0h2m2 1h1m13 0h1m-31 1h1m16 0h1m-18 1h1m16 0h1m13 0h1m-14 1h2m-25 1h1m2 0h1m22 0h3m8 0h1m-69 1h1m28 0h1m31 0h1m-61 1h1m26 0h1m40 1h1m-67 1h1m23 1h1m-24 1h1m22 0h1m36 0h1m-1 1h1m-60 1h1m20 0h1m37 0h1m-39 1h1m-2 3h1m38 0h1m-52 1h1m11 0h1m-11 1h1m9 0h1m-10 1h1m0 1h6"/><path stroke="#494594" d="M399 194h1m-44 1h1m-16 15h1"/><path stroke="#6965b7" d="M402 194h1"/><path stroke="#af9ac0" d="M403 194h1"/><path stroke="#c7bcc0" d="M413 194h1"/><path stroke="#4a4594" d="M371 195h1m-2 1h1m-39 1h1m65 8h1m-40 6h1m-15 2h1"/><path stroke="#393992" d="M373 195h1m7 0h1m19 2h1m-32 2h1m16 0h1m14 0h1m-70 1h1m35 0h1m20 0h1m-27 1h1m1 0h2m-34 1h1m1 1h1m1 4h1m22 0h1m-23 2h1m0 1h1m2 2h1m0 1h1m52 0h1m-39 2h1m-10 1h1"/><path stroke="#474493" d="M384 195h1m18 9h1m-6 10h1m5 1h1"/><path stroke="#6867b8" d="M403 195h1"/><path stroke="#6564b8" d="M404 195h1"/><path stroke="#423f93" d="M331 196h1m0 2h1m63 4h1m-37 8h1"/><path stroke="#7a76be" d="M360 196h1"/><path stroke="#5d62ab" d="M371 196h1m-41 1h1m65 8h1m-38 6h1m-16 3h1"/><path stroke="#ad99c1" d="M384 196h1"/><path stroke="#3f3d92" d="M385 196h1"/><path stroke="#ffe6ce" d="M401 196h1m-55 18h1"/><path stroke="#eeb5be" d="M402 196h1"/><path stroke="#d53f65" d="M403 196h1"/><path stroke="#d64567" d="M404 196h1"/><path stroke="#bfbec2" d="M405 196h1"/><path stroke="#8c76b6" d="M423 196h1m11 7h1"/><path stroke="#6263b7" d="M434 196h1"/><path stroke="#ffe5ce" d="M403 197h1m0 1h1"/><path stroke="#d43c66" d="M404 197h1"/><path stroke="#d64267" d="M405 197h1"/><path stroke="#bfbcc1" d="M406 197h1"/><path stroke="#6564b7" d="M422 197h1m0 1h1"/><path stroke="#f2b8bd" d="M423 197h1m-2 1h1m12 6h1"/><path stroke="#d33564" d="M405 198h1"/><path stroke="#4f4ea4" d="M332 199h1m63 4h1"/><path stroke="#e6bcc1" d="M435 199h1"/><path stroke="#b19cc1" d="M419 200h1m8 5h1"/><path stroke="#ffe7cf" d="M365 201h1"/><path stroke="#454499" d="M394 201h1m-58 4h1m10 9h1"/><path stroke="#484593" d="M402 201h1m-42 3h1m-4 11h1"/><path stroke="#9182bf" d="M403 201h1m-46 15h1"/><path stroke="#1d2690" d="M365 202h1"/><path stroke="#403e92" d="M403 202h1m-6 7h1m-1 2h1m-42 5h1"/><path stroke="#7a76bd" d="M411 202h1"/><path stroke="#daa6ba" d="M413 202h1"/><path stroke="#403f92" d="M362 203h1"/><path stroke="#8973b6" d="M362 204h1"/><path stroke="#413f93" d="M397 204h1"/><path stroke="#af9bc1" d="M404 204h1"/><path stroke="#6765b7" d="M427 205h1"/><path stroke="#6563b7" d="M308 206h1m-9 11h1m70 22h1"/><path stroke="#9485bf" d="M398 210h1"/><path stroke="#5b57a5" d="M404 210h1m0 4h1m-1 1h1"/><path stroke="#7462b2" d="M341 211h1"/><path stroke="#413f92" d="M342 211h1"/><path stroke="#383891" d="M346 214h1"/><path stroke="#4e4da3" d="M396 214h1"/><path stroke="#464293" d="M397 214h1"/><path stroke="#635fb4" d="M420 214h1m-2 1h1m7 0h1m-10 1h1m9 0h1m8 4h1m0 1h1m-23 6h1m18 7h1m4 0h1m-2 1h1"/><path stroke="#fbfbfe" d="M424 214h1m11 20h1m0 1h1"/><path stroke="#c0bcbe" d="M425 214h1"/><path stroke="#6662b6" d="M426 214h1"/><path stroke="#ffe3cb" d="M395 215h1"/><path stroke="#8f80bd" d="M396 215h1"/><path stroke="#5450a3" d="M399 215h1"/><path stroke="#423e91" d="M400 215h1"/><path stroke="#433e92" d="M401 215h3"/><path stroke="#fbfcfe" d="M403 216h1m5 14h1"/><path stroke="#ad98bf" d="M404 216h1"/><path stroke="#534fa2" d="M405 216h1"/><path stroke="#e8dadd" d="M407 217h1m0 14h1m-3 1h1m-6 2h1"/><path stroke="#6460b5" d="M408 217h1m0 14h1m-3 1h1m-6 2h1"/><path stroke="#6668b6" d="M351 218h1m-52 4h1m37 2h1"/><path stroke="#6663b7" d="M347 220h1m-19 7h1m64 9h1"/><path stroke="#8872b5" d="M342 222h1m-3 1h1"/><path stroke="#736ebb" d="M417 227h1"/><path stroke="#9180bc" d="M410 230h1"/><path stroke="#6763b6" d="M411 230h1"/><path stroke="#6766b4" d="M404 233h1m29 0h1"/><path stroke="#8d7ebd" d="M396 235h1"/><path stroke="#fdfdff" d="M397 235h1"/><path stroke="#ad97be" d="M436 235h1"/></svg>